<ttFont>
    <TTGlyph name=".ttfautohint" xMin="0" yMin="0" xMax="0" yMax="0">
      <contour>
        <pt x="0" y="0" on="1"/>
      </contour>
    </TTGlyph>
    <TTGlyph name="A" xMin="15" yMin="0" xMax="555" yMax="700">
      <contour>
        <pt x="455" y="0" on="1"/>
        <pt x="400" y="180" on="1"/>
        <pt x="170" y="180" on="1"/>
        <pt x="115" y="0" on="1"/>
        <pt x="15" y="0" on="1"/>
        <pt x="220" y="700" on="1"/>
        <pt x="350" y="700" on="1"/>
        <pt x="555" y="0" on="1"/>
      </contour>
      <contour>
        <pt x="190" y="250" on="1"/>
        <pt x="380" y="250" on="1"/>
        <pt x="300" y="525" on="1"/>
        <pt x="296" y="536" on="0"/>
        <pt x="292" y="561" on="0"/>
        <pt x="290" y="572" on="1"/>
        <pt x="288" y="584" on="0"/>
        <pt x="287" y="595" on="1"/>
        <pt x="283" y="595" on="1"/>
        <pt x="282" y="583" on="0"/>
        <pt x="280" y="571" on="1"/>
        <pt x="278" y="560" on="0"/>
        <pt x="273" y="536" on="0"/>
        <pt x="270" y="525" on="1"/>
      </contour>
    </TTGlyph>
    <TTGlyph name="AE" xMin="-20" yMin="0" xMax="785" yMax="700">
      <contour>
        <pt x="395" y="0" on="1"/>
        <pt x="395" y="200" on="1"/>
        <pt x="165" y="200" on="1"/>
        <pt x="80" y="0" on="1"/>
        <pt x="-20" y="0" on="1"/>
        <pt x="275" y="700" on="1"/>
        <pt x="785" y="700" on="1"/>
        <pt x="785" y="630" on="1"/>
        <pt x="495" y="630" on="1"/>
        <pt x="495" y="400" on="1"/>
        <pt x="725" y="400" on="1"/>
        <pt x="725" y="330" on="1"/>
        <pt x="495" y="330" on="1"/>
        <pt x="495" y="70" on="1"/>
        <pt x="785" y="70" on="1"/>
        <pt x="785" y="0" on="1"/>
      </contour>
      <contour>
        <pt x="195" y="270" on="1"/>
        <pt x="395" y="270" on="1"/>
        <pt x="395" y="630" on="1"/>
        <pt x="345" y="630" on="1"/>
      </contour>
    </TTGlyph>
    <TTGlyph name="Aacute" xMin="15" yMin="0" xMax="555" yMax="900">
      <component glyphName=".ttfautohint" x="15" y="0" flags="0x1000"/>
      <component glyphName="A" x="0" y="0" flags="0x1204"/>
      <component glyphName="acute" x="227" y="200" flags="0x1004"/>
    </TTGlyph>
    <TTGlyph name="Abreve" xMin="15" yMin="0" xMax="555" yMax="890">
      <component glyphName=".ttfautohint" x="15" y="0" flags="0x1000"/>
      <component glyphName="A" x="0" y="0" flags="0x1204"/>
      <component glyphName="breve" x="125" y="200" flags="0x1004"/>
    </TTGlyph>
    <TTGlyph name="Acircumflex" xMin="15" yMin="0" xMax="555" yMax="880">
      <component glyphName=".ttfautohint" x="15" y="0" flags="0x1000"/>
      <component glyphName="A" x="0" y="0" flags="0x1204"/>
      <component glyphName="circumflex" x="125" y="190" flags="0x1004"/>
    </TTGlyph>
    <TTGlyph name="Adieresis" xMin="15" yMin="0" xMax="555" yMax="865">
      <component glyphName=".ttfautohint" x="15" y="0" flags="0x1000"/>
      <component glyphName="A" x="0" y="0" flags="0x1204"/>
      <component glyphName="dieresis" x="130" y="190" flags="0x1004"/>
    </TTGlyph>
    <TTGlyph name="Agrave" xMin="15" yMin="0" xMax="555" yMax="900">
      <component glyphName=".ttfautohint" x="15" y="0" flags="0x1000"/>
      <component glyphName="A" x="0" y="0" flags="0x1204"/>
      <component glyphName="grave" x="157" y="200" flags="0x1004"/>
    </TTGlyph>
    <TTGlyph name="Amacron" xMin="15" yMin="0" xMax="555" yMax="850">
      <component glyphName=".ttfautohint" x="15" y="0" flags="0x1000"/>
      <component glyphName="A" x="0" y="0" flags="0x1204"/>
      <component glyphName="macron" x="130" y="190" flags="0x1004"/>
    </TTGlyph>
    <TTGlyph name="Aogonek" xMin="15" yMin="-155" xMax="605" yMax="700">
      <component glyphName=".ttfautohint" x="15" y="0" flags="0x1000"/>
      <component glyphName="A" x="0" y="0" flags="0x1004"/>
      <component glyphName="ogonek" x="425" y="0" flags="0x1004"/>
    </TTGlyph>
    <TTGlyph name="Aring" xMin="15" yMin="0" xMax="555" yMax="930">
      <component glyphName=".ttfautohint" x="15" y="0" flags="0x1000"/>
      <component glyphName="A" x="0" y="0" flags="0x1204"/>
      <component glyphName="ring" x="175" y="200" flags="0x1004"/>
    </TTGlyph>
    <TTGlyph name="Atilde" xMin="15" yMin="0" xMax="555" yMax="865">
      <component glyphName=".ttfautohint" x="15" y="0" flags="0x1000"/>
      <component glyphName="A" x="0" y="0" flags="0x1204"/>
      <component glyphName="tilde" x="131" y="170" flags="0x1004"/>
    </TTGlyph>
    <TTGlyph name="B" xMin="90" yMin="0" xMax="525" yMax="700">
      <contour>
        <pt x="385" y="370" on="1"/>
        <pt x="424" y="361" on="0"/>
        <pt x="455" y="338" on="1"/>
        <pt x="468" y="328" on="0"/>
        <pt x="493" y="301" on="0"/>
        <pt x="513" y="265" on="0"/>
        <pt x="525" y="219" on="0"/>
        <pt x="525" y="190" on="1"/>
        <pt x="525" y="147" on="0"/>
        <pt x="496" y="77" on="0"/>
        <pt x="436" y="27" on="0"/>
        <pt x="344" y="0" on="0"/>
        <pt x="280" y="0" on="1"/>
        <pt x="90" y="0" on="1"/>
        <pt x="90" y="700" on="1"/>
        <pt x="280" y="700" on="1"/>
        <pt x="334" y="700" on="0"/>
        <pt x="417" y="673" on="0"/>
        <pt x="472" y="627" on="0"/>
        <pt x="500" y="562" on="0"/>
        <pt x="500" y="525" on="1"/>
        <pt x="500" y="476" on="0"/>
        <pt x="464" y="416" on="0"/>
        <pt x="442" y="399" on="1"/>
        <pt x="416" y="379" on="0"/>
      </contour>
      <contour>
        <pt x="190" y="400" on="1"/>
        <pt x="280" y="400" on="1"/>
        <pt x="337" y="400" on="0"/>
        <pt x="400" y="462" on="0"/>
        <pt x="400" y="515" on="1"/>
        <pt x="400" y="568" on="0"/>
        <pt x="337" y="630" on="0"/>
        <pt x="280" y="630" on="1"/>
        <pt x="190" y="630" on="1"/>
      </contour>
      <contour>
        <pt x="190" y="330" on="1"/>
        <pt x="190" y="70" on="1"/>
        <pt x="280" y="70" on="1"/>
        <pt x="355" y="70" on="0"/>
        <pt x="425" y="136" on="0"/>
        <pt x="425" y="200" on="1"/>
        <pt x="425" y="264" on="0"/>
        <pt x="355" y="330" on="0"/>
        <pt x="280" y="330" on="1"/>
      </contour>
    </TTGlyph>
    <TTGlyph name="C" xMin="55" yMin="-10" xMax="490" yMax="710">
      <contour>
        <pt x="55" y="350" on="1"/>
        <pt x="55" y="447" on="0"/>
        <pt x="91" y="584" on="0"/>
        <pt x="157" y="671" on="0"/>
        <pt x="249" y="710" on="0"/>
        <pt x="305" y="710" on="1"/>
        <pt x="347" y="710" on="0"/>
        <pt x="411" y="693" on="0"/>
        <pt x="434" y="682" on="1"/>
        <pt x="460" y="670" on="0"/>
        <pt x="480" y="655" on="1"/>
        <pt x="445" y="595" on="1"/>
        <pt x="435" y="595" on="1"/>
        <pt x="419" y="607" on="0"/>
        <pt x="401" y="617" on="1"/>
        <pt x="385" y="625" on="0"/>
        <pt x="341" y="640" on="0"/>
        <pt x="315" y="640" on="1"/>
        <pt x="281" y="640" on="0"/>
        <pt x="223" y="611" on="0"/>
        <pt x="180" y="544" on="0"/>
        <pt x="155" y="432" on="0"/>
        <pt x="155" y="350" on="1"/>
        <pt x="155" y="267" on="0"/>
        <pt x="180" y="156" on="0"/>
        <pt x="225" y="89" on="0"/>
        <pt x="287" y="60" on="0"/>
        <pt x="325" y="60" on="1"/>
        <pt x="351" y="60" on="0"/>
        <pt x="395" y="74" on="0"/>
        <pt x="411" y="82" on="1"/>
        <pt x="429" y="92" on="0"/>
        <pt x="445" y="105" on="1"/>
        <pt x="455" y="105" on="1"/>
        <pt x="490" y="45" on="1"/>
        <pt x="470" y="29" on="0"/>
        <pt x="444" y="17" on="1"/>
        <pt x="421" y="6" on="0"/>
        <pt x="357" y="-10" on="0"/>
        <pt x="315" y="-10" on="1"/>
        <pt x="255" y="-10" on="0"/>
        <pt x="159" y="29" on="0"/>
        <pt x="91" y="116" on="0"/>
        <pt x="55" y="252" on="0"/>
      </contour>
    </TTGlyph>
    <TTGlyph name="Cacute" xMin="55" yMin="-10" xMax="490" yMax="900">
      <component glyphName=".ttfautohint" x="55" y="0" flags="0x1000"/>
      <component glyphName="C" x="0" y="0" flags="0x1204"/>
      <component glyphName="acute" x="260" y="200" flags="0x1004"/>
    </TTGlyph>
    <TTGlyph name="Ccaron" xMin="55" yMin="-10" xMax="490" yMax="890">
      <component glyphName=".ttfautohint" x="55" y="0" flags="0x1000"/>
      <component glyphName="C" x="0" y="0" flags="0x1204"/>
      <component glyphName="caron" x="147" y="200" flags="0x1004"/>
    </TTGlyph>
    <TTGlyph name="Ccedilla" xMin="55" yMin="-190" xMax="490" yMax="710">
      <component glyphName=".ttfautohint" x="55" y="0" flags="0x1000"/>
      <component glyphName="C" x="0" y="0" flags="0x1204"/>
      <component glyphName="cedilla" x="220" y="0" flags="0x1004"/>
    </TTGlyph>
    <TTGlyph name="D" xMin="90" yMin="0" xMax="530" yMax="700">
      <contour>
        <pt x="90" y="0" on="1"/>
        <pt x="90" y="700" on="1"/>
        <pt x="240" y="700" on="1"/>
        <pt x="311" y="700" on="0"/>
        <pt x="420" y="661" on="0"/>
        <pt x="493" y="577" on="0"/>
        <pt x="530" y="444" on="0"/>
        <pt x="530" y="350" on="1"/>
        <pt x="530" y="256" on="0"/>
        <pt x="493" y="123" on="0"/>
        <pt x="420" y="39" on="0"/>
        <pt x="311" y="0" on="0"/>
        <pt x="240" y="0" on="1"/>
      </contour>
      <contour>
        <pt x="240" y="70" on="1"/>
        <pt x="285" y="70" on="0"/>
        <pt x="356" y="98" on="0"/>
        <pt x="404" y="164" on="0"/>
        <pt x="430" y="271" on="0"/>
        <pt x="430" y="350" on="1"/>
        <pt x="430" y="429" on="0"/>
        <pt x="404" y="536" on="0"/>
        <pt x="356" y="602" on="0"/>
        <pt x="285" y="630" on="0"/>
        <pt x="240" y="630" on="1"/>
        <pt x="190" y="630" on="1"/>
        <pt x="190" y="70" on="1"/>
      </contour>
    </TTGlyph>
    <TTGlyph name="Dcaron" xMin="90" yMin="0" xMax="530" yMax="890">
      <component glyphName=".ttfautohint" x="90" y="0" flags="0x1000"/>
      <component glyphName="D" x="0" y="0" flags="0x1204"/>
      <component glyphName="caron" x="107" y="200" flags="0x1004"/>
    </TTGlyph>
    <TTGlyph name="Dcroat" xMin="35" yMin="0" xMax="530" yMax="700">
      <contour>
        <pt x="90" y="0" on="1"/>
        <pt x="90" y="320" on="1"/>
        <pt x="35" y="320" on="1"/>
        <pt x="35" y="400" on="1"/>
        <pt x="90" y="400" on="1"/>
        <pt x="90" y="700" on="1"/>
        <pt x="240" y="700" on="1"/>
        <pt x="311" y="700" on="0"/>
        <pt x="420" y="661" on="0"/>
        <pt x="493" y="577" on="0"/>
        <pt x="530" y="444" on="0"/>
        <pt x="530" y="350" on="1"/>
        <pt x="530" y="256" on="0"/>
        <pt x="493" y="123" on="0"/>
        <pt x="420" y="39" on="0"/>
        <pt x="311" y="0" on="0"/>
        <pt x="240" y="0" on="1"/>
      </contour>
      <contour>
        <pt x="240" y="70" on="1"/>
        <pt x="285" y="70" on="0"/>
        <pt x="356" y="98" on="0"/>
        <pt x="404" y="164" on="0"/>
        <pt x="430" y="271" on="0"/>
        <pt x="430" y="350" on="1"/>
        <pt x="430" y="429" on="0"/>
        <pt x="404" y="536" on="0"/>
        <pt x="356" y="602" on="0"/>
        <pt x="285" y="630" on="0"/>
        <pt x="240" y="630" on="1"/>
        <pt x="190" y="630" on="1"/>
        <pt x="190" y="400" on="1"/>
        <pt x="305" y="400" on="1"/>
        <pt x="305" y="320" on="1"/>
        <pt x="190" y="320" on="1"/>
        <pt x="190" y="70" on="1"/>
      </contour>
    </TTGlyph>
    <TTGlyph name="E" xMin="90" yMin="0" xMax="480" yMax="700">
      <contour>
        <pt x="90" y="0" on="1"/>
        <pt x="90" y="700" on="1"/>
        <pt x="480" y="700" on="1"/>
        <pt x="480" y="630" on="1"/>
        <pt x="190" y="630" on="1"/>
        <pt x="190" y="400" on="1"/>
        <pt x="420" y="400" on="1"/>
        <pt x="420" y="330" on="1"/>
        <pt x="190" y="330" on="1"/>
        <pt x="190" y="70" on="1"/>
        <pt x="480" y="70" on="1"/>
        <pt x="480" y="0" on="1"/>
      </contour>
    </TTGlyph>
    <TTGlyph name="Eacute" xMin="90" yMin="0" xMax="480" yMax="900">
      <component glyphName=".ttfautohint" x="90" y="0" flags="0x1000"/>
      <component glyphName="E" x="0" y="0" flags="0x1204"/>
      <component glyphName="acute" x="220" y="200" flags="0x1004"/>
    </TTGlyph>
    <TTGlyph name="Ecaron" xMin="90" yMin="0" xMax="480" yMax="890">
      <component glyphName=".ttfautohint" x="90" y="0" flags="0x1000"/>
      <component glyphName="E" x="0" y="0" flags="0x1204"/>
      <component glyphName="caron" x="137" y="200" flags="0x1004"/>
    </TTGlyph>
    <TTGlyph name="Ecircumflex" xMin="90" yMin="0" xMax="480" yMax="890">
      <component glyphName=".ttfautohint" x="90" y="0" flags="0x1000"/>
      <component glyphName="E" x="0" y="0" flags="0x1204"/>
      <component glyphName="circumflex" x="127" y="200" flags="0x1004"/>
    </TTGlyph>
    <TTGlyph name="Edieresis" xMin="90" yMin="0" xMax="480" yMax="875">
      <component glyphName=".ttfautohint" x="90" y="0" flags="0x1000"/>
      <component glyphName="E" x="0" y="0" flags="0x1204"/>
      <component glyphName="dieresis" x="132" y="200" flags="0x1004"/>
    </TTGlyph>
    <TTGlyph name="Edotaccent" xMin="90" yMin="0" xMax="480" yMax="880">
      <component glyphName=".ttfautohint" x="90" y="0" flags="0x1000"/>
      <component glyphName="E" x="0" y="0" flags="0x1204"/>
      <component glyphName="dotaccent" x="227" y="200" flags="0x1004"/>
    </TTGlyph>
    <TTGlyph name="Egrave" xMin="90" yMin="0" xMax="480" yMax="900">
      <component glyphName=".ttfautohint" x="90" y="0" flags="0x1000"/>
      <component glyphName="E" x="0" y="0" flags="0x1204"/>
      <component glyphName="grave" x="170" y="200" flags="0x1004"/>
    </TTGlyph>
    <TTGlyph name="Emacron" xMin="90" yMin="0" xMax="480" yMax="860">
      <component glyphName=".ttfautohint" x="90" y="0" flags="0x1000"/>
      <component glyphName="E" x="0" y="0" flags="0x1204"/>
      <component glyphName="macron" x="132" y="200" flags="0x1004"/>
    </TTGlyph>
    <TTGlyph name="Eogonek" xMin="90" yMin="-155" xMax="480" yMax="700">
      <component glyphName=".ttfautohint" x="90" y="0" flags="0x1000"/>
      <component glyphName="E" x="0" y="0" flags="0x1204"/>
      <component glyphName="ogonek" x="210" y="0" flags="0x1004"/>
    </TTGlyph>
    <TTGlyph name="Eth" xMin="35" yMin="0" xMax="530" yMax="700">
      <contour>
        <pt x="90" y="0" on="1"/>
        <pt x="90" y="320" on="1"/>
        <pt x="35" y="320" on="1"/>
        <pt x="35" y="400" on="1"/>
        <pt x="90" y="400" on="1"/>
        <pt x="90" y="700" on="1"/>
        <pt x="240" y="700" on="1"/>
        <pt x="311" y="700" on="0"/>
        <pt x="420" y="661" on="0"/>
        <pt x="493" y="577" on="0"/>
        <pt x="530" y="444" on="0"/>
        <pt x="530" y="350" on="1"/>
        <pt x="530" y="256" on="0"/>
        <pt x="493" y="123" on="0"/>
        <pt x="420" y="39" on="0"/>
        <pt x="311" y="0" on="0"/>
        <pt x="240" y="0" on="1"/>
      </contour>
      <contour>
        <pt x="240" y="70" on="1"/>
        <pt x="285" y="70" on="0"/>
        <pt x="356" y="98" on="0"/>
        <pt x="404" y="164" on="0"/>
        <pt x="430" y="271" on="0"/>
        <pt x="430" y="350" on="1"/>
        <pt x="430" y="429" on="0"/>
        <pt x="404" y="536" on="0"/>
        <pt x="356" y="602" on="0"/>
        <pt x="285" y="630" on="0"/>
        <pt x="240" y="630" on="1"/>
        <pt x="190" y="630" on="1"/>
        <pt x="190" y="400" on="1"/>
        <pt x="305" y="400" on="1"/>
        <pt x="305" y="320" on="1"/>
        <pt x="190" y="320" on="1"/>
        <pt x="190" y="70" on="1"/>
      </contour>
    </TTGlyph>
    <TTGlyph name="Euro" xMin="10" yMin="-10" xMax="520" yMax="710">
      <contour>
        <pt x="25" y="440" on="1"/>
        <pt x="89" y="440" on="1"/>
        <pt x="97" y="512" on="0"/>
        <pt x="139" y="615" on="0"/>
        <pt x="202" y="680" on="0"/>
        <pt x="285" y="710" on="0"/>
        <pt x="335" y="710" on="1"/>
        <pt x="377" y="710" on="0"/>
        <pt x="441" y="693" on="0"/>
        <pt x="464" y="682" on="1"/>
        <pt x="490" y="670" on="0"/>
        <pt x="510" y="655" on="1"/>
        <pt x="475" y="595" on="1"/>
        <pt x="465" y="595" on="1"/>
        <pt x="449" y="607" on="0"/>
        <pt x="431" y="617" on="1"/>
        <pt x="415" y="625" on="0"/>
        <pt x="371" y="640" on="0"/>
        <pt x="345" y="640" on="1"/>
        <pt x="316" y="640" on="0"/>
        <pt x="265" y="619" on="0"/>
        <pt x="224" y="572" on="0"/>
        <pt x="195" y="496" on="0"/>
        <pt x="189" y="440" on="1"/>
        <pt x="409" y="440" on="1"/>
        <pt x="399" y="380" on="1"/>
        <pt x="185" y="380" on="1"/>
        <pt x="185" y="320" on="1"/>
        <pt x="395" y="320" on="1"/>
        <pt x="385" y="260" on="1"/>
        <pt x="189" y="260" on="1"/>
        <pt x="196" y="204" on="0"/>
        <pt x="225" y="127" on="0"/>
        <pt x="268" y="80" on="0"/>
        <pt x="323" y="60" on="0"/>
        <pt x="355" y="60" on="1"/>
        <pt x="381" y="60" on="0"/>
        <pt x="425" y="74" on="0"/>
        <pt x="441" y="82" on="1"/>
        <pt x="459" y="92" on="0"/>
        <pt x="475" y="105" on="1"/>
        <pt x="485" y="105" on="1"/>
        <pt x="520" y="45" on="1"/>
        <pt x="500" y="29" on="0"/>
        <pt x="474" y="17" on="1"/>
        <pt x="451" y="6" on="0"/>
        <pt x="387" y="-10" on="0"/>
        <pt x="345" y="-10" on="1"/>
        <pt x="292" y="-10" on="0"/>
        <pt x="206" y="20" on="0"/>
        <pt x="140" y="85" on="0"/>
        <pt x="97" y="187" on="0"/>
        <pt x="89" y="260" on="1"/>
        <pt x="10" y="260" on="1"/>
        <pt x="20" y="320" on="1"/>
        <pt x="85" y="320" on="1"/>
        <pt x="85" y="380" on="1"/>
        <pt x="15" y="380" on="1"/>
      </contour>
    </TTGlyph>
    <TTGlyph name="F" xMin="90" yMin="0" xMax="480" yMax="700">
      <contour>
        <pt x="90" y="0" on="1"/>
        <pt x="90" y="700" on="1"/>
        <pt x="480" y="700" on="1"/>
        <pt x="480" y="630" on="1"/>
        <pt x="190" y="630" on="1"/>
        <pt x="190" y="390" on="1"/>
        <pt x="420" y="390" on="1"/>
        <pt x="420" y="320" on="1"/>
        <pt x="190" y="320" on="1"/>
        <pt x="190" y="0" on="1"/>
      </contour>
    </TTGlyph>
    <TTGlyph name="G" xMin="55" yMin="-10" xMax="500" yMax="710">
      <contour>
        <pt x="500" y="45" on="1"/>
        <pt x="479" y="29" on="0"/>
        <pt x="451" y="17" on="1"/>
        <pt x="427" y="6" on="0"/>
        <pt x="358" y="-10" on="0"/>
        <pt x="315" y="-10" on="1"/>
        <pt x="259" y="-10" on="0"/>
        <pt x="163" y="32" on="0"/>
        <pt x="94" y="120" on="0"/>
        <pt x="55" y="256" on="0"/>
        <pt x="55" y="350" on="1"/>
        <pt x="55" y="444" on="0"/>
        <pt x="94" y="580" on="0"/>
        <pt x="161" y="668" on="0"/>
        <pt x="252" y="710" on="0"/>
        <pt x="305" y="710" on="1"/>
        <pt x="347" y="710" on="0"/>
        <pt x="411" y="693" on="0"/>
        <pt x="434" y="682" on="1"/>
        <pt x="460" y="670" on="0"/>
        <pt x="480" y="655" on="1"/>
        <pt x="445" y="595" on="1"/>
        <pt x="435" y="595" on="1"/>
        <pt x="419" y="607" on="0"/>
        <pt x="401" y="617" on="1"/>
        <pt x="385" y="625" on="0"/>
        <pt x="341" y="640" on="0"/>
        <pt x="315" y="640" on="1"/>
        <pt x="281" y="640" on="0"/>
        <pt x="223" y="611" on="0"/>
        <pt x="180" y="544" on="0"/>
        <pt x="155" y="432" on="0"/>
        <pt x="155" y="350" on="1"/>
        <pt x="155" y="267" on="0"/>
        <pt x="180" y="156" on="0"/>
        <pt x="225" y="89" on="0"/>
        <pt x="287" y="60" on="0"/>
        <pt x="325" y="60" on="1"/>
        <pt x="340" y="60" on="0"/>
        <pt x="367" y="67" on="0"/>
        <pt x="388" y="74" on="0"/>
        <pt x="400" y="80" on="0"/>
        <pt x="400" y="80" on="1"/>
        <pt x="400" y="310" on="1"/>
        <pt x="285" y="310" on="1"/>
        <pt x="285" y="380" on="1"/>
        <pt x="470" y="380" on="1"/>
        <pt x="500" y="350" on="1"/>
      </contour>
    </TTGlyph>
    <TTGlyph name="Gbreve" xMin="55" yMin="-10" xMax="500" yMax="880">
      <component glyphName=".ttfautohint" x="55" y="0" flags="0x1000"/>
      <component glyphName="G" x="0" y="0" flags="0x1204"/>
      <component glyphName="breve" x="137" y="190" flags="0x1004"/>
    </TTGlyph>
    <TTGlyph name="Gcommaaccent" xMin="55" yMin="-265" xMax="500" yMax="710">
      <component glyphName=".ttfautohint" x="55" y="0" flags="0x1000"/>
      <component glyphName="G" x="0" y="0" flags="0x1204"/>
      <component glyphName="commaaccent" x="242" y="-29" flags="0x1004"/>
    </TTGlyph>
    <TTGlyph name="H" xMin="90" yMin="0" xMax="540" yMax="700">
      <contour>
        <pt x="540" y="700" on="1"/>
        <pt x="540" y="0" on="1"/>
        <pt x="440" y="0" on="1"/>
        <pt x="440" y="320" on="1"/>
        <pt x="190" y="320" on="1"/>
        <pt x="190" y="0" on="1"/>
        <pt x="90" y="0" on="1"/>
        <pt x="90" y="700" on="1"/>
        <pt x="190" y="700" on="1"/>
        <pt x="190" y="390" on="1"/>
        <pt x="440" y="390" on="1"/>
        <pt x="440" y="700" on="1"/>
      </contour>
    </TTGlyph>
    <TTGlyph name="I" xMin="90" yMin="0" xMax="190" yMax="700">
      <contour>
        <pt x="90" y="700" on="1"/>
        <pt x="190" y="700" on="1"/>
        <pt x="190" y="0" on="1"/>
        <pt x="90" y="0" on="1"/>
      </contour>
    </TTGlyph>
    <TTGlyph name="Iacute" xMin="90" yMin="0" xMax="257" yMax="900">
      <component glyphName=".ttfautohint" x="90" y="0" flags="0x1000"/>
      <component glyphName="I" x="0" y="0" flags="0x1004"/>
      <component glyphName="acute" x="92" y="200" flags="0x1004"/>
    </TTGlyph>
    <TTGlyph name="Icircumflex" xMin="-4" yMin="0" xMax="276" yMax="890">
      <component glyphName=".ttfautohint" x="0" y="0" flags="0x1000"/>
      <component glyphName="I" x="-4" y="0" flags="0x1004"/>
      <component glyphName="circumflex" x="-24" y="200" flags="0x1004"/>
    </TTGlyph>
    <TTGlyph name="Idieresis" xMin="-14" yMin="0" xMax="271" yMax="875">
      <component glyphName=".ttfautohint" x="0" y="0" flags="0x1000"/>
      <component glyphName="I" x="-9" y="0" flags="0x1004"/>
      <component glyphName="dieresis" x="-24" y="200" flags="0x1004"/>
    </TTGlyph>
    <TTGlyph name="Idotaccent" xMin="70" yMin="0" xMax="190" yMax="880">
      <component glyphName=".ttfautohint" x="70" y="0" flags="0x1000"/>
      <component glyphName="I" x="-9" y="0" flags="0x1004"/>
      <component glyphName="dotaccent" x="60" y="200" flags="0x1004"/>
    </TTGlyph>
    <TTGlyph name="Igrave" xMin="20" yMin="0" xMax="189" yMax="900">
      <component glyphName=".ttfautohint" x="20" y="0" flags="0x1000"/>
      <component glyphName="I" x="-1" y="0" flags="0x1004"/>
      <component glyphName="grave" x="10" y="200" flags="0x1004"/>
    </TTGlyph>
    <TTGlyph name="Imacron" xMin="-4" yMin="0" xMax="266" yMax="850">
      <component glyphName=".ttfautohint" x="0" y="0" flags="0x1000"/>
      <component glyphName="I" x="-9" y="0" flags="0x1004"/>
      <component glyphName="macron" x="-24" y="190" flags="0x1004"/>
    </TTGlyph>
    <TTGlyph name="Iogonek" xMin="65" yMin="-155" xMax="235" yMax="700">
      <component glyphName=".ttfautohint" x="65" y="0" flags="0x1000"/>
      <component glyphName="I" x="-4" y="0" flags="0x1004"/>
      <component glyphName="ogonek" x="55" y="0" flags="0x1004"/>
    </TTGlyph>
    <TTGlyph name="Itilde" xMin="-18" yMin="0" xMax="257" yMax="895">
      <component glyphName=".ttfautohint" x="0" y="0" flags="0x1000"/>
      <component glyphName="I" x="-14" y="0" flags="0x1004"/>
      <component glyphName="tilde" x="-28" y="200" flags="0x1004"/>
    </TTGlyph>
    <TTGlyph name="J" xMin="0" yMin="-10" xMax="340" yMax="700">
      <contour>
        <pt x="125" y="60" on="1"/>
        <pt x="182" y="60" on="0"/>
        <pt x="240" y="122" on="0"/>
        <pt x="240" y="190" on="1"/>
        <pt x="240" y="700" on="1"/>
        <pt x="340" y="700" on="1"/>
        <pt x="340" y="190" on="1"/>
        <pt x="340" y="92" on="0"/>
        <pt x="237" y="-10" on="0"/>
        <pt x="135" y="-10" on="1"/>
        <pt x="105" y="-10" on="0"/>
        <pt x="55" y="4" on="0"/>
        <pt x="37" y="12" on="1"/>
        <pt x="16" y="22" on="0"/>
        <pt x="0" y="35" on="1"/>
        <pt x="30" y="100" on="1"/>
        <pt x="40" y="100" on="1"/>
        <pt x="52" y="89" on="0"/>
        <pt x="66" y="80" on="1"/>
        <pt x="78" y="72" on="0"/>
        <pt x="108" y="60" on="0"/>
      </contour>
    </TTGlyph>
    <TTGlyph name="Jcircumflex" xMin="0" yMin="-10" xMax="425" yMax="870">
      <component glyphName=".ttfautohint" x="0" y="0" flags="0x1000"/>
      <component glyphName="J" x="0" y="0" flags="0x1004"/>
      <component glyphName="circumflex" x="125" y="180" flags="0x1004"/>
    </TTGlyph>
    <TTGlyph name="K" xMin="90" yMin="0" xMax="540" yMax="700">
      <contour>
        <pt x="540" y="0" on="1"/>
        <pt x="425" y="0" on="1"/>
        <pt x="190" y="350" on="1"/>
        <pt x="190" y="0" on="1"/>
        <pt x="90" y="0" on="1"/>
        <pt x="90" y="700" on="1"/>
        <pt x="190" y="700" on="1"/>
        <pt x="190" y="370" on="1"/>
        <pt x="415" y="700" on="1"/>
        <pt x="530" y="700" on="1"/>
        <pt x="300" y="360" on="1"/>
      </contour>
    </TTGlyph>
    <TTGlyph name="Kcommaaccent" xMin="90" yMin="-226" xMax="540" yMax="700">
      <component glyphName=".ttfautohint" x="90" y="0" flags="0x1000"/>
      <component glyphName="K" x="0" y="0" flags="0x1204"/>
      <component glyphName="commaaccent" x="227" y="10" flags="0x1004"/>
    </TTGlyph>
    <TTGlyph name="L" xMin="90" yMin="0" xMax="480" yMax="700">
      <contour>
        <pt x="190" y="700" on="1"/>
        <pt x="190" y="70" on="1"/>
        <pt x="480" y="70" on="1"/>
        <pt x="480" y="0" on="1"/>
        <pt x="90" y="0" on="1"/>
        <pt x="90" y="700" on="1"/>
      </contour>
    </TTGlyph>
    <TTGlyph name="Lacute" xMin="90" yMin="0" xMax="480" yMax="900">
      <component glyphName=".ttfautohint" x="90" y="0" flags="0x1000"/>
      <component glyphName="L" x="0" y="0" flags="0x1204"/>
      <component glyphName="acute" x="110" y="200" flags="0x1004"/>
    </TTGlyph>
    <TTGlyph name="Lcaron" xMin="90" yMin="0" xMax="480" yMax="700">
      <contour>
        <pt x="265" y="645" on="1"/>
        <pt x="265" y="668" on="0"/>
        <pt x="296" y="700" on="0"/>
        <pt x="315" y="700" on="1"/>
        <pt x="341" y="700" on="0"/>
        <pt x="375" y="665" on="0"/>
        <pt x="375" y="636" on="1"/>
        <pt x="375" y="596" on="0"/>
        <pt x="350" y="539" on="0"/>
        <pt x="335" y="520" on="1"/>
        <pt x="317" y="498" on="0"/>
        <pt x="295" y="484" on="1"/>
        <pt x="265" y="515" on="1"/>
        <pt x="279" y="525" on="0"/>
        <pt x="290" y="537" on="1"/>
        <pt x="299" y="548" on="0"/>
        <pt x="315" y="575" on="0"/>
        <pt x="315" y="590" on="1"/>
        <pt x="296" y="590" on="0"/>
        <pt x="265" y="622" on="0"/>
      </contour>
      <contour>
        <pt x="190" y="700" on="1"/>
        <pt x="190" y="70" on="1"/>
        <pt x="480" y="70" on="1"/>
        <pt x="480" y="0" on="1"/>
        <pt x="90" y="0" on="1"/>
        <pt x="90" y="700" on="1"/>
      </contour>
    </TTGlyph>
    <TTGlyph name="Lcommaaccent" xMin="90" yMin="-265" xMax="480" yMax="700">
      <component glyphName=".ttfautohint" x="90" y="0" flags="0x1000"/>
      <component glyphName="L" x="0" y="0" flags="0x1204"/>
      <component glyphName="commaaccent" x="222" y="-29" flags="0x1004"/>
    </TTGlyph>
    <TTGlyph name="Lslash" xMin="15" yMin="0" xMax="462" yMax="700">
      <contour>
        <pt x="182" y="700" on="1"/>
        <pt x="182" y="455" on="1"/>
        <pt x="295" y="540" on="1"/>
        <pt x="295" y="430" on="1"/>
        <pt x="182" y="345" on="1"/>
        <pt x="182" y="70" on="1"/>
        <pt x="462" y="70" on="1"/>
        <pt x="462" y="0" on="1"/>
        <pt x="82" y="0" on="1"/>
        <pt x="82" y="270" on="1"/>
        <pt x="15" y="220" on="1"/>
        <pt x="15" y="330" on="1"/>
        <pt x="82" y="380" on="1"/>
        <pt x="82" y="700" on="1"/>
      </contour>
    </TTGlyph>
    <TTGlyph name="M" xMin="90" yMin="0" xMax="750" yMax="700">
      <contour>
        <pt x="400" y="275" on="1"/>
        <pt x="404" y="269" on="0"/>
        <pt x="411" y="252" on="0"/>
        <pt x="413" y="244" on="1"/>
        <pt x="416" y="234" on="0"/>
        <pt x="418" y="225" on="1"/>
        <pt x="422" y="225" on="1"/>
        <pt x="424" y="234" on="0"/>
        <pt x="427" y="244" on="1"/>
        <pt x="429" y="252" on="0"/>
        <pt x="436" y="269" on="0"/>
        <pt x="440" y="275" on="1"/>
        <pt x="650" y="700" on="1"/>
        <pt x="750" y="700" on="1"/>
        <pt x="750" y="0" on="1"/>
        <pt x="650" y="0" on="1"/>
        <pt x="650" y="420" on="1"/>
        <pt x="650" y="431" on="0"/>
        <pt x="651" y="460" on="0"/>
        <pt x="652" y="474" on="1"/>
        <pt x="653" y="489" on="0"/>
        <pt x="654" y="505" on="1"/>
        <pt x="650" y="505" on="1"/>
        <pt x="646" y="489" on="0"/>
        <pt x="641" y="474" on="1"/>
        <pt x="636" y="460" on="0"/>
        <pt x="625" y="431" on="0"/>
        <pt x="620" y="420" on="1"/>
        <pt x="470" y="125" on="1"/>
        <pt x="370" y="125" on="1"/>
        <pt x="220" y="420" on="1"/>
        <pt x="214" y="431" on="0"/>
        <pt x="204" y="460" on="0"/>
        <pt x="199" y="474" on="1"/>
        <pt x="194" y="489" on="0"/>
        <pt x="190" y="505" on="1"/>
        <pt x="186" y="505" on="1"/>
        <pt x="187" y="489" on="0"/>
        <pt x="188" y="474" on="1"/>
        <pt x="189" y="460" on="0"/>
        <pt x="190" y="431" on="0"/>
        <pt x="190" y="420" on="1"/>
        <pt x="190" y="0" on="1"/>
        <pt x="90" y="0" on="1"/>
        <pt x="90" y="700" on="1"/>
        <pt x="190" y="700" on="1"/>
      </contour>
    </TTGlyph>
    <TTGlyph name="N" xMin="90" yMin="0" xMax="540" yMax="700">
      <contour>
        <pt x="220" y="445" on="1"/>
        <pt x="215" y="456" on="0"/>
        <pt x="205" y="485" on="0"/>
        <pt x="200" y="499" on="1"/>
        <pt x="195" y="514" on="0"/>
        <pt x="190" y="530" on="1"/>
        <pt x="186" y="530" on="1"/>
        <pt x="187" y="514" on="0"/>
        <pt x="188" y="499" on="1"/>
        <pt x="189" y="485" on="0"/>
        <pt x="190" y="456" on="0"/>
        <pt x="190" y="445" on="1"/>
        <pt x="190" y="0" on="1"/>
        <pt x="90" y="0" on="1"/>
        <pt x="90" y="700" on="1"/>
        <pt x="200" y="700" on="1"/>
        <pt x="410" y="255" on="1"/>
        <pt x="415" y="244" on="0"/>
        <pt x="425" y="214" on="0"/>
        <pt x="430" y="201" on="1"/>
        <pt x="435" y="185" on="0"/>
        <pt x="440" y="170" on="1"/>
        <pt x="444" y="170" on="1"/>
        <pt x="443" y="185" on="0"/>
        <pt x="442" y="201" on="1"/>
        <pt x="441" y="214" on="0"/>
        <pt x="440" y="244" on="0"/>
        <pt x="440" y="255" on="1"/>
        <pt x="440" y="700" on="1"/>
        <pt x="540" y="700" on="1"/>
        <pt x="540" y="0" on="1"/>
        <pt x="430" y="0" on="1"/>
      </contour>
    </TTGlyph>
    <TTGlyph name="Nacute" xMin="90" yMin="0" xMax="540" yMax="890">
      <component glyphName=".ttfautohint" x="90" y="0" flags="0x1000"/>
      <component glyphName="N" x="0" y="0" flags="0x1204"/>
      <component glyphName="acute" x="257" y="190" flags="0x1004"/>
    </TTGlyph>
    <TTGlyph name="Ncaron" xMin="90" yMin="0" xMax="540" yMax="880">
      <component glyphName=".ttfautohint" x="90" y="0" flags="0x1000"/>
      <component glyphName="N" x="0" y="0" flags="0x1204"/>
      <component glyphName="caron" x="155" y="190" flags="0x1004"/>
    </TTGlyph>
    <TTGlyph name="Ncommaaccent" xMin="90" yMin="-226" xMax="540" yMax="700">
      <component glyphName=".ttfautohint" x="90" y="0" flags="0x1000"/>
      <component glyphName="N" x="0" y="0" flags="0x1204"/>
      <component glyphName="commaaccent" x="250" y="10" flags="0x1004"/>
    </TTGlyph>
    <TTGlyph name="Ntilde" xMin="90" yMin="0" xMax="540" yMax="865">
      <component glyphName=".ttfautohint" x="90" y="0" flags="0x1000"/>
      <component glyphName="N" x="0" y="0" flags="0x1204"/>
      <component glyphName="tilde" x="161" y="170" flags="0x1004"/>
    </TTGlyph>
    <TTGlyph name="O" xMin="55" yMin="-10" xMax="545" yMax="710">
      <contour>
        <pt x="155" y="350" on="1"/>
        <pt x="155" y="267" on="0"/>
        <pt x="179" y="156" on="0"/>
        <pt x="220" y="89" on="0"/>
        <pt x="272" y="60" on="0"/>
        <pt x="300" y="60" on="1"/>
        <pt x="328" y="60" on="0"/>
        <pt x="380" y="89" on="0"/>
        <pt x="421" y="156" on="0"/>
        <pt x="445" y="267" on="0"/>
        <pt x="445" y="350" on="1"/>
        <pt x="445" y="432" on="0"/>
        <pt x="421" y="544" on="0"/>
        <pt x="380" y="611" on="0"/>
        <pt x="328" y="640" on="0"/>
        <pt x="300" y="640" on="1"/>
        <pt x="272" y="640" on="0"/>
        <pt x="220" y="611" on="0"/>
        <pt x="179" y="544" on="0"/>
        <pt x="155" y="432" on="0"/>
      </contour>
      <contour>
        <pt x="545" y="350" on="1"/>
        <pt x="545" y="252" on="0"/>
        <pt x="509" y="116" on="0"/>
        <pt x="445" y="29" on="0"/>
        <pt x="354" y="-10" on="0"/>
        <pt x="300" y="-10" on="1"/>
        <pt x="246" y="-10" on="0"/>
        <pt x="155" y="29" on="0"/>
        <pt x="91" y="116" on="0"/>
        <pt x="55" y="252" on="0"/>
        <pt x="55" y="350" on="1"/>
        <pt x="55" y="447" on="0"/>
        <pt x="91" y="584" on="0"/>
        <pt x="155" y="671" on="0"/>
        <pt x="246" y="710" on="0"/>
        <pt x="300" y="710" on="1"/>
        <pt x="354" y="710" on="0"/>
        <pt x="445" y="671" on="0"/>
        <pt x="509" y="584" on="0"/>
        <pt x="545" y="447" on="0"/>
      </contour>
    </TTGlyph>
    <TTGlyph name="OE" xMin="55" yMin="0" xMax="785" yMax="700">
      <contour>
        <pt x="345" y="0" on="1"/>
        <pt x="274" y="0" on="0"/>
        <pt x="165" y="39" on="0"/>
        <pt x="92" y="123" on="0"/>
        <pt x="55" y="256" on="0"/>
        <pt x="55" y="350" on="1"/>
        <pt x="55" y="444" on="0"/>
        <pt x="92" y="577" on="0"/>
        <pt x="165" y="661" on="0"/>
        <pt x="274" y="700" on="0"/>
        <pt x="345" y="700" on="1"/>
        <pt x="785" y="700" on="1"/>
        <pt x="785" y="630" on="1"/>
        <pt x="495" y="630" on="1"/>
        <pt x="495" y="400" on="1"/>
        <pt x="725" y="400" on="1"/>
        <pt x="725" y="330" on="1"/>
        <pt x="495" y="330" on="1"/>
        <pt x="495" y="70" on="1"/>
        <pt x="785" y="70" on="1"/>
        <pt x="785" y="0" on="1"/>
      </contour>
      <contour>
        <pt x="395" y="70" on="1"/>
        <pt x="395" y="630" on="1"/>
        <pt x="345" y="630" on="1"/>
        <pt x="300" y="630" on="0"/>
        <pt x="229" y="602" on="0"/>
        <pt x="181" y="536" on="0"/>
        <pt x="155" y="429" on="0"/>
        <pt x="155" y="350" on="1"/>
        <pt x="155" y="271" on="0"/>
        <pt x="181" y="164" on="0"/>
        <pt x="229" y="98" on="0"/>
        <pt x="300" y="70" on="0"/>
        <pt x="345" y="70" on="1"/>
      </contour>
    </TTGlyph>
    <TTGlyph name="Oacute" xMin="55" yMin="-10" xMax="545" yMax="900">
      <component glyphName=".ttfautohint" x="55" y="0" flags="0x1000"/>
      <component glyphName="O" x="0" y="0" flags="0x1204"/>
      <component glyphName="acute" x="242" y="200" flags="0x1004"/>
    </TTGlyph>
    <TTGlyph name="Ocircumflex" xMin="55" yMin="-10" xMax="545" yMax="890">
      <component glyphName=".ttfautohint" x="55" y="0" flags="0x1000"/>
      <component glyphName="O" x="0" y="0" flags="0x1204"/>
      <component glyphName="circumflex" x="140" y="200" flags="0x1004"/>
    </TTGlyph>
    <TTGlyph name="Odieresis" xMin="55" yMin="-10" xMax="545" yMax="875">
      <component glyphName=".ttfautohint" x="55" y="0" flags="0x1000"/>
      <component glyphName="O" x="0" y="0" flags="0x1204"/>
      <component glyphName="dieresis" x="145" y="200" flags="0x1004"/>
    </TTGlyph>
    <TTGlyph name="Ograve" xMin="55" yMin="-10" xMax="545" yMax="900">
      <component glyphName=".ttfautohint" x="55" y="0" flags="0x1000"/>
      <component glyphName="O" x="0" y="0" flags="0x1204"/>
      <component glyphName="grave" x="182" y="200" flags="0x1004"/>
    </TTGlyph>
    <TTGlyph name="Ohungarumlaut" xMin="55" yMin="-10" xMax="545" yMax="900">
      <component glyphName=".ttfautohint" x="55" y="0" flags="0x1000"/>
      <component glyphName="O" x="0" y="0" flags="0x1204"/>
      <component glyphName="hungarumlaut" x="192" y="200" flags="0x1004"/>
    </TTGlyph>
    <TTGlyph name="Omacron" xMin="55" yMin="-10" xMax="545" yMax="860">
      <component glyphName=".ttfautohint" x="55" y="0" flags="0x1000"/>
      <component glyphName="O" x="0" y="0" flags="0x1204"/>
      <component glyphName="macron" x="145" y="200" flags="0x1004"/>
    </TTGlyph>
    <TTGlyph name="Oslash" xMin="55" yMin="-10" xMax="545" yMax="710">
      <contour>
        <pt x="111" y="89" on="1"/>
        <pt x="84" y="133" on="0"/>
        <pt x="55" y="261" on="0"/>
        <pt x="55" y="350" on="1"/>
        <pt x="55" y="447" on="0"/>
        <pt x="91" y="584" on="0"/>
        <pt x="155" y="671" on="0"/>
        <pt x="246" y="710" on="0"/>
        <pt x="300" y="710" on="1"/>
        <pt x="383" y="710" on="0"/>
        <pt x="440" y="665" on="1"/>
        <pt x="460" y="700" on="1"/>
        <pt x="540" y="700" on="1"/>
        <pt x="489" y="610" on="1"/>
        <pt x="516" y="567" on="0"/>
        <pt x="545" y="438" on="0"/>
        <pt x="545" y="350" on="1"/>
        <pt x="545" y="252" on="0"/>
        <pt x="509" y="116" on="0"/>
        <pt x="445" y="29" on="0"/>
        <pt x="354" y="-10" on="0"/>
        <pt x="300" y="-10" on="1"/>
        <pt x="259" y="-10" on="0"/>
        <pt x="189" y="12" on="0"/>
        <pt x="160" y="35" on="1"/>
        <pt x="140" y="0" on="1"/>
        <pt x="60" y="0" on="1"/>
      </contour>
      <contour>
        <pt x="155" y="350" on="1"/>
        <pt x="155" y="302" on="0"/>
        <pt x="163" y="225" on="0"/>
        <pt x="171" y="194" on="1"/>
        <pt x="395" y="586" on="1"/>
        <pt x="375" y="615" on="0"/>
        <pt x="326" y="640" on="0"/>
        <pt x="300" y="640" on="1"/>
        <pt x="272" y="640" on="0"/>
        <pt x="220" y="611" on="0"/>
        <pt x="179" y="544" on="0"/>
        <pt x="155" y="432" on="0"/>
      </contour>
      <contour>
        <pt x="445" y="350" on="1"/>
        <pt x="445" y="398" on="0"/>
        <pt x="437" y="475" on="0"/>
        <pt x="429" y="505" on="1"/>
        <pt x="205" y="113" on="1"/>
        <pt x="225" y="84" on="0"/>
        <pt x="274" y="60" on="0"/>
        <pt x="300" y="60" on="1"/>
        <pt x="328" y="60" on="0"/>
        <pt x="380" y="89" on="0"/>
        <pt x="421" y="156" on="0"/>
        <pt x="445" y="267" on="0"/>
      </contour>
    </TTGlyph>
    <TTGlyph name="Otilde" xMin="55" yMin="-10" xMax="545" yMax="875">
      <component glyphName=".ttfautohint" x="55" y="0" flags="0x1000"/>
      <component glyphName="O" x="0" y="0" flags="0x1204"/>
      <component glyphName="tilde" x="146" y="180" flags="0x1004"/>
    </TTGlyph>
    <TTGlyph name="P" xMin="90" yMin="0" xMax="520" yMax="700">
      <contour>
        <pt x="270" y="310" on="1"/>
        <pt x="345" y="310" on="0"/>
        <pt x="420" y="387" on="0"/>
        <pt x="420" y="470" on="1"/>
        <pt x="420" y="553" on="0"/>
        <pt x="345" y="630" on="0"/>
        <pt x="270" y="630" on="1"/>
        <pt x="190" y="630" on="1"/>
        <pt x="190" y="310" on="1"/>
      </contour>
      <contour>
        <pt x="190" y="240" on="1"/>
        <pt x="190" y="0" on="1"/>
        <pt x="90" y="0" on="1"/>
        <pt x="90" y="700" on="1"/>
        <pt x="270" y="700" on="1"/>
        <pt x="398" y="700" on="0"/>
        <pt x="520" y="583" on="0"/>
        <pt x="520" y="470" on="1"/>
        <pt x="520" y="357" on="0"/>
        <pt x="398" y="240" on="0"/>
        <pt x="270" y="240" on="1"/>
      </contour>
    </TTGlyph>
    <TTGlyph name="Q" xMin="55" yMin="-155" xMax="545" yMax="710">
      <contour>
        <pt x="545" y="350" on="1"/>
        <pt x="545" y="264" on="0"/>
        <pt x="516" y="137" on="0"/>
        <pt x="465" y="51" on="0"/>
        <pt x="393" y="2" on="0"/>
        <pt x="350" y="-5" on="1"/>
        <pt x="350" y="-47" on="0"/>
        <pt x="385" y="-85" on="0"/>
        <pt x="415" y="-85" on="1"/>
        <pt x="430" y="-85" on="0"/>
        <pt x="440" y="-80" on="1"/>
        <pt x="445" y="-78" on="0"/>
        <pt x="450" y="-75" on="1"/>
        <pt x="460" y="-75" on="1"/>
        <pt x="480" y="-140" on="1"/>
        <pt x="469" y="-144" on="0"/>
        <pt x="457" y="-148" on="1"/>
        <pt x="446" y="-151" on="0"/>
        <pt x="420" y="-155" on="0"/>
        <pt x="405" y="-155" on="1"/>
        <pt x="333" y="-155" on="0"/>
        <pt x="250" y="-73" on="0"/>
        <pt x="250" y="-5" on="1"/>
        <pt x="207" y="2" on="0"/>
        <pt x="135" y="51" on="0"/>
        <pt x="84" y="137" on="0"/>
        <pt x="55" y="264" on="0"/>
        <pt x="55" y="350" on="1"/>
        <pt x="55" y="447" on="0"/>
        <pt x="91" y="584" on="0"/>
        <pt x="155" y="671" on="0"/>
        <pt x="246" y="710" on="0"/>
        <pt x="300" y="710" on="1"/>
        <pt x="354" y="710" on="0"/>
        <pt x="445" y="671" on="0"/>
        <pt x="509" y="584" on="0"/>
        <pt x="545" y="447" on="0"/>
      </contour>
      <contour>
        <pt x="155" y="350" on="1"/>
        <pt x="155" y="267" on="0"/>
        <pt x="179" y="156" on="0"/>
        <pt x="220" y="89" on="0"/>
        <pt x="272" y="60" on="0"/>
        <pt x="300" y="60" on="1"/>
        <pt x="328" y="60" on="0"/>
        <pt x="380" y="89" on="0"/>
        <pt x="421" y="156" on="0"/>
        <pt x="445" y="267" on="0"/>
        <pt x="445" y="350" on="1"/>
        <pt x="445" y="432" on="0"/>
        <pt x="421" y="544" on="0"/>
        <pt x="380" y="611" on="0"/>
        <pt x="328" y="640" on="0"/>
        <pt x="300" y="640" on="1"/>
        <pt x="272" y="640" on="0"/>
        <pt x="220" y="611" on="0"/>
        <pt x="179" y="544" on="0"/>
        <pt x="155" y="432" on="0"/>
      </contour>
    </TTGlyph>
    <TTGlyph name="R" xMin="90" yMin="0" xMax="540" yMax="700">
      <contour>
        <pt x="190" y="260" on="1"/>
        <pt x="190" y="0" on="1"/>
        <pt x="90" y="0" on="1"/>
        <pt x="90" y="700" on="1"/>
        <pt x="260" y="700" on="1"/>
        <pt x="388" y="700" on="0"/>
        <pt x="510" y="586" on="0"/>
        <pt x="510" y="480" on="1"/>
        <pt x="510" y="320" on="0"/>
        <pt x="373" y="275" on="1"/>
        <pt x="540" y="0" on="1"/>
        <pt x="425" y="0" on="1"/>
        <pt x="270" y="260" on="1"/>
      </contour>
      <contour>
        <pt x="260" y="330" on="1"/>
        <pt x="410" y="330" on="0"/>
        <pt x="410" y="480" on="1"/>
        <pt x="410" y="630" on="0"/>
        <pt x="260" y="630" on="1"/>
        <pt x="190" y="630" on="1"/>
        <pt x="190" y="330" on="1"/>
      </contour>
    </TTGlyph>
    <TTGlyph name="Racute" xMin="90" yMin="0" xMax="540" yMax="900">
      <component glyphName=".ttfautohint" x="90" y="0" flags="0x1000"/>
      <component glyphName="R" x="0" y="0" flags="0x1204"/>
      <component glyphName="acute" x="225" y="200" flags="0x1004"/>
    </TTGlyph>
    <TTGlyph name="Rcaron" xMin="90" yMin="0" xMax="540" yMax="890">
      <component glyphName=".ttfautohint" x="90" y="0" flags="0x1000"/>
      <component glyphName="R" x="0" y="0" flags="0x1204"/>
      <component glyphName="caron" x="112" y="200" flags="0x1004"/>
    </TTGlyph>
    <TTGlyph name="Rcommaaccent" xMin="90" yMin="-226" xMax="540" yMax="700">
      <component glyphName=".ttfautohint" x="90" y="0" flags="0x1000"/>
      <component glyphName="R" x="0" y="0" flags="0x1204"/>
      <component glyphName="commaaccent" x="227" y="10" flags="0x1004"/>
    </TTGlyph>
    <TTGlyph name="S" xMin="35" yMin="-10" xMax="470" yMax="710">
      <contour>
        <pt x="255" y="710" on="1"/>
        <pt x="304" y="710" on="0"/>
        <pt x="376" y="693" on="0"/>
        <pt x="401" y="682" on="1"/>
        <pt x="429" y="670" on="0"/>
        <pt x="450" y="655" on="1"/>
        <pt x="415" y="595" on="1"/>
        <pt x="405" y="595" on="1"/>
        <pt x="390" y="607" on="0"/>
        <pt x="369" y="617" on="1"/>
        <pt x="351" y="625" on="0"/>
        <pt x="299" y="640" on="0"/>
        <pt x="265" y="640" on="1"/>
        <pt x="239" y="640" on="0"/>
        <pt x="195" y="622" on="0"/>
        <pt x="163" y="592" on="0"/>
        <pt x="145" y="552" on="0"/>
        <pt x="145" y="530" on="1"/>
        <pt x="145" y="490" on="0"/>
        <pt x="193" y="439" on="0"/>
        <pt x="265" y="400" on="0"/>
        <pt x="350" y="365" on="0"/>
        <pt x="422" y="316" on="0"/>
        <pt x="470" y="245" on="0"/>
        <pt x="470" y="190" on="1"/>
        <pt x="470" y="145" on="0"/>
        <pt x="440" y="71" on="0"/>
        <pt x="382" y="19" on="0"/>
        <pt x="296" y="-10" on="0"/>
        <pt x="240" y="-10" on="1"/>
        <pt x="191" y="-10" on="0"/>
        <pt x="115" y="6" on="0"/>
        <pt x="89" y="17" on="1"/>
        <pt x="58" y="29" on="0"/>
        <pt x="35" y="45" on="1"/>
        <pt x="70" y="105" on="1"/>
        <pt x="80" y="105" on="1"/>
        <pt x="98" y="92" on="0"/>
        <pt x="121" y="82" on="1"/>
        <pt x="141" y="74" on="0"/>
        <pt x="196" y="60" on="0"/>
        <pt x="230" y="60" on="1"/>
        <pt x="298" y="60" on="0"/>
        <pt x="370" y="127" on="0"/>
        <pt x="370" y="180" on="1"/>
        <pt x="370" y="220" on="0"/>
        <pt x="322" y="271" on="0"/>
        <pt x="250" y="310" on="0"/>
        <pt x="165" y="345" on="0"/>
        <pt x="93" y="394" on="0"/>
        <pt x="45" y="465" on="0"/>
        <pt x="45" y="520" on="1"/>
        <pt x="45" y="561" on="0"/>
        <pt x="74" y="631" on="0"/>
        <pt x="128" y="682" on="0"/>
        <pt x="206" y="710" on="0"/>
      </contour>
    </TTGlyph>
    <TTGlyph name="Sacute" xMin="35" yMin="-10" xMax="470" yMax="900">
      <component glyphName=".ttfautohint" x="35" y="0" flags="0x1000"/>
      <component glyphName="S" x="0" y="0" flags="0x1204"/>
      <component glyphName="acute" x="205" y="200" flags="0x1004"/>
    </TTGlyph>
    <TTGlyph name="Scaron" xMin="35" yMin="-10" xMax="470" yMax="890">
      <component glyphName=".ttfautohint" x="35" y="0" flags="0x1000"/>
      <component glyphName="S" x="0" y="0" flags="0x1204"/>
      <component glyphName="caron" x="92" y="200" flags="0x1004"/>
    </TTGlyph>
    <TTGlyph name="Scedilla" xMin="35" yMin="-190" xMax="470" yMax="710">
      <component glyphName=".ttfautohint" x="35" y="0" flags="0x1000"/>
      <component glyphName="S" x="0" y="0" flags="0x1204"/>
      <component glyphName="cedilla" x="165" y="0" flags="0x1004"/>
    </TTGlyph>
    <TTGlyph name="Scommaaccent" xMin="35" yMin="-270" xMax="470" yMax="710">
      <component glyphName=".ttfautohint" x="35" y="0" flags="0x1000"/>
      <component glyphName="S" x="0" y="0" flags="0x1204"/>
      <component glyphName="commaaccent" x="195" y="-34" flags="0x1004"/>
    </TTGlyph>
    <TTGlyph name="T" xMin="10" yMin="0" xMax="470" yMax="700">
      <contour>
        <pt x="190" y="0" on="1"/>
        <pt x="190" y="630" on="1"/>
        <pt x="10" y="630" on="1"/>
        <pt x="10" y="700" on="1"/>
        <pt x="470" y="700" on="1"/>
        <pt x="470" y="630" on="1"/>
        <pt x="290" y="630" on="1"/>
        <pt x="290" y="0" on="1"/>
      </contour>
    </TTGlyph>
    <TTGlyph name="Tcaron" xMin="10" yMin="0" xMax="470" yMax="890">
      <component glyphName=".ttfautohint" x="10" y="0" flags="0x1000"/>
      <component glyphName="T" x="0" y="0" flags="0x1204"/>
      <component glyphName="caron" x="80" y="200" flags="0x1004"/>
    </TTGlyph>
    <TTGlyph name="Tcommaaccent" xMin="10" yMin="-275" xMax="470" yMax="700">
      <component glyphName=".ttfautohint" x="10" y="0" flags="0x1000"/>
      <component glyphName="T" x="0" y="0" flags="0x1204"/>
      <component glyphName="commaaccent" x="175" y="-39" flags="0x1004"/>
    </TTGlyph>
    <TTGlyph name="Thorn" xMin="90" yMin="-20" xMax="570" yMax="720">
      <contour>
        <pt x="190" y="570" on="1"/>
        <pt x="190" y="130" on="1"/>
        <pt x="280" y="130" on="1"/>
        <pt x="367" y="130" on="0"/>
        <pt x="470" y="241" on="0"/>
        <pt x="470" y="350" on="1"/>
        <pt x="470" y="459" on="0"/>
        <pt x="367" y="570" on="0"/>
        <pt x="280" y="570" on="1"/>
      </contour>
      <contour>
        <pt x="190" y="640" on="1"/>
        <pt x="280" y="640" on="1"/>
        <pt x="420" y="640" on="0"/>
        <pt x="570" y="490" on="0"/>
        <pt x="570" y="350" on="1"/>
        <pt x="570" y="210" on="0"/>
        <pt x="420" y="60" on="0"/>
        <pt x="280" y="60" on="1"/>
        <pt x="190" y="60" on="1"/>
        <pt x="190" y="-20" on="1"/>
        <pt x="90" y="-20" on="1"/>
        <pt x="90" y="720" on="1"/>
        <pt x="190" y="720" on="1"/>
      </contour>
    </TTGlyph>
    <TTGlyph name="U" xMin="85" yMin="-10" xMax="535" yMax="700">
      <contour>
        <pt x="310" y="60" on="1"/>
        <pt x="367" y="60" on="0"/>
        <pt x="435" y="137" on="0"/>
        <pt x="435" y="220" on="1"/>
        <pt x="435" y="700" on="1"/>
        <pt x="535" y="700" on="1"/>
        <pt x="535" y="220" on="1"/>
        <pt x="535" y="107" on="0"/>
        <pt x="419" y="-10" on="0"/>
        <pt x="310" y="-10" on="1"/>
        <pt x="201" y="-10" on="0"/>
        <pt x="85" y="107" on="0"/>
        <pt x="85" y="220" on="1"/>
        <pt x="85" y="700" on="1"/>
        <pt x="185" y="700" on="1"/>
        <pt x="185" y="220" on="1"/>
        <pt x="185" y="137" on="0"/>
        <pt x="253" y="60" on="0"/>
      </contour>
    </TTGlyph>
    <TTGlyph name="Uacute" xMin="85" yMin="-10" xMax="535" yMax="880">
      <component glyphName=".ttfautohint" x="85" y="0" flags="0x1000"/>
      <component glyphName="U" x="0" y="0" flags="0x1204"/>
      <component glyphName="acute" x="262" y="180" flags="0x1004"/>
    </TTGlyph>
    <TTGlyph name="Ucircumflex" xMin="85" yMin="-10" xMax="535" yMax="890">
      <component glyphName=".ttfautohint" x="85" y="0" flags="0x1000"/>
      <component glyphName="U" x="0" y="0" flags="0x1204"/>
      <component glyphName="circumflex" x="150" y="200" flags="0x1004"/>
    </TTGlyph>
    <TTGlyph name="Udieresis" xMin="85" yMin="-10" xMax="535" yMax="875">
      <component glyphName=".ttfautohint" x="85" y="0" flags="0x1000"/>
      <component glyphName="U" x="0" y="0" flags="0x1204"/>
      <component glyphName="dieresis" x="155" y="200" flags="0x1004"/>
    </TTGlyph>
    <TTGlyph name="Ugrave" xMin="85" yMin="-10" xMax="535" yMax="880">
      <component glyphName=".ttfautohint" x="85" y="0" flags="0x1000"/>
      <component glyphName="U" x="0" y="0" flags="0x1204"/>
      <component glyphName="grave" x="192" y="180" flags="0x1004"/>
    </TTGlyph>
    <TTGlyph name="Uhungarumlaut" xMin="85" yMin="-10" xMax="535" yMax="890">
      <component glyphName=".ttfautohint" x="85" y="0" flags="0x1000"/>
      <component glyphName="U" x="0" y="0" flags="0x1204"/>
      <component glyphName="hungarumlaut" x="202" y="190" flags="0x1004"/>
    </TTGlyph>
    <TTGlyph name="Umacron" xMin="85" yMin="-10" xMax="535" yMax="850">
      <component glyphName=".ttfautohint" x="85" y="0" flags="0x1000"/>
      <component glyphName="U" x="0" y="0" flags="0x1204"/>
      <component glyphName="macron" x="155" y="190" flags="0x1004"/>
    </TTGlyph>
    <TTGlyph name="Uogonek" xMin="85" yMin="-155" xMax="535" yMax="700">
      <component glyphName=".ttfautohint" x="85" y="0" flags="0x1000"/>
      <component glyphName="U" x="0" y="0" flags="0x1204"/>
      <component glyphName="ogonek" x="225" y="0" flags="0x1004"/>
    </TTGlyph>
    <TTGlyph name="Uring" xMin="85" yMin="-10" xMax="535" yMax="920">
      <component glyphName=".ttfautohint" x="85" y="0" flags="0x1000"/>
      <component glyphName="U" x="0" y="0" flags="0x1204"/>
      <component glyphName="ring" x="200" y="190" flags="0x1004"/>
    </TTGlyph>
    <TTGlyph name="V" xMin="15" yMin="0" xMax="535" yMax="700">
      <contour>
        <pt x="277" y="105" on="1"/>
        <pt x="278" y="117" on="0"/>
        <pt x="280" y="129" on="1"/>
        <pt x="282" y="140" on="0"/>
        <pt x="287" y="164" on="0"/>
        <pt x="290" y="175" on="1"/>
        <pt x="435" y="700" on="1"/>
        <pt x="535" y="700" on="1"/>
        <pt x="340" y="0" on="1"/>
        <pt x="210" y="0" on="1"/>
        <pt x="15" y="700" on="1"/>
        <pt x="115" y="700" on="1"/>
        <pt x="260" y="175" on="1"/>
        <pt x="263" y="164" on="0"/>
        <pt x="267" y="140" on="0"/>
        <pt x="269" y="129" on="1"/>
        <pt x="271" y="117" on="0"/>
        <pt x="273" y="105" on="1"/>
      </contour>
    </TTGlyph>
    <TTGlyph name="W" xMin="15" yMin="0" xMax="845" yMax="700">
      <contour>
        <pt x="605" y="210" on="1"/>
        <pt x="607" y="199" on="0"/>
        <pt x="611" y="171" on="0"/>
        <pt x="613" y="159" on="1"/>
        <pt x="615" y="145" on="0"/>
        <pt x="616" y="130" on="1"/>
        <pt x="620" y="130" on="1"/>
        <pt x="620" y="145" on="0"/>
        <pt x="622" y="159" on="1"/>
        <pt x="624" y="171" on="0"/>
        <pt x="627" y="199" on="0"/>
        <pt x="630" y="210" on="1"/>
        <pt x="745" y="700" on="1"/>
        <pt x="845" y="700" on="1"/>
        <pt x="680" y="0" on="1"/>
        <pt x="560" y="0" on="1"/>
        <pt x="445" y="490" on="1"/>
        <pt x="442" y="501" on="0"/>
        <pt x="438" y="529" on="0"/>
        <pt x="436" y="541" on="1"/>
        <pt x="434" y="555" on="0"/>
        <pt x="432" y="570" on="1"/>
        <pt x="428" y="570" on="1"/>
        <pt x="426" y="555" on="0"/>
        <pt x="424" y="541" on="1"/>
        <pt x="422" y="529" on="0"/>
        <pt x="417" y="501" on="0"/>
        <pt x="415" y="490" on="1"/>
        <pt x="300" y="0" on="1"/>
        <pt x="180" y="0" on="1"/>
        <pt x="15" y="700" on="1"/>
        <pt x="115" y="700" on="1"/>
        <pt x="230" y="210" on="1"/>
        <pt x="232" y="199" on="0"/>
        <pt x="236" y="171" on="0"/>
        <pt x="238" y="159" on="1"/>
        <pt x="240" y="145" on="0"/>
        <pt x="240" y="130" on="1"/>
        <pt x="244" y="130" on="1"/>
        <pt x="245" y="145" on="0"/>
        <pt x="247" y="159" on="1"/>
        <pt x="249" y="171" on="0"/>
        <pt x="252" y="199" on="0"/>
        <pt x="255" y="210" on="1"/>
        <pt x="370" y="700" on="1"/>
        <pt x="490" y="700" on="1"/>
      </contour>
    </TTGlyph>
    <TTGlyph name="X" xMin="15" yMin="0" xMax="515" yMax="700">
      <contour>
        <pt x="245" y="475" on="1"/>
        <pt x="248" y="468" on="0"/>
        <pt x="255" y="453" on="0"/>
        <pt x="257" y="446" on="1"/>
        <pt x="260" y="438" on="0"/>
        <pt x="263" y="430" on="1"/>
        <pt x="267" y="430" on="1"/>
        <pt x="270" y="438" on="0"/>
        <pt x="273" y="446" on="1"/>
        <pt x="275" y="453" on="0"/>
        <pt x="281" y="468" on="0"/>
        <pt x="285" y="475" on="1"/>
        <pt x="400" y="700" on="1"/>
        <pt x="510" y="700" on="1"/>
        <pt x="330" y="355" on="1"/>
        <pt x="515" y="0" on="1"/>
        <pt x="405" y="0" on="1"/>
        <pt x="285" y="235" on="1"/>
        <pt x="281" y="241" on="0"/>
        <pt x="275" y="257" on="0"/>
        <pt x="273" y="264" on="1"/>
        <pt x="270" y="272" on="0"/>
        <pt x="267" y="280" on="1"/>
        <pt x="263" y="280" on="1"/>
        <pt x="260" y="272" on="0"/>
        <pt x="257" y="264" on="1"/>
        <pt x="252" y="249" on="0"/>
        <pt x="245" y="235" on="1"/>
        <pt x="125" y="0" on="1"/>
        <pt x="15" y="0" on="1"/>
        <pt x="200" y="355" on="1"/>
        <pt x="20" y="700" on="1"/>
        <pt x="130" y="700" on="1"/>
      </contour>
    </TTGlyph>
    <TTGlyph name="Y" xMin="0" yMin="0" xMax="530" yMax="700">
      <contour>
        <pt x="425" y="700" on="1"/>
        <pt x="530" y="700" on="1"/>
        <pt x="315" y="230" on="1"/>
        <pt x="315" y="0" on="1"/>
        <pt x="215" y="0" on="1"/>
        <pt x="215" y="230" on="1"/>
        <pt x="0" y="700" on="1"/>
        <pt x="105" y="700" on="1"/>
        <pt x="245" y="395" on="1"/>
        <pt x="249" y="385" on="0"/>
        <pt x="256" y="365" on="0"/>
        <pt x="258" y="356" on="1"/>
        <pt x="261" y="345" on="0"/>
        <pt x="263" y="335" on="1"/>
        <pt x="267" y="335" on="1"/>
        <pt x="269" y="345" on="0"/>
        <pt x="272" y="356" on="1"/>
        <pt x="274" y="365" on="0"/>
        <pt x="280" y="385" on="0"/>
        <pt x="285" y="395" on="1"/>
      </contour>
    </TTGlyph>
    <TTGlyph name="Yacute" xMin="0" yMin="0" xMax="530" yMax="880">
      <component glyphName=".ttfautohint" x="0" y="0" flags="0x1000"/>
      <component glyphName="Y" x="0" y="0" flags="0x1204"/>
      <component glyphName="acute" x="217" y="180" flags="0x1004"/>
    </TTGlyph>
    <TTGlyph name="Ydieresis" xMin="0" yMin="0" xMax="530" yMax="875">
      <component glyphName=".ttfautohint" x="0" y="0" flags="0x1000"/>
      <component glyphName="Y" x="0" y="0" flags="0x1204"/>
      <component glyphName="dieresis" x="110" y="200" flags="0x1004"/>
    </TTGlyph>
    <TTGlyph name="Z" xMin="25" yMin="0" xMax="460" yMax="700">
      <contour>
        <pt x="25" y="0" on="1"/>
        <pt x="25" y="75" on="1"/>
        <pt x="335" y="630" on="1"/>
        <pt x="25" y="630" on="1"/>
        <pt x="25" y="700" on="1"/>
        <pt x="455" y="700" on="1"/>
        <pt x="455" y="625" on="1"/>
        <pt x="145" y="70" on="1"/>
        <pt x="460" y="70" on="1"/>
        <pt x="460" y="0" on="1"/>
      </contour>
    </TTGlyph>
    <TTGlyph name="Zacute" xMin="25" yMin="0" xMax="460" yMax="900">
      <component glyphName=".ttfautohint" x="25" y="0" flags="0x1000"/>
      <component glyphName="Z" x="0" y="0" flags="0x1204"/>
      <component glyphName="acute" x="185" y="200" flags="0x1004"/>
    </TTGlyph>
    <TTGlyph name="Zcaron" xMin="25" yMin="0" xMax="460" yMax="890">
      <component glyphName=".ttfautohint" x="25" y="0" flags="0x1000"/>
      <component glyphName="Z" x="0" y="0" flags="0x1204"/>
      <component glyphName="caron" x="82" y="200" flags="0x1004"/>
    </TTGlyph>
    <TTGlyph name="Zdotaccent" xMin="25" yMin="0" xMax="460" yMax="880">
      <component glyphName=".ttfautohint" x="25" y="0" flags="0x1000"/>
      <component glyphName="Z" x="0" y="0" flags="0x1204"/>
      <component glyphName="dotaccent" x="172" y="200" flags="0x1004"/>
    </TTGlyph>
    <TTGlyph name="a" xMin="45" yMin="-10" xMax="440" yMax="510">
      <contour>
        <pt x="340" y="320" on="1"/>
        <pt x="340" y="380" on="0"/>
        <pt x="284" y="440" on="0"/>
        <pt x="235" y="440" on="1"/>
        <pt x="212" y="440" on="0"/>
        <pt x="172" y="425" on="0"/>
        <pt x="157" y="417" on="1"/>
        <pt x="139" y="407" on="0"/>
        <pt x="125" y="395" on="1"/>
        <pt x="115" y="395" on="1"/>
        <pt x="80" y="455" on="1"/>
        <pt x="99" y="470" on="0"/>
        <pt x="125" y="482" on="1"/>
        <pt x="147" y="493" on="0"/>
        <pt x="207" y="510" on="0"/>
        <pt x="245" y="510" on="1"/>
        <pt x="288" y="510" on="0"/>
        <pt x="360" y="482" on="0"/>
        <pt x="411" y="431" on="0"/>
        <pt x="440" y="361" on="0"/>
        <pt x="440" y="320" on="1"/>
        <pt x="440" y="0" on="1"/>
        <pt x="370" y="0" on="1"/>
        <pt x="360" y="60" on="1"/>
        <pt x="355" y="60" on="1"/>
        <pt x="341" y="40" on="0"/>
        <pt x="320" y="25" on="1"/>
        <pt x="302" y="11" on="0"/>
        <pt x="248" y="-10" on="0"/>
        <pt x="210" y="-10" on="1"/>
        <pt x="131" y="-10" on="0"/>
        <pt x="45" y="73" on="0"/>
        <pt x="45" y="145" on="1"/>
        <pt x="45" y="179" on="0"/>
        <pt x="69" y="234" on="0"/>
        <pt x="120" y="273" on="0"/>
        <pt x="202" y="295" on="0"/>
        <pt x="260" y="295" on="1"/>
        <pt x="340" y="295" on="1"/>
      </contour>
      <contour>
        <pt x="340" y="225" on="1"/>
        <pt x="260" y="225" on="1"/>
        <pt x="200" y="225" on="0"/>
        <pt x="145" y="179" on="0"/>
        <pt x="145" y="145" on="1"/>
        <pt x="145" y="107" on="0"/>
        <pt x="190" y="65" on="0"/>
        <pt x="235" y="65" on="1"/>
        <pt x="258" y="65" on="0"/>
        <pt x="296" y="84" on="0"/>
        <pt x="310" y="95" on="1"/>
        <pt x="327" y="108" on="0"/>
        <pt x="340" y="125" on="1"/>
      </contour>
    </TTGlyph>
    <TTGlyph name="aacute" xMin="45" yMin="-10" xMax="440" yMax="700">
      <component glyphName=".ttfautohint" x="45" y="0" flags="0x1000"/>
      <component glyphName="a" x="0" y="0" flags="0x1204"/>
      <component glyphName="acute" x="197" y="0" flags="0x1004"/>
    </TTGlyph>
    <TTGlyph name="abreve" xMin="45" yMin="-10" xMax="440" yMax="681">
      <component glyphName=".ttfautohint" x="45" y="0" flags="0x1000"/>
      <component glyphName="a" x="0" y="0" flags="0x1204"/>
      <component glyphName="breve" x="95" y="-9" flags="0x1004"/>
    </TTGlyph>
    <TTGlyph name="acircumflex" xMin="45" yMin="-10" xMax="440" yMax="690">
      <component glyphName=".ttfautohint" x="45" y="0" flags="0x1000"/>
      <component glyphName="a" x="0" y="0" flags="0x1204"/>
      <component glyphName="circumflex" x="95" y="0" flags="0x1004"/>
    </TTGlyph>
    <TTGlyph name="acute" xMin="10" yMin="550" xMax="165" yMax="700">
      <contour>
        <pt x="165" y="700" on="1"/>
        <pt x="75" y="550" on="1"/>
        <pt x="10" y="550" on="1"/>
        <pt x="55" y="700" on="1"/>
      </contour>
    </TTGlyph>
    <TTGlyph name="adieresis" xMin="45" yMin="-10" xMax="440" yMax="675">
      <component glyphName=".ttfautohint" x="45" y="0" flags="0x1000"/>
      <component glyphName="a" x="0" y="0" flags="0x1204"/>
      <component glyphName="dieresis" x="100" y="0" flags="0x1004"/>
    </TTGlyph>
    <TTGlyph name="ae" xMin="45" yMin="-10" xMax="740" yMax="510">
      <contour>
        <pt x="540" y="510" on="1"/>
        <pt x="583" y="510" on="0"/>
        <pt x="656" y="478" on="0"/>
        <pt x="710" y="413" on="0"/>
        <pt x="740" y="316" on="0"/>
        <pt x="740" y="250" on="1"/>
        <pt x="740" y="235" on="1"/>
        <pt x="720" y="215" on="1"/>
        <pt x="440" y="215" on="1"/>
        <pt x="440" y="136" on="0"/>
        <pt x="507" y="60" on="0"/>
        <pt x="560" y="60" on="1"/>
        <pt x="583" y="60" on="0"/>
        <pt x="622" y="74" on="0"/>
        <pt x="637" y="82" on="1"/>
        <pt x="655" y="92" on="0"/>
        <pt x="670" y="105" on="1"/>
        <pt x="680" y="105" on="1"/>
        <pt x="715" y="45" on="1"/>
        <pt x="696" y="29" on="0"/>
        <pt x="670" y="17" on="1"/>
        <pt x="648" y="6" on="0"/>
        <pt x="588" y="-10" on="0"/>
        <pt x="550" y="-10" on="1"/>
        <pt x="501" y="-10" on="0"/>
        <pt x="416" y="29" on="0"/>
        <pt x="387" y="70" on="1"/>
        <pt x="366" y="48" on="0"/>
        <pt x="340" y="30" on="1"/>
        <pt x="317" y="15" on="0"/>
        <pt x="252" y="-10" on="0"/>
        <pt x="210" y="-10" on="1"/>
        <pt x="131" y="-10" on="0"/>
        <pt x="45" y="73" on="0"/>
        <pt x="45" y="145" on="1"/>
        <pt x="45" y="179" on="0"/>
        <pt x="69" y="234" on="0"/>
        <pt x="120" y="273" on="0"/>
        <pt x="202" y="295" on="0"/>
        <pt x="260" y="295" on="1"/>
        <pt x="340" y="295" on="1"/>
        <pt x="340" y="320" on="1"/>
        <pt x="340" y="380" on="0"/>
        <pt x="284" y="440" on="0"/>
        <pt x="235" y="440" on="1"/>
        <pt x="212" y="440" on="0"/>
        <pt x="172" y="425" on="0"/>
        <pt x="157" y="417" on="1"/>
        <pt x="139" y="407" on="0"/>
        <pt x="125" y="395" on="1"/>
        <pt x="115" y="395" on="1"/>
        <pt x="80" y="455" on="1"/>
        <pt x="99" y="470" on="0"/>
        <pt x="125" y="482" on="1"/>
        <pt x="147" y="493" on="0"/>
        <pt x="207" y="510" on="0"/>
        <pt x="245" y="510" on="1"/>
        <pt x="302" y="510" on="0"/>
        <pt x="376" y="469" on="0"/>
        <pt x="395" y="435" on="1"/>
        <pt x="421" y="469" on="0"/>
        <pt x="495" y="510" on="0"/>
      </contour>
      <contour>
        <pt x="540" y="440" on="1"/>
        <pt x="519" y="440" on="0"/>
        <pt x="483" y="422" on="0"/>
        <pt x="456" y="385" on="0"/>
        <pt x="440" y="326" on="0"/>
        <pt x="440" y="285" on="1"/>
        <pt x="640" y="285" on="1"/>
        <pt x="640" y="326" on="0"/>
        <pt x="624" y="385" on="0"/>
        <pt x="597" y="422" on="0"/>
        <pt x="561" y="440" on="0"/>
      </contour>
      <contour>
        <pt x="340" y="225" on="1"/>
        <pt x="260" y="225" on="1"/>
        <pt x="200" y="225" on="0"/>
        <pt x="145" y="179" on="0"/>
        <pt x="145" y="145" on="1"/>
        <pt x="145" y="107" on="0"/>
        <pt x="190" y="65" on="0"/>
        <pt x="235" y="65" on="1"/>
        <pt x="258" y="65" on="0"/>
        <pt x="296" y="84" on="0"/>
        <pt x="310" y="95" on="1"/>
        <pt x="327" y="108" on="0"/>
        <pt x="340" y="125" on="1"/>
      </contour>
    </TTGlyph>
    <TTGlyph name="afii10017" xMin="15" yMin="0" xMax="555" yMax="700">
      <contour>
        <pt x="455" y="0" on="1"/>
        <pt x="400" y="180" on="1"/>
        <pt x="170" y="180" on="1"/>
        <pt x="115" y="0" on="1"/>
        <pt x="15" y="0" on="1"/>
        <pt x="220" y="700" on="1"/>
        <pt x="350" y="700" on="1"/>
        <pt x="555" y="0" on="1"/>
      </contour>
      <contour>
        <pt x="190" y="250" on="1"/>
        <pt x="380" y="250" on="1"/>
        <pt x="300" y="525" on="1"/>
        <pt x="296" y="536" on="0"/>
        <pt x="292" y="561" on="0"/>
        <pt x="290" y="572" on="1"/>
        <pt x="288" y="584" on="0"/>
        <pt x="287" y="595" on="1"/>
        <pt x="283" y="595" on="1"/>
        <pt x="282" y="583" on="0"/>
        <pt x="280" y="571" on="1"/>
        <pt x="278" y="560" on="0"/>
        <pt x="273" y="536" on="0"/>
        <pt x="270" y="525" on="1"/>
      </contour>
    </TTGlyph>
    <TTGlyph name="afii10018" xMin="90" yMin="0" xMax="525" yMax="700">
      <contour>
        <pt x="280" y="420" on="1"/>
        <pt x="404" y="420" on="0"/>
        <pt x="525" y="307" on="0"/>
        <pt x="525" y="210" on="1"/>
        <pt x="525" y="112" on="0"/>
        <pt x="404" y="0" on="0"/>
        <pt x="280" y="0" on="1"/>
        <pt x="90" y="0" on="1"/>
        <pt x="90" y="700" on="1"/>
        <pt x="480" y="700" on="1"/>
        <pt x="480" y="630" on="1"/>
        <pt x="190" y="630" on="1"/>
        <pt x="190" y="420" on="1"/>
      </contour>
      <contour>
        <pt x="190" y="350" on="1"/>
        <pt x="190" y="70" on="1"/>
        <pt x="280" y="70" on="1"/>
        <pt x="352" y="70" on="0"/>
        <pt x="425" y="142" on="0"/>
        <pt x="425" y="210" on="1"/>
        <pt x="425" y="278" on="0"/>
        <pt x="352" y="350" on="0"/>
        <pt x="280" y="350" on="1"/>
      </contour>
    </TTGlyph>
    <TTGlyph name="afii10019" xMin="90" yMin="0" xMax="525" yMax="700">
      <contour>
        <pt x="385" y="370" on="1"/>
        <pt x="424" y="361" on="0"/>
        <pt x="455" y="338" on="1"/>
        <pt x="468" y="328" on="0"/>
        <pt x="493" y="301" on="0"/>
        <pt x="513" y="265" on="0"/>
        <pt x="525" y="219" on="0"/>
        <pt x="525" y="190" on="1"/>
        <pt x="525" y="147" on="0"/>
        <pt x="496" y="77" on="0"/>
        <pt x="436" y="27" on="0"/>
        <pt x="344" y="0" on="0"/>
        <pt x="280" y="0" on="1"/>
        <pt x="90" y="0" on="1"/>
        <pt x="90" y="700" on="1"/>
        <pt x="280" y="700" on="1"/>
        <pt x="334" y="700" on="0"/>
        <pt x="417" y="673" on="0"/>
        <pt x="472" y="627" on="0"/>
        <pt x="500" y="562" on="0"/>
        <pt x="500" y="525" on="1"/>
        <pt x="500" y="476" on="0"/>
        <pt x="464" y="416" on="0"/>
        <pt x="442" y="399" on="1"/>
        <pt x="416" y="379" on="0"/>
      </contour>
      <contour>
        <pt x="190" y="400" on="1"/>
        <pt x="280" y="400" on="1"/>
        <pt x="337" y="400" on="0"/>
        <pt x="400" y="462" on="0"/>
        <pt x="400" y="515" on="1"/>
        <pt x="400" y="568" on="0"/>
        <pt x="337" y="630" on="0"/>
        <pt x="280" y="630" on="1"/>
        <pt x="190" y="630" on="1"/>
      </contour>
      <contour>
        <pt x="190" y="330" on="1"/>
        <pt x="190" y="70" on="1"/>
        <pt x="280" y="70" on="1"/>
        <pt x="355" y="70" on="0"/>
        <pt x="425" y="136" on="0"/>
        <pt x="425" y="200" on="1"/>
        <pt x="425" y="264" on="0"/>
        <pt x="355" y="330" on="0"/>
        <pt x="280" y="330" on="1"/>
      </contour>
    </TTGlyph>
    <TTGlyph name="afii10020" xMin="90" yMin="0" xMax="480" yMax="700">
      <contour>
        <pt x="90" y="0" on="1"/>
        <pt x="90" y="700" on="1"/>
        <pt x="480" y="700" on="1"/>
        <pt x="480" y="630" on="1"/>
        <pt x="190" y="630" on="1"/>
        <pt x="190" y="0" on="1"/>
      </contour>
    </TTGlyph>
    <TTGlyph name="afii10021" xMin="10" yMin="-150" xMax="580" yMax="700">
      <contour>
        <pt x="515" y="700" on="1"/>
        <pt x="515" y="70" on="1"/>
        <pt x="580" y="70" on="1"/>
        <pt x="580" y="-150" on="1"/>
        <pt x="500" y="-150" on="1"/>
        <pt x="485" y="0" on="1"/>
        <pt x="110" y="0" on="1"/>
        <pt x="95" y="-150" on="1"/>
        <pt x="10" y="-150" on="1"/>
        <pt x="10" y="70" on="1"/>
        <pt x="60" y="70" on="1"/>
        <pt x="74" y="87" on="0"/>
        <pt x="85" y="113" on="1"/>
        <pt x="95" y="135" on="0"/>
        <pt x="112" y="202" on="0"/>
        <pt x="115" y="250" on="1"/>
        <pt x="140" y="700" on="1"/>
      </contour>
      <contour>
        <pt x="415" y="70" on="1"/>
        <pt x="415" y="630" on="1"/>
        <pt x="235" y="630" on="1"/>
        <pt x="215" y="250" on="1"/>
        <pt x="212" y="202" on="0"/>
        <pt x="195" y="135" on="0"/>
        <pt x="185" y="113" on="1"/>
        <pt x="174" y="87" on="0"/>
        <pt x="160" y="70" on="1"/>
      </contour>
    </TTGlyph>
    <TTGlyph name="afii10022" xMin="90" yMin="0" xMax="480" yMax="700">
      <contour>
        <pt x="90" y="0" on="1"/>
        <pt x="90" y="700" on="1"/>
        <pt x="480" y="700" on="1"/>
        <pt x="480" y="630" on="1"/>
        <pt x="190" y="630" on="1"/>
        <pt x="190" y="400" on="1"/>
        <pt x="420" y="400" on="1"/>
        <pt x="420" y="330" on="1"/>
        <pt x="190" y="330" on="1"/>
        <pt x="190" y="70" on="1"/>
        <pt x="480" y="70" on="1"/>
        <pt x="480" y="0" on="1"/>
      </contour>
    </TTGlyph>
    <TTGlyph name="afii10023" xMin="90" yMin="0" xMax="480" yMax="875">
      <contour>
        <pt x="90" y="0" on="1"/>
        <pt x="90" y="700" on="1"/>
        <pt x="480" y="700" on="1"/>
        <pt x="480" y="630" on="1"/>
        <pt x="190" y="630" on="1"/>
        <pt x="190" y="400" on="1"/>
        <pt x="420" y="400" on="1"/>
        <pt x="420" y="330" on="1"/>
        <pt x="190" y="330" on="1"/>
        <pt x="190" y="70" on="1"/>
        <pt x="480" y="70" on="1"/>
        <pt x="480" y="0" on="1"/>
      </contour>
      <contour>
        <pt x="250" y="820" on="1"/>
        <pt x="250" y="796" on="0"/>
        <pt x="219" y="765" on="0"/>
        <pt x="195" y="765" on="1"/>
        <pt x="171" y="765" on="0"/>
        <pt x="140" y="796" on="0"/>
        <pt x="140" y="820" on="1"/>
        <pt x="140" y="844" on="0"/>
        <pt x="171" y="875" on="0"/>
        <pt x="195" y="875" on="1"/>
        <pt x="219" y="875" on="0"/>
        <pt x="250" y="844" on="0"/>
      </contour>
      <contour>
        <pt x="435" y="820" on="1"/>
        <pt x="435" y="796" on="0"/>
        <pt x="404" y="765" on="0"/>
        <pt x="380" y="765" on="1"/>
        <pt x="356" y="765" on="0"/>
        <pt x="325" y="796" on="0"/>
        <pt x="325" y="820" on="1"/>
        <pt x="325" y="844" on="0"/>
        <pt x="356" y="875" on="0"/>
        <pt x="380" y="875" on="1"/>
        <pt x="404" y="875" on="0"/>
        <pt x="435" y="844" on="0"/>
      </contour>
    </TTGlyph>
    <TTGlyph name="afii10024" xMin="25" yMin="-10" xMax="835" yMax="710">
      <contour>
        <pt x="480" y="395" on="1"/>
        <pt x="525" y="395" on="1"/>
        <pt x="567" y="395" on="0"/>
        <pt x="614" y="436" on="0"/>
        <pt x="620" y="470" on="1"/>
        <pt x="645" y="610" on="1"/>
        <pt x="653" y="655" on="0"/>
        <pt x="711" y="710" on="0"/>
        <pt x="760" y="710" on="1"/>
        <pt x="775" y="710" on="0"/>
        <pt x="797" y="707" on="0"/>
        <pt x="805" y="705" on="1"/>
        <pt x="814" y="702" on="0"/>
        <pt x="820" y="700" on="1"/>
        <pt x="810" y="635" on="1"/>
        <pt x="805" y="635" on="1"/>
        <pt x="803" y="636" on="0"/>
        <pt x="799" y="637" on="1"/>
        <pt x="796" y="638" on="0"/>
        <pt x="789" y="640" on="0"/>
        <pt x="785" y="640" on="1"/>
        <pt x="770" y="640" on="0"/>
        <pt x="749" y="618" on="0"/>
        <pt x="745" y="595" on="1"/>
        <pt x="720" y="455" on="1"/>
        <pt x="715" y="425" on="0"/>
        <pt x="682" y="389" on="0"/>
        <pt x="665" y="380" on="1"/>
        <pt x="645" y="369" on="0"/>
        <pt x="620" y="365" on="1"/>
        <pt x="644" y="359" on="0"/>
        <pt x="665" y="347" on="1"/>
        <pt x="683" y="336" on="0"/>
        <pt x="717" y="297" on="0"/>
        <pt x="725" y="265" on="1"/>
        <pt x="760" y="105" on="1"/>
        <pt x="770" y="60" on="0"/>
        <pt x="800" y="60" on="1"/>
        <pt x="806" y="60" on="0"/>
        <pt x="814" y="62" on="1"/>
        <pt x="818" y="63" on="0"/>
        <pt x="820" y="65" on="1"/>
        <pt x="825" y="65" on="1"/>
        <pt x="835" y="0" on="1"/>
        <pt x="829" y="-3" on="0"/>
        <pt x="820" y="-5" on="1"/>
        <pt x="803" y="-10" on="0"/>
        <pt x="775" y="-10" on="1"/>
        <pt x="726" y="-10" on="0"/>
        <pt x="670" y="45" on="0"/>
        <pt x="660" y="90" on="1"/>
        <pt x="625" y="250" on="1"/>
        <pt x="617" y="284" on="0"/>
        <pt x="573" y="325" on="0"/>
        <pt x="535" y="325" on="1"/>
        <pt x="480" y="325" on="1"/>
        <pt x="480" y="0" on="1"/>
        <pt x="380" y="0" on="1"/>
        <pt x="380" y="325" on="1"/>
        <pt x="325" y="325" on="1"/>
        <pt x="287" y="325" on="0"/>
        <pt x="243" y="284" on="0"/>
        <pt x="235" y="250" on="1"/>
        <pt x="200" y="90" on="1"/>
        <pt x="190" y="45" on="0"/>
        <pt x="134" y="-10" on="0"/>
        <pt x="85" y="-10" on="1"/>
        <pt x="57" y="-10" on="0"/>
        <pt x="40" y="-5" on="1"/>
        <pt x="31" y="-3" on="0"/>
        <pt x="25" y="0" on="1"/>
        <pt x="35" y="65" on="1"/>
        <pt x="40" y="65" on="1"/>
        <pt x="42" y="63" on="0"/>
        <pt x="46" y="62" on="1"/>
        <pt x="54" y="60" on="0"/>
        <pt x="60" y="60" on="1"/>
        <pt x="89" y="60" on="0"/>
        <pt x="100" y="105" on="1"/>
        <pt x="135" y="265" on="1"/>
        <pt x="142" y="297" on="0"/>
        <pt x="177" y="336" on="0"/>
        <pt x="195" y="347" on="1"/>
        <pt x="216" y="359" on="0"/>
        <pt x="240" y="365" on="1"/>
        <pt x="215" y="369" on="0"/>
        <pt x="195" y="380" on="1"/>
        <pt x="178" y="389" on="0"/>
        <pt x="145" y="425" on="0"/>
        <pt x="140" y="455" on="1"/>
        <pt x="115" y="595" on="1"/>
        <pt x="107" y="640" on="0"/>
        <pt x="75" y="640" on="1"/>
        <pt x="71" y="640" on="0"/>
        <pt x="64" y="638" on="0"/>
        <pt x="61" y="637" on="1"/>
        <pt x="57" y="636" on="0"/>
        <pt x="55" y="635" on="1"/>
        <pt x="50" y="635" on="1"/>
        <pt x="40" y="700" on="1"/>
        <pt x="46" y="702" on="0"/>
        <pt x="55" y="705" on="1"/>
        <pt x="63" y="707" on="0"/>
        <pt x="85" y="710" on="0"/>
        <pt x="100" y="710" on="1"/>
        <pt x="149" y="710" on="0"/>
        <pt x="207" y="655" on="0"/>
        <pt x="215" y="610" on="1"/>
        <pt x="240" y="470" on="1"/>
        <pt x="246" y="436" on="0"/>
        <pt x="293" y="395" on="0"/>
        <pt x="335" y="395" on="1"/>
        <pt x="380" y="395" on="1"/>
        <pt x="380" y="700" on="1"/>
        <pt x="480" y="700" on="1"/>
      </contour>
    </TTGlyph>
    <TTGlyph name="afii10025" xMin="20" yMin="-10" xMax="470" yMax="710">
      <contour>
        <pt x="215" y="640" on="1"/>
        <pt x="185" y="640" on="0"/>
        <pt x="137" y="625" on="0"/>
        <pt x="120" y="617" on="1"/>
        <pt x="100" y="607" on="0"/>
        <pt x="85" y="595" on="1"/>
        <pt x="75" y="595" on="1"/>
        <pt x="40" y="655" on="1"/>
        <pt x="60" y="670" on="0"/>
        <pt x="87" y="682" on="1"/>
        <pt x="110" y="693" on="0"/>
        <pt x="180" y="710" on="0"/>
        <pt x="225" y="710" on="1"/>
        <pt x="281" y="710" on="0"/>
        <pt x="367" y="682" on="0"/>
        <pt x="425" y="633" on="0"/>
        <pt x="455" y="567" on="0"/>
        <pt x="455" y="530" on="1"/>
        <pt x="455" y="481" on="0"/>
        <pt x="415" y="419" on="0"/>
        <pt x="392" y="401" on="1"/>
        <pt x="365" y="380" on="0"/>
        <pt x="330" y="370" on="1"/>
        <pt x="369" y="360" on="0"/>
        <pt x="400" y="337" on="1"/>
        <pt x="413" y="327" on="0"/>
        <pt x="438" y="300" on="0"/>
        <pt x="458" y="263" on="0"/>
        <pt x="470" y="215" on="0"/>
        <pt x="470" y="185" on="1"/>
        <pt x="470" y="142" on="0"/>
        <pt x="440" y="70" on="0"/>
        <pt x="377" y="19" on="0"/>
        <pt x="281" y="-10" on="0"/>
        <pt x="215" y="-10" on="1"/>
        <pt x="166" y="-10" on="0"/>
        <pt x="93" y="6" on="0"/>
        <pt x="69" y="17" on="1"/>
        <pt x="40" y="29" on="0"/>
        <pt x="20" y="45" on="1"/>
        <pt x="55" y="105" on="1"/>
        <pt x="65" y="105" on="1"/>
        <pt x="80" y="92" on="0"/>
        <pt x="101" y="82" on="1"/>
        <pt x="119" y="74" on="0"/>
        <pt x="171" y="60" on="0"/>
        <pt x="205" y="60" on="1"/>
        <pt x="292" y="60" on="0"/>
        <pt x="370" y="131" on="0"/>
        <pt x="370" y="195" on="1"/>
        <pt x="370" y="259" on="0"/>
        <pt x="297" y="330" on="0"/>
        <pt x="225" y="330" on="1"/>
        <pt x="135" y="330" on="1"/>
        <pt x="135" y="400" on="1"/>
        <pt x="225" y="400" on="1"/>
        <pt x="285" y="400" on="0"/>
        <pt x="355" y="467" on="0"/>
        <pt x="355" y="520" on="1"/>
        <pt x="355" y="573" on="0"/>
        <pt x="283" y="640" on="0"/>
      </contour>
    </TTGlyph>
    <TTGlyph name="afii10026" xMin="90" yMin="0" xMax="540" yMax="700">
      <contour>
        <pt x="190" y="0" on="1"/>
        <pt x="90" y="0" on="1"/>
        <pt x="90" y="700" on="1"/>
        <pt x="190" y="700" on="1"/>
        <pt x="190" y="255" on="1"/>
        <pt x="190" y="244" on="0"/>
        <pt x="189" y="214" on="0"/>
        <pt x="188" y="201" on="1"/>
        <pt x="187" y="185" on="0"/>
        <pt x="186" y="170" on="1"/>
        <pt x="190" y="170" on="1"/>
        <pt x="194" y="185" on="0"/>
        <pt x="199" y="201" on="1"/>
        <pt x="204" y="214" on="0"/>
        <pt x="214" y="244" on="0"/>
        <pt x="220" y="255" on="1"/>
        <pt x="440" y="700" on="1"/>
        <pt x="540" y="700" on="1"/>
        <pt x="540" y="0" on="1"/>
        <pt x="440" y="0" on="1"/>
        <pt x="440" y="445" on="1"/>
        <pt x="440" y="456" on="0"/>
        <pt x="441" y="485" on="0"/>
        <pt x="442" y="499" on="1"/>
        <pt x="443" y="514" on="0"/>
        <pt x="444" y="530" on="1"/>
        <pt x="440" y="530" on="1"/>
        <pt x="436" y="514" on="0"/>
        <pt x="431" y="499" on="1"/>
        <pt x="426" y="485" on="0"/>
        <pt x="415" y="456" on="0"/>
        <pt x="410" y="445" on="1"/>
      </contour>
    </TTGlyph>
    <TTGlyph name="afii10027" xMin="90" yMin="0" xMax="540" yMax="880">
      <contour>
        <pt x="190" y="0" on="1"/>
        <pt x="90" y="0" on="1"/>
        <pt x="90" y="700" on="1"/>
        <pt x="190" y="700" on="1"/>
        <pt x="190" y="255" on="1"/>
        <pt x="190" y="244" on="0"/>
        <pt x="189" y="214" on="0"/>
        <pt x="188" y="201" on="1"/>
        <pt x="187" y="185" on="0"/>
        <pt x="186" y="170" on="1"/>
        <pt x="190" y="170" on="1"/>
        <pt x="194" y="185" on="0"/>
        <pt x="199" y="201" on="1"/>
        <pt x="204" y="214" on="0"/>
        <pt x="214" y="244" on="0"/>
        <pt x="220" y="255" on="1"/>
        <pt x="440" y="700" on="1"/>
        <pt x="540" y="700" on="1"/>
        <pt x="540" y="0" on="1"/>
        <pt x="440" y="0" on="1"/>
        <pt x="440" y="445" on="1"/>
        <pt x="440" y="456" on="0"/>
        <pt x="441" y="485" on="0"/>
        <pt x="442" y="499" on="1"/>
        <pt x="443" y="514" on="0"/>
        <pt x="444" y="530" on="1"/>
        <pt x="440" y="530" on="1"/>
        <pt x="436" y="514" on="0"/>
        <pt x="431" y="499" on="1"/>
        <pt x="426" y="485" on="0"/>
        <pt x="415" y="456" on="0"/>
        <pt x="410" y="445" on="1"/>
      </contour>
      <contour>
        <pt x="315" y="810" on="1"/>
        <pt x="345" y="810" on="0"/>
        <pt x="375" y="842" on="0"/>
        <pt x="375" y="880" on="1"/>
        <pt x="465" y="880" on="1"/>
        <pt x="465" y="820" on="0"/>
        <pt x="390" y="750" on="0"/>
        <pt x="315" y="750" on="1"/>
        <pt x="240" y="750" on="0"/>
        <pt x="165" y="820" on="0"/>
        <pt x="165" y="880" on="1"/>
        <pt x="255" y="880" on="1"/>
        <pt x="255" y="842" on="0"/>
        <pt x="285" y="810" on="0"/>
      </contour>
    </TTGlyph>
    <TTGlyph name="afii10028" xMin="90" yMin="-10" xMax="560" yMax="710">
      <contour>
        <pt x="345" y="365" on="1"/>
        <pt x="369" y="359" on="0"/>
        <pt x="390" y="347" on="1"/>
        <pt x="408" y="336" on="0"/>
        <pt x="442" y="297" on="0"/>
        <pt x="450" y="265" on="1"/>
        <pt x="485" y="105" on="1"/>
        <pt x="495" y="60" on="0"/>
        <pt x="525" y="60" on="1"/>
        <pt x="531" y="60" on="0"/>
        <pt x="539" y="62" on="1"/>
        <pt x="543" y="63" on="0"/>
        <pt x="545" y="65" on="1"/>
        <pt x="550" y="65" on="1"/>
        <pt x="560" y="0" on="1"/>
        <pt x="554" y="-3" on="0"/>
        <pt x="545" y="-5" on="1"/>
        <pt x="528" y="-10" on="0"/>
        <pt x="500" y="-10" on="1"/>
        <pt x="451" y="-10" on="0"/>
        <pt x="395" y="45" on="0"/>
        <pt x="385" y="90" on="1"/>
        <pt x="350" y="250" on="1"/>
        <pt x="342" y="284" on="0"/>
        <pt x="298" y="325" on="0"/>
        <pt x="260" y="325" on="1"/>
        <pt x="190" y="325" on="1"/>
        <pt x="190" y="0" on="1"/>
        <pt x="90" y="0" on="1"/>
        <pt x="90" y="700" on="1"/>
        <pt x="190" y="700" on="1"/>
        <pt x="190" y="395" on="1"/>
        <pt x="250" y="395" on="1"/>
        <pt x="292" y="395" on="0"/>
        <pt x="339" y="436" on="0"/>
        <pt x="345" y="470" on="1"/>
        <pt x="370" y="610" on="1"/>
        <pt x="378" y="655" on="0"/>
        <pt x="436" y="710" on="0"/>
        <pt x="485" y="710" on="1"/>
        <pt x="500" y="710" on="0"/>
        <pt x="522" y="707" on="0"/>
        <pt x="530" y="705" on="1"/>
        <pt x="539" y="702" on="0"/>
        <pt x="545" y="700" on="1"/>
        <pt x="535" y="635" on="1"/>
        <pt x="530" y="635" on="1"/>
        <pt x="528" y="636" on="0"/>
        <pt x="524" y="637" on="1"/>
        <pt x="521" y="638" on="0"/>
        <pt x="514" y="640" on="0"/>
        <pt x="510" y="640" on="1"/>
        <pt x="495" y="640" on="0"/>
        <pt x="474" y="618" on="0"/>
        <pt x="470" y="595" on="1"/>
        <pt x="445" y="455" on="1"/>
        <pt x="440" y="425" on="0"/>
        <pt x="407" y="389" on="0"/>
        <pt x="390" y="380" on="1"/>
        <pt x="370" y="369" on="0"/>
      </contour>
    </TTGlyph>
    <TTGlyph name="afii10029" xMin="10" yMin="-10" xMax="520" yMax="700">
      <contour>
        <pt x="45" y="60" on="1"/>
        <pt x="64" y="60" on="0"/>
        <pt x="97" y="104" on="0"/>
        <pt x="100" y="160" on="1"/>
        <pt x="130" y="700" on="1"/>
        <pt x="520" y="700" on="1"/>
        <pt x="520" y="0" on="1"/>
        <pt x="420" y="0" on="1"/>
        <pt x="420" y="630" on="1"/>
        <pt x="225" y="630" on="1"/>
        <pt x="200" y="160" on="1"/>
        <pt x="195" y="73" on="0"/>
        <pt x="122" y="-10" on="0"/>
        <pt x="65" y="-10" on="1"/>
        <pt x="43" y="-10" on="0"/>
        <pt x="26" y="-5" on="1"/>
        <pt x="17" y="-3" on="0"/>
        <pt x="10" y="0" on="1"/>
        <pt x="15" y="65" on="1"/>
        <pt x="25" y="65" on="1"/>
        <pt x="27" y="63" on="0"/>
        <pt x="31" y="62" on="1"/>
        <pt x="39" y="60" on="0"/>
      </contour>
    </TTGlyph>
    <TTGlyph name="afii10030" xMin="90" yMin="0" xMax="750" yMax="700">
      <contour>
        <pt x="400" y="275" on="1"/>
        <pt x="404" y="269" on="0"/>
        <pt x="411" y="252" on="0"/>
        <pt x="413" y="244" on="1"/>
        <pt x="416" y="234" on="0"/>
        <pt x="418" y="225" on="1"/>
        <pt x="422" y="225" on="1"/>
        <pt x="424" y="234" on="0"/>
        <pt x="427" y="244" on="1"/>
        <pt x="429" y="252" on="0"/>
        <pt x="436" y="269" on="0"/>
        <pt x="440" y="275" on="1"/>
        <pt x="650" y="700" on="1"/>
        <pt x="750" y="700" on="1"/>
        <pt x="750" y="0" on="1"/>
        <pt x="650" y="0" on="1"/>
        <pt x="650" y="420" on="1"/>
        <pt x="650" y="431" on="0"/>
        <pt x="651" y="460" on="0"/>
        <pt x="652" y="474" on="1"/>
        <pt x="653" y="489" on="0"/>
        <pt x="654" y="505" on="1"/>
        <pt x="650" y="505" on="1"/>
        <pt x="646" y="489" on="0"/>
        <pt x="641" y="474" on="1"/>
        <pt x="636" y="460" on="0"/>
        <pt x="625" y="431" on="0"/>
        <pt x="620" y="420" on="1"/>
        <pt x="470" y="125" on="1"/>
        <pt x="370" y="125" on="1"/>
        <pt x="220" y="420" on="1"/>
        <pt x="214" y="431" on="0"/>
        <pt x="204" y="460" on="0"/>
        <pt x="199" y="474" on="1"/>
        <pt x="194" y="489" on="0"/>
        <pt x="190" y="505" on="1"/>
        <pt x="186" y="505" on="1"/>
        <pt x="187" y="489" on="0"/>
        <pt x="188" y="474" on="1"/>
        <pt x="189" y="460" on="0"/>
        <pt x="190" y="431" on="0"/>
        <pt x="190" y="420" on="1"/>
        <pt x="190" y="0" on="1"/>
        <pt x="90" y="0" on="1"/>
        <pt x="90" y="700" on="1"/>
        <pt x="190" y="700" on="1"/>
      </contour>
    </TTGlyph>
    <TTGlyph name="afii10031" xMin="90" yMin="0" xMax="540" yMax="700">
      <contour>
        <pt x="540" y="700" on="1"/>
        <pt x="540" y="0" on="1"/>
        <pt x="440" y="0" on="1"/>
        <pt x="440" y="320" on="1"/>
        <pt x="190" y="320" on="1"/>
        <pt x="190" y="0" on="1"/>
        <pt x="90" y="0" on="1"/>
        <pt x="90" y="700" on="1"/>
        <pt x="190" y="700" on="1"/>
        <pt x="190" y="390" on="1"/>
        <pt x="440" y="390" on="1"/>
        <pt x="440" y="700" on="1"/>
      </contour>
    </TTGlyph>
    <TTGlyph name="afii10032" xMin="55" yMin="-10" xMax="545" yMax="710">
      <contour>
        <pt x="155" y="350" on="1"/>
        <pt x="155" y="267" on="0"/>
        <pt x="179" y="156" on="0"/>
        <pt x="220" y="89" on="0"/>
        <pt x="272" y="60" on="0"/>
        <pt x="300" y="60" on="1"/>
        <pt x="328" y="60" on="0"/>
        <pt x="380" y="89" on="0"/>
        <pt x="421" y="156" on="0"/>
        <pt x="445" y="267" on="0"/>
        <pt x="445" y="350" on="1"/>
        <pt x="445" y="432" on="0"/>
        <pt x="421" y="544" on="0"/>
        <pt x="380" y="611" on="0"/>
        <pt x="328" y="640" on="0"/>
        <pt x="300" y="640" on="1"/>
        <pt x="272" y="640" on="0"/>
        <pt x="220" y="611" on="0"/>
        <pt x="179" y="544" on="0"/>
        <pt x="155" y="432" on="0"/>
      </contour>
      <contour>
        <pt x="545" y="350" on="1"/>
        <pt x="545" y="252" on="0"/>
        <pt x="509" y="116" on="0"/>
        <pt x="445" y="29" on="0"/>
        <pt x="354" y="-10" on="0"/>
        <pt x="300" y="-10" on="1"/>
        <pt x="246" y="-10" on="0"/>
        <pt x="155" y="29" on="0"/>
        <pt x="91" y="116" on="0"/>
        <pt x="55" y="252" on="0"/>
        <pt x="55" y="350" on="1"/>
        <pt x="55" y="447" on="0"/>
        <pt x="91" y="584" on="0"/>
        <pt x="155" y="671" on="0"/>
        <pt x="246" y="710" on="0"/>
        <pt x="300" y="710" on="1"/>
        <pt x="354" y="710" on="0"/>
        <pt x="445" y="671" on="0"/>
        <pt x="509" y="584" on="0"/>
        <pt x="545" y="447" on="0"/>
      </contour>
    </TTGlyph>
    <TTGlyph name="afii10033" xMin="90" yMin="0" xMax="540" yMax="700">
      <contour>
        <pt x="540" y="700" on="1"/>
        <pt x="540" y="0" on="1"/>
        <pt x="440" y="0" on="1"/>
        <pt x="440" y="630" on="1"/>
        <pt x="190" y="630" on="1"/>
        <pt x="190" y="0" on="1"/>
        <pt x="90" y="0" on="1"/>
        <pt x="90" y="700" on="1"/>
      </contour>
    </TTGlyph>
    <TTGlyph name="afii10034" xMin="90" yMin="0" xMax="520" yMax="700">
      <contour>
        <pt x="270" y="310" on="1"/>
        <pt x="345" y="310" on="0"/>
        <pt x="420" y="387" on="0"/>
        <pt x="420" y="470" on="1"/>
        <pt x="420" y="553" on="0"/>
        <pt x="345" y="630" on="0"/>
        <pt x="270" y="630" on="1"/>
        <pt x="190" y="630" on="1"/>
        <pt x="190" y="310" on="1"/>
      </contour>
      <contour>
        <pt x="190" y="240" on="1"/>
        <pt x="190" y="0" on="1"/>
        <pt x="90" y="0" on="1"/>
        <pt x="90" y="700" on="1"/>
        <pt x="270" y="700" on="1"/>
        <pt x="398" y="700" on="0"/>
        <pt x="520" y="583" on="0"/>
        <pt x="520" y="470" on="1"/>
        <pt x="520" y="357" on="0"/>
        <pt x="398" y="240" on="0"/>
        <pt x="270" y="240" on="1"/>
      </contour>
    </TTGlyph>
    <TTGlyph name="afii10035" xMin="55" yMin="-10" xMax="490" yMax="710">
      <contour>
        <pt x="55" y="350" on="1"/>
        <pt x="55" y="447" on="0"/>
        <pt x="91" y="584" on="0"/>
        <pt x="157" y="671" on="0"/>
        <pt x="249" y="710" on="0"/>
        <pt x="305" y="710" on="1"/>
        <pt x="347" y="710" on="0"/>
        <pt x="411" y="693" on="0"/>
        <pt x="434" y="682" on="1"/>
        <pt x="460" y="670" on="0"/>
        <pt x="480" y="655" on="1"/>
        <pt x="445" y="595" on="1"/>
        <pt x="435" y="595" on="1"/>
        <pt x="419" y="607" on="0"/>
        <pt x="401" y="617" on="1"/>
        <pt x="385" y="625" on="0"/>
        <pt x="341" y="640" on="0"/>
        <pt x="315" y="640" on="1"/>
        <pt x="281" y="640" on="0"/>
        <pt x="223" y="611" on="0"/>
        <pt x="180" y="544" on="0"/>
        <pt x="155" y="432" on="0"/>
        <pt x="155" y="350" on="1"/>
        <pt x="155" y="267" on="0"/>
        <pt x="180" y="156" on="0"/>
        <pt x="225" y="89" on="0"/>
        <pt x="287" y="60" on="0"/>
        <pt x="325" y="60" on="1"/>
        <pt x="351" y="60" on="0"/>
        <pt x="395" y="74" on="0"/>
        <pt x="411" y="82" on="1"/>
        <pt x="429" y="92" on="0"/>
        <pt x="445" y="105" on="1"/>
        <pt x="455" y="105" on="1"/>
        <pt x="490" y="45" on="1"/>
        <pt x="470" y="29" on="0"/>
        <pt x="444" y="17" on="1"/>
        <pt x="421" y="6" on="0"/>
        <pt x="357" y="-10" on="0"/>
        <pt x="315" y="-10" on="1"/>
        <pt x="255" y="-10" on="0"/>
        <pt x="159" y="29" on="0"/>
        <pt x="91" y="116" on="0"/>
        <pt x="55" y="252" on="0"/>
      </contour>
    </TTGlyph>
    <TTGlyph name="afii10036" xMin="10" yMin="0" xMax="470" yMax="700">
      <contour>
        <pt x="190" y="0" on="1"/>
        <pt x="190" y="630" on="1"/>
        <pt x="10" y="630" on="1"/>
        <pt x="10" y="700" on="1"/>
        <pt x="470" y="700" on="1"/>
        <pt x="470" y="630" on="1"/>
        <pt x="290" y="630" on="1"/>
        <pt x="290" y="0" on="1"/>
      </contour>
    </TTGlyph>
    <TTGlyph name="afii10037" xMin="10" yMin="-15" xMax="526" yMax="700">
      <contour>
        <pt x="261" y="335" on="1"/>
        <pt x="265" y="325" on="0"/>
        <pt x="273" y="300" on="0"/>
        <pt x="276" y="288" on="1"/>
        <pt x="283" y="260" on="1"/>
        <pt x="287" y="260" on="1"/>
        <pt x="289" y="274" on="0"/>
        <pt x="293" y="288" on="1"/>
        <pt x="296" y="299" on="0"/>
        <pt x="303" y="325" on="0"/>
        <pt x="306" y="335" on="1"/>
        <pt x="426" y="700" on="1"/>
        <pt x="526" y="700" on="1"/>
        <pt x="341" y="125" on="1"/>
        <pt x="332" y="97" on="0"/>
        <pt x="299" y="46" on="0"/>
        <pt x="254" y="8" on="0"/>
        <pt x="198" y="-15" on="0"/>
        <pt x="166" y="-15" on="1"/>
        <pt x="141" y="-15" on="0"/>
        <pt x="103" y="-6" on="0"/>
        <pt x="89" y="0" on="1"/>
        <pt x="73" y="6" on="0"/>
        <pt x="61" y="15" on="1"/>
        <pt x="86" y="80" on="1"/>
        <pt x="96" y="80" on="1"/>
        <pt x="103" y="72" on="0"/>
        <pt x="113" y="67" on="1"/>
        <pt x="121" y="62" on="0"/>
        <pt x="142" y="55" on="0"/>
        <pt x="156" y="55" on="1"/>
        <pt x="186" y="55" on="0"/>
        <pt x="231" y="95" on="0"/>
        <pt x="241" y="125" on="1"/>
        <pt x="261" y="185" on="1"/>
        <pt x="216" y="185" on="1"/>
        <pt x="10" y="700" on="1"/>
        <pt x="115" y="700" on="1"/>
      </contour>
    </TTGlyph>
    <TTGlyph name="afii10038" xMin="45" yMin="-30" xMax="725" yMax="730">
      <contour>
        <pt x="435" y="110" on="1"/>
        <pt x="521" y="117" on="0"/>
        <pt x="625" y="234" on="0"/>
        <pt x="625" y="350" on="1"/>
        <pt x="625" y="408" on="0"/>
        <pt x="598" y="495" on="0"/>
        <pt x="548" y="554" on="0"/>
        <pt x="478" y="586" on="0"/>
        <pt x="435" y="590" on="1"/>
      </contour>
      <contour>
        <pt x="335" y="730" on="1"/>
        <pt x="435" y="730" on="1"/>
        <pt x="435" y="660" on="1"/>
        <pt x="575" y="652" on="0"/>
        <pt x="725" y="497" on="0"/>
        <pt x="725" y="350" on="1"/>
        <pt x="725" y="203" on="0"/>
        <pt x="575" y="48" on="0"/>
        <pt x="435" y="40" on="1"/>
        <pt x="435" y="-30" on="1"/>
        <pt x="335" y="-30" on="1"/>
        <pt x="335" y="40" on="1"/>
        <pt x="195" y="48" on="0"/>
        <pt x="45" y="203" on="0"/>
        <pt x="45" y="350" on="1"/>
        <pt x="45" y="497" on="0"/>
        <pt x="195" y="652" on="0"/>
        <pt x="335" y="660" on="1"/>
      </contour>
      <contour>
        <pt x="335" y="590" on="1"/>
        <pt x="292" y="586" on="0"/>
        <pt x="222" y="554" on="0"/>
        <pt x="172" y="495" on="0"/>
        <pt x="145" y="408" on="0"/>
        <pt x="145" y="350" on="1"/>
        <pt x="145" y="234" on="0"/>
        <pt x="249" y="117" on="0"/>
        <pt x="335" y="110" on="1"/>
      </contour>
    </TTGlyph>
    <TTGlyph name="afii10039" xMin="15" yMin="0" xMax="515" yMax="700">
      <contour>
        <pt x="245" y="475" on="1"/>
        <pt x="248" y="468" on="0"/>
        <pt x="255" y="453" on="0"/>
        <pt x="257" y="446" on="1"/>
        <pt x="260" y="438" on="0"/>
        <pt x="263" y="430" on="1"/>
        <pt x="267" y="430" on="1"/>
        <pt x="270" y="438" on="0"/>
        <pt x="273" y="446" on="1"/>
        <pt x="275" y="453" on="0"/>
        <pt x="281" y="468" on="0"/>
        <pt x="285" y="475" on="1"/>
        <pt x="400" y="700" on="1"/>
        <pt x="510" y="700" on="1"/>
        <pt x="330" y="355" on="1"/>
        <pt x="515" y="0" on="1"/>
        <pt x="405" y="0" on="1"/>
        <pt x="285" y="235" on="1"/>
        <pt x="281" y="241" on="0"/>
        <pt x="275" y="257" on="0"/>
        <pt x="273" y="264" on="1"/>
        <pt x="270" y="272" on="0"/>
        <pt x="267" y="280" on="1"/>
        <pt x="263" y="280" on="1"/>
        <pt x="260" y="272" on="0"/>
        <pt x="257" y="264" on="1"/>
        <pt x="252" y="249" on="0"/>
        <pt x="245" y="235" on="1"/>
        <pt x="125" y="0" on="1"/>
        <pt x="15" y="0" on="1"/>
        <pt x="200" y="355" on="1"/>
        <pt x="20" y="700" on="1"/>
        <pt x="130" y="700" on="1"/>
      </contour>
    </TTGlyph>
    <TTGlyph name="afii10040" xMin="90" yMin="-150" xMax="595" yMax="700">
      <contour>
        <pt x="90" y="0" on="1"/>
        <pt x="90" y="700" on="1"/>
        <pt x="190" y="700" on="1"/>
        <pt x="190" y="70" on="1"/>
        <pt x="430" y="70" on="1"/>
        <pt x="430" y="700" on="1"/>
        <pt x="530" y="700" on="1"/>
        <pt x="530" y="70" on="1"/>
        <pt x="595" y="70" on="1"/>
        <pt x="595" y="-150" on="1"/>
        <pt x="515" y="-150" on="1"/>
        <pt x="500" y="0" on="1"/>
      </contour>
    </TTGlyph>
    <TTGlyph name="afii10041" xMin="60" yMin="0" xMax="510" yMax="700">
      <contour>
        <pt x="410" y="700" on="1"/>
        <pt x="510" y="700" on="1"/>
        <pt x="510" y="0" on="1"/>
        <pt x="410" y="0" on="1"/>
        <pt x="410" y="275" on="1"/>
        <pt x="392" y="271" on="0"/>
        <pt x="370" y="267" on="1"/>
        <pt x="351" y="264" on="0"/>
        <pt x="300" y="260" on="0"/>
        <pt x="270" y="260" on="1"/>
        <pt x="221" y="260" on="0"/>
        <pt x="143" y="289" on="0"/>
        <pt x="89" y="340" on="0"/>
        <pt x="60" y="412" on="0"/>
        <pt x="60" y="455" on="1"/>
        <pt x="60" y="700" on="1"/>
        <pt x="160" y="700" on="1"/>
        <pt x="160" y="455" on="1"/>
        <pt x="160" y="398" on="0"/>
        <pt x="231" y="330" on="0"/>
        <pt x="295" y="330" on="1"/>
        <pt x="319" y="330" on="0"/>
        <pt x="361" y="334" on="0"/>
        <pt x="377" y="337" on="1"/>
        <pt x="395" y="341" on="0"/>
        <pt x="410" y="345" on="1"/>
      </contour>
    </TTGlyph>
    <TTGlyph name="afii10042" xMin="90" yMin="0" xMax="830" yMax="700">
      <contour>
        <pt x="830" y="0" on="1"/>
        <pt x="90" y="0" on="1"/>
        <pt x="90" y="700" on="1"/>
        <pt x="190" y="700" on="1"/>
        <pt x="190" y="70" on="1"/>
        <pt x="410" y="70" on="1"/>
        <pt x="410" y="700" on="1"/>
        <pt x="510" y="700" on="1"/>
        <pt x="510" y="70" on="1"/>
        <pt x="730" y="70" on="1"/>
        <pt x="730" y="700" on="1"/>
        <pt x="830" y="700" on="1"/>
      </contour>
    </TTGlyph>
    <TTGlyph name="afii10043" xMin="90" yMin="-150" xMax="895" yMax="700">
      <contour>
        <pt x="90" y="0" on="1"/>
        <pt x="90" y="700" on="1"/>
        <pt x="190" y="700" on="1"/>
        <pt x="190" y="70" on="1"/>
        <pt x="410" y="70" on="1"/>
        <pt x="410" y="700" on="1"/>
        <pt x="510" y="700" on="1"/>
        <pt x="510" y="70" on="1"/>
        <pt x="730" y="70" on="1"/>
        <pt x="730" y="700" on="1"/>
        <pt x="830" y="700" on="1"/>
        <pt x="830" y="70" on="1"/>
        <pt x="895" y="70" on="1"/>
        <pt x="895" y="-150" on="1"/>
        <pt x="815" y="-150" on="1"/>
        <pt x="800" y="0" on="1"/>
      </contour>
    </TTGlyph>
    <TTGlyph name="afii10044" xMin="10" yMin="0" xMax="585" yMax="700">
      <contour>
        <pt x="10" y="700" on="1"/>
        <pt x="250" y="700" on="1"/>
        <pt x="250" y="440" on="1"/>
        <pt x="340" y="440" on="1"/>
        <pt x="465" y="440" on="0"/>
        <pt x="585" y="326" on="0"/>
        <pt x="585" y="220" on="1"/>
        <pt x="585" y="114" on="0"/>
        <pt x="465" y="0" on="0"/>
        <pt x="340" y="0" on="1"/>
        <pt x="150" y="0" on="1"/>
        <pt x="150" y="630" on="1"/>
        <pt x="10" y="630" on="1"/>
      </contour>
      <contour>
        <pt x="250" y="370" on="1"/>
        <pt x="250" y="70" on="1"/>
        <pt x="340" y="70" on="1"/>
        <pt x="485" y="70" on="0"/>
        <pt x="485" y="220" on="1"/>
        <pt x="485" y="370" on="0"/>
        <pt x="340" y="370" on="1"/>
      </contour>
    </TTGlyph>
    <TTGlyph name="afii10045" xMin="90" yMin="0" xMax="710" yMax="700">
      <contour>
        <pt x="610" y="700" on="1"/>
        <pt x="710" y="700" on="1"/>
        <pt x="710" y="0" on="1"/>
        <pt x="610" y="0" on="1"/>
      </contour>
      <contour>
        <pt x="270" y="440" on="1"/>
        <pt x="395" y="440" on="0"/>
        <pt x="515" y="326" on="0"/>
        <pt x="515" y="220" on="1"/>
        <pt x="515" y="114" on="0"/>
        <pt x="395" y="0" on="0"/>
        <pt x="270" y="0" on="1"/>
        <pt x="90" y="0" on="1"/>
        <pt x="90" y="700" on="1"/>
        <pt x="190" y="700" on="1"/>
        <pt x="190" y="440" on="1"/>
      </contour>
      <contour>
        <pt x="190" y="370" on="1"/>
        <pt x="190" y="70" on="1"/>
        <pt x="270" y="70" on="1"/>
        <pt x="415" y="70" on="0"/>
        <pt x="415" y="220" on="1"/>
        <pt x="415" y="370" on="0"/>
        <pt x="270" y="370" on="1"/>
      </contour>
    </TTGlyph>
    <TTGlyph name="afii10046" xMin="90" yMin="0" xMax="525" yMax="700">
      <contour>
        <pt x="280" y="440" on="1"/>
        <pt x="405" y="440" on="0"/>
        <pt x="525" y="326" on="0"/>
        <pt x="525" y="220" on="1"/>
        <pt x="525" y="114" on="0"/>
        <pt x="405" y="0" on="0"/>
        <pt x="280" y="0" on="1"/>
        <pt x="90" y="0" on="1"/>
        <pt x="90" y="700" on="1"/>
        <pt x="190" y="700" on="1"/>
        <pt x="190" y="440" on="1"/>
      </contour>
      <contour>
        <pt x="190" y="370" on="1"/>
        <pt x="190" y="70" on="1"/>
        <pt x="280" y="70" on="1"/>
        <pt x="425" y="70" on="0"/>
        <pt x="425" y="220" on="1"/>
        <pt x="425" y="370" on="0"/>
        <pt x="280" y="370" on="1"/>
      </contour>
    </TTGlyph>
    <TTGlyph name="afii10047" xMin="25" yMin="-10" xMax="460" yMax="710">
      <contour>
        <pt x="460" y="350" on="1"/>
        <pt x="460" y="252" on="0"/>
        <pt x="424" y="116" on="0"/>
        <pt x="356" y="29" on="0"/>
        <pt x="260" y="-10" on="0"/>
        <pt x="200" y="-10" on="1"/>
        <pt x="158" y="-10" on="0"/>
        <pt x="94" y="6" on="0"/>
        <pt x="71" y="17" on="1"/>
        <pt x="45" y="29" on="0"/>
        <pt x="25" y="45" on="1"/>
        <pt x="60" y="105" on="1"/>
        <pt x="70" y="105" on="1"/>
        <pt x="86" y="92" on="0"/>
        <pt x="104" y="82" on="1"/>
        <pt x="120" y="74" on="0"/>
        <pt x="164" y="60" on="0"/>
        <pt x="190" y="60" on="1"/>
        <pt x="226" y="60" on="0"/>
        <pt x="286" y="86" on="0"/>
        <pt x="331" y="147" on="0"/>
        <pt x="358" y="247" on="0"/>
        <pt x="360" y="320" on="1"/>
        <pt x="125" y="320" on="1"/>
        <pt x="125" y="390" on="1"/>
        <pt x="359" y="390" on="1"/>
        <pt x="356" y="461" on="0"/>
        <pt x="329" y="557" on="0"/>
        <pt x="287" y="615" on="0"/>
        <pt x="232" y="640" on="0"/>
        <pt x="200" y="640" on="1"/>
        <pt x="174" y="640" on="0"/>
        <pt x="130" y="625" on="0"/>
        <pt x="114" y="617" on="1"/>
        <pt x="96" y="607" on="0"/>
        <pt x="80" y="595" on="1"/>
        <pt x="70" y="595" on="1"/>
        <pt x="35" y="655" on="1"/>
        <pt x="55" y="670" on="0"/>
        <pt x="81" y="682" on="1"/>
        <pt x="104" y="693" on="0"/>
        <pt x="168" y="710" on="0"/>
        <pt x="210" y="710" on="1"/>
        <pt x="266" y="710" on="0"/>
        <pt x="358" y="671" on="0"/>
        <pt x="424" y="584" on="0"/>
        <pt x="460" y="447" on="0"/>
      </contour>
    </TTGlyph>
    <TTGlyph name="afii10048" xMin="90" yMin="-10" xMax="755" yMax="710">
      <contour>
        <pt x="520" y="710" on="1"/>
        <pt x="571" y="710" on="0"/>
        <pt x="657" y="671" on="0"/>
        <pt x="720" y="584" on="0"/>
        <pt x="755" y="447" on="0"/>
        <pt x="755" y="350" on="1"/>
        <pt x="755" y="252" on="0"/>
        <pt x="720" y="116" on="0"/>
        <pt x="657" y="29" on="0"/>
        <pt x="571" y="-10" on="0"/>
        <pt x="520" y="-10" on="1"/>
        <pt x="471" y="-10" on="0"/>
        <pt x="388" y="26" on="0"/>
        <pt x="327" y="104" on="0"/>
        <pt x="289" y="230" on="0"/>
        <pt x="285" y="320" on="1"/>
        <pt x="190" y="320" on="1"/>
        <pt x="190" y="0" on="1"/>
        <pt x="90" y="0" on="1"/>
        <pt x="90" y="700" on="1"/>
        <pt x="190" y="700" on="1"/>
        <pt x="190" y="390" on="1"/>
        <pt x="285" y="390" on="1"/>
        <pt x="289" y="476" on="0"/>
        <pt x="327" y="598" on="0"/>
        <pt x="388" y="675" on="0"/>
        <pt x="471" y="710" on="0"/>
      </contour>
      <contour>
        <pt x="520" y="60" on="1"/>
        <pt x="544" y="60" on="0"/>
        <pt x="593" y="89" on="0"/>
        <pt x="631" y="156" on="0"/>
        <pt x="655" y="267" on="0"/>
        <pt x="655" y="350" on="1"/>
        <pt x="655" y="432" on="0"/>
        <pt x="631" y="544" on="0"/>
        <pt x="593" y="611" on="0"/>
        <pt x="544" y="640" on="0"/>
        <pt x="520" y="640" on="1"/>
        <pt x="496" y="640" on="0"/>
        <pt x="447" y="611" on="0"/>
        <pt x="409" y="544" on="0"/>
        <pt x="385" y="432" on="0"/>
        <pt x="385" y="350" on="1"/>
        <pt x="385" y="267" on="0"/>
        <pt x="409" y="156" on="0"/>
        <pt x="447" y="89" on="0"/>
        <pt x="496" y="60" on="0"/>
      </contour>
    </TTGlyph>
    <TTGlyph name="afii10049" xMin="20" yMin="-10" xMax="480" yMax="700">
      <contour>
        <pt x="315" y="270" on="1"/>
        <pt x="281" y="270" on="0"/>
        <pt x="235" y="229" on="0"/>
        <pt x="225" y="195" on="1"/>
        <pt x="195" y="90" on="1"/>
        <pt x="181" y="41" on="0"/>
        <pt x="125" y="-10" on="0"/>
        <pt x="80" y="-10" on="1"/>
        <pt x="52" y="-10" on="0"/>
        <pt x="35" y="-5" on="1"/>
        <pt x="26" y="-3" on="0"/>
        <pt x="20" y="0" on="1"/>
        <pt x="30" y="65" on="1"/>
        <pt x="35" y="65" on="1"/>
        <pt x="37" y="63" on="0"/>
        <pt x="41" y="62" on="1"/>
        <pt x="49" y="60" on="0"/>
        <pt x="55" y="60" on="1"/>
        <pt x="66" y="60" on="0"/>
        <pt x="89" y="82" on="0"/>
        <pt x="95" y="105" on="1"/>
        <pt x="125" y="210" on="1"/>
        <pt x="133" y="236" on="0"/>
        <pt x="158" y="269" on="0"/>
        <pt x="172" y="279" on="1"/>
        <pt x="187" y="290" on="0"/>
        <pt x="205" y="295" on="1"/>
        <pt x="177" y="299" on="0"/>
        <pt x="123" y="330" on="0"/>
        <pt x="81" y="379" on="0"/>
        <pt x="55" y="446" on="0"/>
        <pt x="55" y="485" on="1"/>
        <pt x="55" y="587" on="0"/>
        <pt x="177" y="700" on="0"/>
        <pt x="305" y="700" on="1"/>
        <pt x="480" y="700" on="1"/>
        <pt x="480" y="0" on="1"/>
        <pt x="380" y="0" on="1"/>
        <pt x="380" y="270" on="1"/>
      </contour>
      <contour>
        <pt x="380" y="340" on="1"/>
        <pt x="380" y="630" on="1"/>
        <pt x="305" y="630" on="1"/>
        <pt x="155" y="630" on="0"/>
        <pt x="155" y="485" on="1"/>
        <pt x="155" y="340" on="0"/>
        <pt x="305" y="340" on="1"/>
      </contour>
    </TTGlyph>
    <TTGlyph name="afii10050" xMin="90" yMin="0" xMax="480" yMax="800">
      <contour>
        <pt x="480" y="800" on="1"/>
        <pt x="480" y="630" on="1"/>
        <pt x="190" y="630" on="1"/>
        <pt x="190" y="0" on="1"/>
        <pt x="90" y="0" on="1"/>
        <pt x="90" y="700" on="1"/>
        <pt x="390" y="700" on="1"/>
        <pt x="400" y="800" on="1"/>
      </contour>
    </TTGlyph>
    <TTGlyph name="afii10051" xMin="0" yMin="-30" xMax="590" yMax="700">
      <contour>
        <pt x="590" y="130" on="1"/>
        <pt x="590" y="94" on="0"/>
        <pt x="567" y="35" on="0"/>
        <pt x="526" y="-7" on="0"/>
        <pt x="469" y="-30" on="0"/>
        <pt x="435" y="-30" on="1"/>
        <pt x="418" y="-30" on="0"/>
        <pt x="388" y="-26" on="0"/>
        <pt x="376" y="-23" on="1"/>
        <pt x="362" y="-19" on="0"/>
        <pt x="350" y="-15" on="1"/>
        <pt x="360" y="50" on="1"/>
        <pt x="370" y="50" on="1"/>
        <pt x="377" y="47" on="0"/>
        <pt x="385" y="45" on="1"/>
        <pt x="400" y="40" on="0"/>
        <pt x="415" y="40" on="1"/>
        <pt x="449" y="40" on="0"/>
        <pt x="490" y="85" on="0"/>
        <pt x="490" y="130" on="1"/>
        <pt x="490" y="255" on="1"/>
        <pt x="490" y="312" on="0"/>
        <pt x="419" y="380" on="0"/>
        <pt x="355" y="380" on="1"/>
        <pt x="330" y="380" on="0"/>
        <pt x="289" y="375" on="0"/>
        <pt x="273" y="372" on="1"/>
        <pt x="255" y="368" on="0"/>
        <pt x="240" y="365" on="1"/>
        <pt x="240" y="0" on="1"/>
        <pt x="140" y="0" on="1"/>
        <pt x="140" y="630" on="1"/>
        <pt x="0" y="630" on="1"/>
        <pt x="0" y="700" on="1"/>
        <pt x="420" y="700" on="1"/>
        <pt x="420" y="630" on="1"/>
        <pt x="240" y="630" on="1"/>
        <pt x="240" y="435" on="1"/>
        <pt x="258" y="438" on="0"/>
        <pt x="280" y="442" on="1"/>
        <pt x="299" y="445" on="0"/>
        <pt x="350" y="450" on="0"/>
        <pt x="380" y="450" on="1"/>
        <pt x="429" y="450" on="0"/>
        <pt x="507" y="421" on="0"/>
        <pt x="561" y="370" on="0"/>
        <pt x="590" y="298" on="0"/>
        <pt x="590" y="255" on="1"/>
      </contour>
    </TTGlyph>
    <TTGlyph name="afii10052" xMin="90" yMin="0" xMax="480" yMax="900">
      <contour>
        <pt x="90" y="0" on="1"/>
        <pt x="90" y="700" on="1"/>
        <pt x="480" y="700" on="1"/>
        <pt x="480" y="630" on="1"/>
        <pt x="190" y="630" on="1"/>
        <pt x="190" y="0" on="1"/>
      </contour>
      <contour>
        <pt x="405" y="900" on="1"/>
        <pt x="315" y="750" on="1"/>
        <pt x="250" y="750" on="1"/>
        <pt x="295" y="900" on="1"/>
      </contour>
    </TTGlyph>
    <TTGlyph name="afii10053" xMin="55" yMin="-10" xMax="490" yMax="710">
      <contour>
        <pt x="55" y="350" on="1"/>
        <pt x="55" y="447" on="0"/>
        <pt x="91" y="584" on="0"/>
        <pt x="157" y="671" on="0"/>
        <pt x="249" y="710" on="0"/>
        <pt x="305" y="710" on="1"/>
        <pt x="347" y="710" on="0"/>
        <pt x="411" y="693" on="0"/>
        <pt x="434" y="682" on="1"/>
        <pt x="460" y="670" on="0"/>
        <pt x="480" y="655" on="1"/>
        <pt x="445" y="595" on="1"/>
        <pt x="435" y="595" on="1"/>
        <pt x="419" y="607" on="0"/>
        <pt x="401" y="617" on="1"/>
        <pt x="385" y="625" on="0"/>
        <pt x="341" y="640" on="0"/>
        <pt x="315" y="640" on="1"/>
        <pt x="283" y="640" on="0"/>
        <pt x="228" y="615" on="0"/>
        <pt x="186" y="557" on="0"/>
        <pt x="159" y="461" on="0"/>
        <pt x="156" y="390" on="1"/>
        <pt x="390" y="390" on="1"/>
        <pt x="390" y="320" on="1"/>
        <pt x="155" y="320" on="1"/>
        <pt x="157" y="247" on="0"/>
        <pt x="184" y="147" on="0"/>
        <pt x="229" y="86" on="0"/>
        <pt x="289" y="60" on="0"/>
        <pt x="325" y="60" on="1"/>
        <pt x="351" y="60" on="0"/>
        <pt x="395" y="74" on="0"/>
        <pt x="411" y="82" on="1"/>
        <pt x="429" y="92" on="0"/>
        <pt x="445" y="105" on="1"/>
        <pt x="455" y="105" on="1"/>
        <pt x="490" y="45" on="1"/>
        <pt x="470" y="29" on="0"/>
        <pt x="444" y="17" on="1"/>
        <pt x="421" y="6" on="0"/>
        <pt x="357" y="-10" on="0"/>
        <pt x="315" y="-10" on="1"/>
        <pt x="255" y="-10" on="0"/>
        <pt x="159" y="29" on="0"/>
        <pt x="91" y="116" on="0"/>
        <pt x="55" y="252" on="0"/>
      </contour>
    </TTGlyph>
    <TTGlyph name="afii10054" xMin="35" yMin="-10" xMax="470" yMax="710">
      <contour>
        <pt x="255" y="710" on="1"/>
        <pt x="304" y="710" on="0"/>
        <pt x="376" y="693" on="0"/>
        <pt x="401" y="682" on="1"/>
        <pt x="429" y="670" on="0"/>
        <pt x="450" y="655" on="1"/>
        <pt x="415" y="595" on="1"/>
        <pt x="405" y="595" on="1"/>
        <pt x="390" y="607" on="0"/>
        <pt x="369" y="617" on="1"/>
        <pt x="351" y="625" on="0"/>
        <pt x="299" y="640" on="0"/>
        <pt x="265" y="640" on="1"/>
        <pt x="239" y="640" on="0"/>
        <pt x="195" y="622" on="0"/>
        <pt x="163" y="592" on="0"/>
        <pt x="145" y="552" on="0"/>
        <pt x="145" y="530" on="1"/>
        <pt x="145" y="490" on="0"/>
        <pt x="193" y="439" on="0"/>
        <pt x="265" y="400" on="0"/>
        <pt x="350" y="365" on="0"/>
        <pt x="422" y="316" on="0"/>
        <pt x="470" y="245" on="0"/>
        <pt x="470" y="190" on="1"/>
        <pt x="470" y="145" on="0"/>
        <pt x="440" y="71" on="0"/>
        <pt x="382" y="19" on="0"/>
        <pt x="296" y="-10" on="0"/>
        <pt x="240" y="-10" on="1"/>
        <pt x="191" y="-10" on="0"/>
        <pt x="115" y="6" on="0"/>
        <pt x="89" y="17" on="1"/>
        <pt x="58" y="29" on="0"/>
        <pt x="35" y="45" on="1"/>
        <pt x="70" y="105" on="1"/>
        <pt x="80" y="105" on="1"/>
        <pt x="98" y="92" on="0"/>
        <pt x="121" y="82" on="1"/>
        <pt x="141" y="74" on="0"/>
        <pt x="196" y="60" on="0"/>
        <pt x="230" y="60" on="1"/>
        <pt x="298" y="60" on="0"/>
        <pt x="370" y="127" on="0"/>
        <pt x="370" y="180" on="1"/>
        <pt x="370" y="220" on="0"/>
        <pt x="322" y="271" on="0"/>
        <pt x="250" y="310" on="0"/>
        <pt x="165" y="345" on="0"/>
        <pt x="93" y="394" on="0"/>
        <pt x="45" y="465" on="0"/>
        <pt x="45" y="520" on="1"/>
        <pt x="45" y="561" on="0"/>
        <pt x="74" y="631" on="0"/>
        <pt x="128" y="682" on="0"/>
        <pt x="206" y="710" on="0"/>
      </contour>
    </TTGlyph>
    <TTGlyph name="afii10055" xMin="90" yMin="0" xMax="190" yMax="700">
      <contour>
        <pt x="90" y="700" on="1"/>
        <pt x="190" y="700" on="1"/>
        <pt x="190" y="0" on="1"/>
        <pt x="90" y="0" on="1"/>
      </contour>
    </TTGlyph>
    <TTGlyph name="afii10056" xMin="-25" yMin="0" xMax="275" yMax="900">
      <contour>
        <pt x="80" y="700" on="1"/>
        <pt x="180" y="700" on="1"/>
        <pt x="180" y="0" on="1"/>
        <pt x="80" y="0" on="1"/>
      </contour>
      <contour>
        <pt x="95" y="840" on="1"/>
        <pt x="95" y="814" on="0"/>
        <pt x="61" y="780" on="0"/>
        <pt x="35" y="780" on="1"/>
        <pt x="9" y="780" on="0"/>
        <pt x="-25" y="814" on="0"/>
        <pt x="-25" y="840" on="1"/>
        <pt x="-25" y="866" on="0"/>
        <pt x="9" y="900" on="0"/>
        <pt x="35" y="900" on="1"/>
        <pt x="61" y="900" on="0"/>
        <pt x="95" y="866" on="0"/>
      </contour>
      <contour>
        <pt x="275" y="840" on="1"/>
        <pt x="275" y="814" on="0"/>
        <pt x="241" y="780" on="0"/>
        <pt x="215" y="780" on="1"/>
        <pt x="189" y="780" on="0"/>
        <pt x="155" y="814" on="0"/>
        <pt x="155" y="840" on="1"/>
        <pt x="155" y="866" on="0"/>
        <pt x="189" y="900" on="0"/>
        <pt x="215" y="900" on="1"/>
        <pt x="241" y="900" on="0"/>
        <pt x="275" y="866" on="0"/>
      </contour>
    </TTGlyph>
    <TTGlyph name="afii10057" xMin="0" yMin="-10" xMax="340" yMax="700">
      <contour>
        <pt x="125" y="60" on="1"/>
        <pt x="182" y="60" on="0"/>
        <pt x="240" y="122" on="0"/>
        <pt x="240" y="190" on="1"/>
        <pt x="240" y="700" on="1"/>
        <pt x="340" y="700" on="1"/>
        <pt x="340" y="190" on="1"/>
        <pt x="340" y="92" on="0"/>
        <pt x="237" y="-10" on="0"/>
        <pt x="135" y="-10" on="1"/>
        <pt x="105" y="-10" on="0"/>
        <pt x="55" y="4" on="0"/>
        <pt x="37" y="12" on="1"/>
        <pt x="16" y="22" on="0"/>
        <pt x="0" y="35" on="1"/>
        <pt x="30" y="100" on="1"/>
        <pt x="40" y="100" on="1"/>
        <pt x="52" y="89" on="0"/>
        <pt x="66" y="80" on="1"/>
        <pt x="78" y="72" on="0"/>
        <pt x="108" y="60" on="0"/>
      </contour>
    </TTGlyph>
    <TTGlyph name="afii10058" xMin="10" yMin="-10" xMax="846" yMax="700">
      <contour>
        <pt x="601" y="440" on="1"/>
        <pt x="726" y="440" on="0"/>
        <pt x="846" y="326" on="0"/>
        <pt x="846" y="220" on="1"/>
        <pt x="846" y="114" on="0"/>
        <pt x="726" y="0" on="0"/>
        <pt x="601" y="0" on="1"/>
        <pt x="410" y="0" on="1"/>
        <pt x="410" y="630" on="1"/>
        <pt x="225" y="630" on="1"/>
        <pt x="200" y="160" on="1"/>
        <pt x="195" y="73" on="0"/>
        <pt x="122" y="-10" on="0"/>
        <pt x="65" y="-10" on="1"/>
        <pt x="43" y="-10" on="0"/>
        <pt x="26" y="-5" on="1"/>
        <pt x="17" y="-3" on="0"/>
        <pt x="10" y="0" on="1"/>
        <pt x="15" y="65" on="1"/>
        <pt x="25" y="65" on="1"/>
        <pt x="27" y="63" on="0"/>
        <pt x="31" y="62" on="1"/>
        <pt x="39" y="60" on="0"/>
        <pt x="45" y="60" on="1"/>
        <pt x="64" y="60" on="0"/>
        <pt x="97" y="104" on="0"/>
        <pt x="100" y="160" on="1"/>
        <pt x="130" y="700" on="1"/>
        <pt x="511" y="700" on="1"/>
        <pt x="511" y="440" on="1"/>
      </contour>
      <contour>
        <pt x="511" y="370" on="1"/>
        <pt x="511" y="70" on="1"/>
        <pt x="601" y="70" on="1"/>
        <pt x="746" y="70" on="0"/>
        <pt x="746" y="220" on="1"/>
        <pt x="746" y="370" on="0"/>
        <pt x="601" y="370" on="1"/>
      </contour>
    </TTGlyph>
    <TTGlyph name="afii10059" xMin="90" yMin="0" xMax="865" yMax="700">
      <contour>
        <pt x="620" y="420" on="1"/>
        <pt x="744" y="420" on="0"/>
        <pt x="865" y="307" on="0"/>
        <pt x="865" y="210" on="1"/>
        <pt x="865" y="112" on="0"/>
        <pt x="744" y="0" on="0"/>
        <pt x="620" y="0" on="1"/>
        <pt x="430" y="0" on="1"/>
        <pt x="430" y="350" on="1"/>
        <pt x="190" y="350" on="1"/>
        <pt x="190" y="0" on="1"/>
        <pt x="90" y="0" on="1"/>
        <pt x="90" y="700" on="1"/>
        <pt x="190" y="700" on="1"/>
        <pt x="190" y="420" on="1"/>
        <pt x="430" y="420" on="1"/>
        <pt x="430" y="700" on="1"/>
        <pt x="530" y="700" on="1"/>
        <pt x="530" y="420" on="1"/>
      </contour>
      <contour>
        <pt x="530" y="350" on="1"/>
        <pt x="530" y="70" on="1"/>
        <pt x="620" y="70" on="1"/>
        <pt x="692" y="70" on="0"/>
        <pt x="765" y="142" on="0"/>
        <pt x="765" y="210" on="1"/>
        <pt x="765" y="278" on="0"/>
        <pt x="692" y="350" on="0"/>
        <pt x="620" y="350" on="1"/>
      </contour>
    </TTGlyph>
    <TTGlyph name="afii10060" xMin="0" yMin="0" xMax="590" yMax="700">
      <contour>
        <pt x="240" y="0" on="1"/>
        <pt x="140" y="0" on="1"/>
        <pt x="140" y="630" on="1"/>
        <pt x="0" y="630" on="1"/>
        <pt x="0" y="700" on="1"/>
        <pt x="420" y="700" on="1"/>
        <pt x="420" y="630" on="1"/>
        <pt x="240" y="630" on="1"/>
        <pt x="240" y="435" on="1"/>
        <pt x="258" y="438" on="0"/>
        <pt x="280" y="442" on="1"/>
        <pt x="299" y="445" on="0"/>
        <pt x="350" y="450" on="0"/>
        <pt x="380" y="450" on="1"/>
        <pt x="429" y="450" on="0"/>
        <pt x="507" y="421" on="0"/>
        <pt x="561" y="370" on="0"/>
        <pt x="590" y="298" on="0"/>
        <pt x="590" y="255" on="1"/>
        <pt x="590" y="0" on="1"/>
        <pt x="490" y="0" on="1"/>
        <pt x="490" y="255" on="1"/>
        <pt x="490" y="312" on="0"/>
        <pt x="419" y="380" on="0"/>
        <pt x="355" y="380" on="1"/>
        <pt x="330" y="380" on="0"/>
        <pt x="289" y="375" on="0"/>
        <pt x="273" y="372" on="1"/>
        <pt x="255" y="368" on="0"/>
        <pt x="240" y="365" on="1"/>
      </contour>
    </TTGlyph>
    <TTGlyph name="afii10061" xMin="90" yMin="-10" xMax="560" yMax="890">
      <contour>
        <pt x="405" y="890" on="1"/>
        <pt x="315" y="740" on="1"/>
        <pt x="250" y="740" on="1"/>
        <pt x="295" y="890" on="1"/>
      </contour>
      <contour>
        <pt x="350" y="365" on="1"/>
        <pt x="373" y="359" on="0"/>
        <pt x="393" y="347" on="1"/>
        <pt x="410" y="336" on="0"/>
        <pt x="442" y="297" on="0"/>
        <pt x="450" y="265" on="1"/>
        <pt x="485" y="105" on="1"/>
        <pt x="495" y="60" on="0"/>
        <pt x="525" y="60" on="1"/>
        <pt x="531" y="60" on="0"/>
        <pt x="539" y="62" on="1"/>
        <pt x="543" y="63" on="0"/>
        <pt x="545" y="65" on="1"/>
        <pt x="550" y="65" on="1"/>
        <pt x="560" y="0" on="1"/>
        <pt x="554" y="-3" on="0"/>
        <pt x="545" y="-5" on="1"/>
        <pt x="528" y="-10" on="0"/>
        <pt x="500" y="-10" on="1"/>
        <pt x="451" y="-10" on="0"/>
        <pt x="395" y="45" on="0"/>
        <pt x="385" y="90" on="1"/>
        <pt x="350" y="250" on="1"/>
        <pt x="342" y="284" on="0"/>
        <pt x="298" y="325" on="0"/>
        <pt x="260" y="325" on="1"/>
        <pt x="190" y="325" on="1"/>
        <pt x="190" y="0" on="1"/>
        <pt x="90" y="0" on="1"/>
        <pt x="90" y="700" on="1"/>
        <pt x="190" y="700" on="1"/>
        <pt x="190" y="395" on="1"/>
        <pt x="250" y="395" on="1"/>
        <pt x="292" y="395" on="0"/>
        <pt x="339" y="436" on="0"/>
        <pt x="345" y="470" on="1"/>
        <pt x="370" y="610" on="1"/>
        <pt x="378" y="655" on="0"/>
        <pt x="436" y="710" on="0"/>
        <pt x="485" y="710" on="1"/>
        <pt x="500" y="710" on="0"/>
        <pt x="522" y="707" on="0"/>
        <pt x="530" y="705" on="1"/>
        <pt x="539" y="702" on="0"/>
        <pt x="545" y="700" on="1"/>
        <pt x="535" y="635" on="1"/>
        <pt x="530" y="635" on="1"/>
        <pt x="528" y="636" on="0"/>
        <pt x="524" y="637" on="1"/>
        <pt x="521" y="638" on="0"/>
        <pt x="514" y="640" on="0"/>
        <pt x="510" y="640" on="1"/>
        <pt x="495" y="640" on="0"/>
        <pt x="474" y="618" on="0"/>
        <pt x="470" y="595" on="1"/>
        <pt x="445" y="455" on="1"/>
        <pt x="440" y="425" on="0"/>
        <pt x="409" y="389" on="0"/>
        <pt x="392" y="380" on="1"/>
        <pt x="373" y="369" on="0"/>
      </contour>
    </TTGlyph>
    <TTGlyph name="afii10062" xMin="10" yMin="-15" xMax="526" yMax="870">
      <contour>
        <pt x="271" y="800" on="1"/>
        <pt x="301" y="800" on="0"/>
        <pt x="331" y="832" on="0"/>
        <pt x="331" y="870" on="1"/>
        <pt x="421" y="870" on="1"/>
        <pt x="421" y="810" on="0"/>
        <pt x="346" y="740" on="0"/>
        <pt x="271" y="740" on="1"/>
        <pt x="196" y="740" on="0"/>
        <pt x="121" y="810" on="0"/>
        <pt x="121" y="870" on="1"/>
        <pt x="211" y="870" on="1"/>
        <pt x="211" y="832" on="0"/>
        <pt x="241" y="800" on="0"/>
      </contour>
      <contour>
        <pt x="261" y="335" on="1"/>
        <pt x="265" y="325" on="0"/>
        <pt x="273" y="300" on="0"/>
        <pt x="276" y="288" on="1"/>
        <pt x="283" y="260" on="1"/>
        <pt x="287" y="260" on="1"/>
        <pt x="289" y="274" on="0"/>
        <pt x="293" y="288" on="1"/>
        <pt x="296" y="299" on="0"/>
        <pt x="303" y="325" on="0"/>
        <pt x="306" y="335" on="1"/>
        <pt x="426" y="700" on="1"/>
        <pt x="526" y="700" on="1"/>
        <pt x="341" y="125" on="1"/>
        <pt x="332" y="97" on="0"/>
        <pt x="299" y="46" on="0"/>
        <pt x="254" y="8" on="0"/>
        <pt x="198" y="-15" on="0"/>
        <pt x="166" y="-15" on="1"/>
        <pt x="141" y="-15" on="0"/>
        <pt x="103" y="-6" on="0"/>
        <pt x="89" y="0" on="1"/>
        <pt x="73" y="6" on="0"/>
        <pt x="61" y="15" on="1"/>
        <pt x="86" y="80" on="1"/>
        <pt x="96" y="80" on="1"/>
        <pt x="103" y="72" on="0"/>
        <pt x="113" y="67" on="1"/>
        <pt x="121" y="62" on="0"/>
        <pt x="142" y="55" on="0"/>
        <pt x="156" y="55" on="1"/>
        <pt x="186" y="55" on="0"/>
        <pt x="231" y="95" on="0"/>
        <pt x="241" y="125" on="1"/>
        <pt x="261" y="185" on="1"/>
        <pt x="216" y="185" on="1"/>
        <pt x="10" y="700" on="1"/>
        <pt x="115" y="700" on="1"/>
      </contour>
    </TTGlyph>
    <TTGlyph name="afii10065" xMin="45" yMin="-10" xMax="440" yMax="510">
      <contour>
        <pt x="340" y="320" on="1"/>
        <pt x="340" y="380" on="0"/>
        <pt x="284" y="440" on="0"/>
        <pt x="235" y="440" on="1"/>
        <pt x="212" y="440" on="0"/>
        <pt x="172" y="425" on="0"/>
        <pt x="157" y="417" on="1"/>
        <pt x="139" y="407" on="0"/>
        <pt x="125" y="395" on="1"/>
        <pt x="115" y="395" on="1"/>
        <pt x="80" y="455" on="1"/>
        <pt x="99" y="470" on="0"/>
        <pt x="125" y="482" on="1"/>
        <pt x="147" y="493" on="0"/>
        <pt x="207" y="510" on="0"/>
        <pt x="245" y="510" on="1"/>
        <pt x="288" y="510" on="0"/>
        <pt x="360" y="482" on="0"/>
        <pt x="411" y="431" on="0"/>
        <pt x="440" y="361" on="0"/>
        <pt x="440" y="320" on="1"/>
        <pt x="440" y="0" on="1"/>
        <pt x="370" y="0" on="1"/>
        <pt x="360" y="60" on="1"/>
        <pt x="355" y="60" on="1"/>
        <pt x="341" y="40" on="0"/>
        <pt x="320" y="25" on="1"/>
        <pt x="302" y="11" on="0"/>
        <pt x="248" y="-10" on="0"/>
        <pt x="210" y="-10" on="1"/>
        <pt x="131" y="-10" on="0"/>
        <pt x="45" y="73" on="0"/>
        <pt x="45" y="145" on="1"/>
        <pt x="45" y="179" on="0"/>
        <pt x="69" y="234" on="0"/>
        <pt x="120" y="273" on="0"/>
        <pt x="202" y="295" on="0"/>
        <pt x="260" y="295" on="1"/>
        <pt x="340" y="295" on="1"/>
      </contour>
      <contour>
        <pt x="340" y="225" on="1"/>
        <pt x="260" y="225" on="1"/>
        <pt x="200" y="225" on="0"/>
        <pt x="145" y="179" on="0"/>
        <pt x="145" y="145" on="1"/>
        <pt x="145" y="107" on="0"/>
        <pt x="190" y="65" on="0"/>
        <pt x="235" y="65" on="1"/>
        <pt x="258" y="65" on="0"/>
        <pt x="296" y="84" on="0"/>
        <pt x="310" y="95" on="1"/>
        <pt x="327" y="108" on="0"/>
        <pt x="340" y="125" on="1"/>
      </contour>
    </TTGlyph>
    <TTGlyph name="afii10066" xMin="55" yMin="-10" xMax="475" yMax="715">
      <contour>
        <pt x="330" y="605" on="1"/>
        <pt x="281" y="596" on="0"/>
        <pt x="211" y="565" on="0"/>
        <pt x="166" y="514" on="0"/>
        <pt x="145" y="441" on="0"/>
        <pt x="145" y="390" on="1"/>
        <pt x="168" y="428" on="0"/>
        <pt x="241" y="470" on="0"/>
        <pt x="290" y="470" on="1"/>
        <pt x="327" y="470" on="0"/>
        <pt x="395" y="439" on="0"/>
        <pt x="445" y="378" on="0"/>
        <pt x="475" y="288" on="0"/>
        <pt x="475" y="230" on="1"/>
        <pt x="475" y="172" on="0"/>
        <pt x="445" y="82" on="0"/>
        <pt x="389" y="21" on="0"/>
        <pt x="312" y="-10" on="0"/>
        <pt x="265" y="-10" on="1"/>
        <pt x="218" y="-10" on="0"/>
        <pt x="141" y="21" on="0"/>
        <pt x="85" y="82" on="0"/>
        <pt x="55" y="172" on="0"/>
        <pt x="55" y="230" on="1"/>
        <pt x="55" y="325" on="1"/>
        <pt x="55" y="421" on="0"/>
        <pt x="86" y="550" on="0"/>
        <pt x="149" y="633" on="0"/>
        <pt x="247" y="678" on="0"/>
        <pt x="315" y="690" on="1"/>
        <pt x="455" y="715" on="1"/>
        <pt x="470" y="630" on="1"/>
      </contour>
      <contour>
        <pt x="265" y="395" on="1"/>
        <pt x="220" y="395" on="0"/>
        <pt x="155" y="316" on="0"/>
        <pt x="155" y="230" on="1"/>
        <pt x="155" y="140" on="0"/>
        <pt x="220" y="60" on="0"/>
        <pt x="265" y="60" on="1"/>
        <pt x="310" y="60" on="0"/>
        <pt x="375" y="140" on="0"/>
        <pt x="375" y="230" on="1"/>
        <pt x="375" y="316" on="0"/>
        <pt x="310" y="395" on="0"/>
      </contour>
    </TTGlyph>
    <TTGlyph name="afii10067" xMin="75" yMin="0" xMax="465" yMax="500">
      <contour>
        <pt x="350" y="260" on="1"/>
        <pt x="381" y="254" on="0"/>
        <pt x="407" y="239" on="1"/>
        <pt x="429" y="225" on="0"/>
        <pt x="465" y="177" on="0"/>
        <pt x="465" y="135" on="1"/>
        <pt x="465" y="107" on="0"/>
        <pt x="442" y="58" on="0"/>
        <pt x="393" y="21" on="0"/>
        <pt x="317" y="0" on="0"/>
        <pt x="265" y="0" on="1"/>
        <pt x="75" y="0" on="1"/>
        <pt x="75" y="500" on="1"/>
        <pt x="265" y="500" on="1"/>
        <pt x="310" y="500" on="0"/>
        <pt x="377" y="479" on="0"/>
        <pt x="422" y="443" on="0"/>
        <pt x="445" y="396" on="0"/>
        <pt x="445" y="370" on="1"/>
        <pt x="445" y="336" on="0"/>
        <pt x="415" y="293" on="0"/>
        <pt x="397" y="281" on="1"/>
        <pt x="376" y="267" on="0"/>
      </contour>
      <contour>
        <pt x="175" y="430" on="1"/>
        <pt x="175" y="290" on="1"/>
        <pt x="265" y="290" on="1"/>
        <pt x="303" y="290" on="0"/>
        <pt x="345" y="330" on="0"/>
        <pt x="345" y="360" on="1"/>
        <pt x="345" y="390" on="0"/>
        <pt x="303" y="430" on="0"/>
        <pt x="265" y="430" on="1"/>
      </contour>
      <contour>
        <pt x="175" y="220" on="1"/>
        <pt x="175" y="70" on="1"/>
        <pt x="265" y="70" on="1"/>
        <pt x="318" y="70" on="0"/>
        <pt x="365" y="111" on="0"/>
        <pt x="365" y="145" on="1"/>
        <pt x="365" y="179" on="0"/>
        <pt x="318" y="220" on="0"/>
        <pt x="265" y="220" on="1"/>
      </contour>
    </TTGlyph>
    <TTGlyph name="afii10068" xMin="75" yMin="0" xMax="405" yMax="500">
      <contour>
        <pt x="405" y="430" on="1"/>
        <pt x="175" y="430" on="1"/>
        <pt x="175" y="0" on="1"/>
        <pt x="75" y="0" on="1"/>
        <pt x="75" y="500" on="1"/>
        <pt x="405" y="500" on="1"/>
      </contour>
    </TTGlyph>
    <TTGlyph name="afii10069" xMin="5" yMin="-140" xMax="525" yMax="500">
      <contour>
        <pt x="460" y="500" on="1"/>
        <pt x="460" y="70" on="1"/>
        <pt x="525" y="70" on="1"/>
        <pt x="525" y="-140" on="1"/>
        <pt x="445" y="-140" on="1"/>
        <pt x="430" y="0" on="1"/>
        <pt x="105" y="0" on="1"/>
        <pt x="90" y="-140" on="1"/>
        <pt x="5" y="-140" on="1"/>
        <pt x="5" y="70" on="1"/>
        <pt x="55" y="70" on="1"/>
        <pt x="70" y="86" on="0"/>
        <pt x="81" y="109" on="1"/>
        <pt x="91" y="129" on="0"/>
        <pt x="108" y="184" on="0"/>
        <pt x="110" y="220" on="1"/>
        <pt x="125" y="500" on="1"/>
      </contour>
      <contour>
        <pt x="360" y="70" on="1"/>
        <pt x="360" y="430" on="1"/>
        <pt x="220" y="430" on="1"/>
        <pt x="210" y="220" on="1"/>
        <pt x="208" y="184" on="0"/>
        <pt x="191" y="129" on="0"/>
        <pt x="181" y="109" on="1"/>
        <pt x="170" y="86" on="0"/>
        <pt x="155" y="70" on="1"/>
      </contour>
    </TTGlyph>
    <TTGlyph name="afii10070" xMin="50" yMin="-10" xMax="460" yMax="510">
      <contour>
        <pt x="255" y="510" on="1"/>
        <pt x="300" y="510" on="0"/>
        <pt x="375" y="478" on="0"/>
        <pt x="430" y="413" on="0"/>
        <pt x="460" y="316" on="0"/>
        <pt x="460" y="250" on="1"/>
        <pt x="460" y="235" on="1"/>
        <pt x="440" y="215" on="1"/>
        <pt x="150" y="215" on="1"/>
        <pt x="150" y="136" on="0"/>
        <pt x="220" y="60" on="0"/>
        <pt x="280" y="60" on="1"/>
        <pt x="303" y="60" on="0"/>
        <pt x="342" y="74" on="0"/>
        <pt x="357" y="82" on="1"/>
        <pt x="375" y="92" on="0"/>
        <pt x="390" y="105" on="1"/>
        <pt x="400" y="105" on="1"/>
        <pt x="435" y="45" on="1"/>
        <pt x="416" y="29" on="0"/>
        <pt x="390" y="17" on="1"/>
        <pt x="368" y="6" on="0"/>
        <pt x="308" y="-10" on="0"/>
        <pt x="270" y="-10" on="1"/>
        <pt x="169" y="-10" on="0"/>
        <pt x="50" y="119" on="0"/>
        <pt x="50" y="250" on="1"/>
        <pt x="50" y="316" on="0"/>
        <pt x="80" y="413" on="0"/>
        <pt x="135" y="478" on="0"/>
        <pt x="210" y="510" on="0"/>
      </contour>
      <contour>
        <pt x="255" y="440" on="1"/>
        <pt x="210" y="440" on="0"/>
        <pt x="150" y="368" on="0"/>
        <pt x="150" y="285" on="1"/>
        <pt x="360" y="285" on="1"/>
        <pt x="360" y="368" on="0"/>
        <pt x="300" y="440" on="0"/>
      </contour>
    </TTGlyph>
    <TTGlyph name="afii10071" xMin="50" yMin="-10" xMax="460" yMax="675">
      <contour>
        <pt x="255" y="510" on="1"/>
        <pt x="300" y="510" on="0"/>
        <pt x="375" y="478" on="0"/>
        <pt x="430" y="413" on="0"/>
        <pt x="460" y="316" on="0"/>
        <pt x="460" y="250" on="1"/>
        <pt x="460" y="235" on="1"/>
        <pt x="440" y="215" on="1"/>
        <pt x="150" y="215" on="1"/>
        <pt x="150" y="136" on="0"/>
        <pt x="220" y="60" on="0"/>
        <pt x="280" y="60" on="1"/>
        <pt x="303" y="60" on="0"/>
        <pt x="342" y="74" on="0"/>
        <pt x="357" y="82" on="1"/>
        <pt x="375" y="92" on="0"/>
        <pt x="390" y="105" on="1"/>
        <pt x="400" y="105" on="1"/>
        <pt x="435" y="45" on="1"/>
        <pt x="416" y="29" on="0"/>
        <pt x="390" y="17" on="1"/>
        <pt x="368" y="6" on="0"/>
        <pt x="308" y="-10" on="0"/>
        <pt x="270" y="-10" on="1"/>
        <pt x="169" y="-10" on="0"/>
        <pt x="50" y="119" on="0"/>
        <pt x="50" y="250" on="1"/>
        <pt x="50" y="316" on="0"/>
        <pt x="80" y="413" on="0"/>
        <pt x="135" y="478" on="0"/>
        <pt x="210" y="510" on="0"/>
      </contour>
      <contour>
        <pt x="255" y="440" on="1"/>
        <pt x="210" y="440" on="0"/>
        <pt x="150" y="368" on="0"/>
        <pt x="150" y="285" on="1"/>
        <pt x="360" y="285" on="1"/>
        <pt x="360" y="368" on="0"/>
        <pt x="300" y="440" on="0"/>
      </contour>
      <contour>
        <pt x="226" y="620" on="1"/>
        <pt x="226" y="596" on="0"/>
        <pt x="195" y="565" on="0"/>
        <pt x="171" y="565" on="1"/>
        <pt x="147" y="565" on="0"/>
        <pt x="116" y="596" on="0"/>
        <pt x="116" y="620" on="1"/>
        <pt x="116" y="644" on="0"/>
        <pt x="147" y="675" on="0"/>
        <pt x="171" y="675" on="1"/>
        <pt x="195" y="675" on="0"/>
        <pt x="226" y="644" on="0"/>
      </contour>
      <contour>
        <pt x="400" y="620" on="1"/>
        <pt x="400" y="596" on="0"/>
        <pt x="369" y="565" on="0"/>
        <pt x="345" y="565" on="1"/>
        <pt x="321" y="565" on="0"/>
        <pt x="290" y="596" on="0"/>
        <pt x="290" y="620" on="1"/>
        <pt x="290" y="644" on="0"/>
        <pt x="321" y="675" on="0"/>
        <pt x="345" y="675" on="1"/>
        <pt x="369" y="675" on="0"/>
        <pt x="400" y="644" on="0"/>
      </contour>
    </TTGlyph>
    <TTGlyph name="afii10072" xMin="25" yMin="-10" xMax="715" yMax="510">
      <contour>
        <pt x="615" y="325" on="1"/>
        <pt x="610" y="304" on="0"/>
        <pt x="586" y="279" on="0"/>
        <pt x="560" y="265" on="0"/>
        <pt x="538" y="260" on="0"/>
        <pt x="535" y="260" on="1"/>
        <pt x="537" y="260" on="0"/>
        <pt x="561" y="253" on="0"/>
        <pt x="591" y="237" on="0"/>
        <pt x="619" y="208" on="0"/>
        <pt x="625" y="185" on="1"/>
        <pt x="650" y="90" on="1"/>
        <pt x="657" y="60" on="0"/>
        <pt x="680" y="60" on="1"/>
        <pt x="686" y="60" on="0"/>
        <pt x="694" y="62" on="1"/>
        <pt x="698" y="63" on="0"/>
        <pt x="700" y="65" on="1"/>
        <pt x="705" y="65" on="1"/>
        <pt x="715" y="0" on="1"/>
        <pt x="708" y="-3" on="0"/>
        <pt x="698" y="-5" on="1"/>
        <pt x="680" y="-10" on="0"/>
        <pt x="655" y="-10" on="1"/>
        <pt x="613" y="-10" on="0"/>
        <pt x="566" y="34" on="0"/>
        <pt x="555" y="75" on="1"/>
        <pt x="530" y="170" on="1"/>
        <pt x="524" y="193" on="0"/>
        <pt x="491" y="220" on="0"/>
        <pt x="465" y="220" on="1"/>
        <pt x="420" y="220" on="1"/>
        <pt x="420" y="0" on="1"/>
        <pt x="320" y="0" on="1"/>
        <pt x="320" y="220" on="1"/>
        <pt x="275" y="220" on="1"/>
        <pt x="249" y="220" on="0"/>
        <pt x="216" y="193" on="0"/>
        <pt x="210" y="170" on="1"/>
        <pt x="185" y="75" on="1"/>
        <pt x="174" y="34" on="0"/>
        <pt x="127" y="-10" on="0"/>
        <pt x="85" y="-10" on="1"/>
        <pt x="60" y="-10" on="0"/>
        <pt x="42" y="-5" on="1"/>
        <pt x="32" y="-3" on="0"/>
        <pt x="25" y="0" on="1"/>
        <pt x="35" y="65" on="1"/>
        <pt x="40" y="65" on="1"/>
        <pt x="42" y="63" on="0"/>
        <pt x="46" y="62" on="1"/>
        <pt x="54" y="60" on="0"/>
        <pt x="60" y="60" on="1"/>
        <pt x="82" y="60" on="0"/>
        <pt x="90" y="90" on="1"/>
        <pt x="115" y="185" on="1"/>
        <pt x="121" y="207" on="0"/>
        <pt x="148" y="236" on="0"/>
        <pt x="177" y="252" on="0"/>
        <pt x="202" y="259" on="0"/>
        <pt x="205" y="260" on="1"/>
        <pt x="203" y="260" on="0"/>
        <pt x="181" y="264" on="0"/>
        <pt x="154" y="278" on="0"/>
        <pt x="130" y="304" on="0"/>
        <pt x="125" y="325" on="1"/>
        <pt x="105" y="410" on="1"/>
        <pt x="97" y="440" on="0"/>
        <pt x="75" y="440" on="1"/>
        <pt x="71" y="440" on="0"/>
        <pt x="64" y="438" on="0"/>
        <pt x="61" y="437" on="1"/>
        <pt x="57" y="436" on="0"/>
        <pt x="55" y="435" on="1"/>
        <pt x="50" y="435" on="1"/>
        <pt x="40" y="500" on="1"/>
        <pt x="47" y="502" on="0"/>
        <pt x="57" y="505" on="1"/>
        <pt x="65" y="507" on="0"/>
        <pt x="86" y="510" on="0"/>
        <pt x="100" y="510" on="1"/>
        <pt x="143" y="510" on="0"/>
        <pt x="190" y="467" on="0"/>
        <pt x="200" y="425" on="1"/>
        <pt x="220" y="340" on="1"/>
        <pt x="225" y="317" on="0"/>
        <pt x="256" y="290" on="0"/>
        <pt x="285" y="290" on="1"/>
        <pt x="320" y="290" on="1"/>
        <pt x="320" y="500" on="1"/>
        <pt x="420" y="500" on="1"/>
        <pt x="420" y="290" on="1"/>
        <pt x="455" y="290" on="1"/>
        <pt x="484" y="290" on="0"/>
        <pt x="515" y="317" on="0"/>
        <pt x="520" y="340" on="1"/>
        <pt x="540" y="425" on="1"/>
        <pt x="550" y="467" on="0"/>
        <pt x="597" y="510" on="0"/>
        <pt x="640" y="510" on="1"/>
        <pt x="653" y="510" on="0"/>
        <pt x="675" y="507" on="0"/>
        <pt x="683" y="505" on="1"/>
        <pt x="693" y="502" on="0"/>
        <pt x="700" y="500" on="1"/>
        <pt x="690" y="435" on="1"/>
        <pt x="685" y="435" on="1"/>
        <pt x="683" y="436" on="0"/>
        <pt x="679" y="437" on="1"/>
        <pt x="676" y="438" on="0"/>
        <pt x="669" y="440" on="0"/>
        <pt x="665" y="440" on="1"/>
        <pt x="642" y="440" on="0"/>
        <pt x="635" y="410" on="1"/>
        <pt x="615" y="325" on="1"/>
      </contour>
    </TTGlyph>
    <TTGlyph name="afii10073" xMin="15" yMin="-10" xMax="405" yMax="510">
      <contour>
        <pt x="200" y="510" on="1"/>
        <pt x="251" y="510" on="0"/>
        <pt x="324" y="489" on="0"/>
        <pt x="372" y="452" on="0"/>
        <pt x="395" y="403" on="0"/>
        <pt x="395" y="375" on="1"/>
        <pt x="395" y="341" on="0"/>
        <pt x="362" y="297" on="0"/>
        <pt x="342" y="284" on="1"/>
        <pt x="319" y="268" on="0"/>
        <pt x="290" y="260" on="1"/>
        <pt x="321" y="254" on="0"/>
        <pt x="347" y="238" on="1"/>
        <pt x="369" y="224" on="0"/>
        <pt x="405" y="173" on="0"/>
        <pt x="405" y="130" on="1"/>
        <pt x="405" y="100" on="0"/>
        <pt x="382" y="49" on="0"/>
        <pt x="332" y="11" on="0"/>
        <pt x="254" y="-10" on="0"/>
        <pt x="200" y="-10" on="1"/>
        <pt x="155" y="-10" on="0"/>
        <pt x="85" y="6" on="0"/>
        <pt x="62" y="17" on="1"/>
        <pt x="35" y="29" on="0"/>
        <pt x="15" y="45" on="1"/>
        <pt x="50" y="105" on="1"/>
        <pt x="60" y="105" on="1"/>
        <pt x="75" y="92" on="0"/>
        <pt x="95" y="82" on="1"/>
        <pt x="112" y="74" on="0"/>
        <pt x="160" y="60" on="0"/>
        <pt x="190" y="60" on="1"/>
        <pt x="254" y="60" on="0"/>
        <pt x="305" y="102" on="0"/>
        <pt x="305" y="140" on="1"/>
        <pt x="305" y="178" on="0"/>
        <pt x="258" y="220" on="0"/>
        <pt x="205" y="220" on="1"/>
        <pt x="120" y="220" on="1"/>
        <pt x="120" y="290" on="1"/>
        <pt x="205" y="290" on="1"/>
        <pt x="250" y="290" on="0"/>
        <pt x="295" y="331" on="0"/>
        <pt x="295" y="365" on="1"/>
        <pt x="295" y="399" on="0"/>
        <pt x="247" y="440" on="0"/>
        <pt x="190" y="440" on="1"/>
        <pt x="164" y="440" on="0"/>
        <pt x="121" y="425" on="0"/>
        <pt x="106" y="417" on="1"/>
        <pt x="88" y="407" on="0"/>
        <pt x="75" y="395" on="1"/>
        <pt x="65" y="395" on="1"/>
        <pt x="30" y="455" on="1"/>
        <pt x="48" y="470" on="0"/>
        <pt x="74" y="482" on="1"/>
        <pt x="96" y="493" on="0"/>
        <pt x="158" y="510" on="0"/>
      </contour>
    </TTGlyph>
    <TTGlyph name="afii10074" xMin="75" yMin="0" xMax="475" yMax="500">
      <contour>
        <pt x="175" y="0" on="1"/>
        <pt x="75" y="0" on="1"/>
        <pt x="75" y="500" on="1"/>
        <pt x="175" y="500" on="1"/>
        <pt x="175" y="215" on="1"/>
        <pt x="175" y="204" on="0"/>
        <pt x="174" y="180" on="0"/>
        <pt x="173" y="169" on="1"/>
        <pt x="172" y="157" on="0"/>
        <pt x="171" y="145" on="1"/>
        <pt x="175" y="145" on="1"/>
        <pt x="179" y="157" on="0"/>
        <pt x="183" y="169" on="1"/>
        <pt x="191" y="192" on="0"/>
        <pt x="205" y="215" on="1"/>
        <pt x="375" y="500" on="1"/>
        <pt x="475" y="500" on="1"/>
        <pt x="475" y="0" on="1"/>
        <pt x="375" y="0" on="1"/>
        <pt x="375" y="285" on="1"/>
        <pt x="375" y="296" on="0"/>
        <pt x="376" y="320" on="0"/>
        <pt x="377" y="331" on="1"/>
        <pt x="378" y="343" on="0"/>
        <pt x="379" y="355" on="1"/>
        <pt x="375" y="355" on="1"/>
        <pt x="371" y="343" on="0"/>
        <pt x="367" y="331" on="1"/>
        <pt x="359" y="308" on="0"/>
        <pt x="345" y="285" on="1"/>
      </contour>
    </TTGlyph>
    <TTGlyph name="afii10075" xMin="75" yMin="0" xMax="475" yMax="680">
      <contour>
        <pt x="175" y="0" on="1"/>
        <pt x="75" y="0" on="1"/>
        <pt x="75" y="500" on="1"/>
        <pt x="175" y="500" on="1"/>
        <pt x="175" y="215" on="1"/>
        <pt x="175" y="204" on="0"/>
        <pt x="174" y="180" on="0"/>
        <pt x="173" y="169" on="1"/>
        <pt x="172" y="157" on="0"/>
        <pt x="171" y="145" on="1"/>
        <pt x="175" y="145" on="1"/>
        <pt x="179" y="157" on="0"/>
        <pt x="183" y="169" on="1"/>
        <pt x="191" y="192" on="0"/>
        <pt x="205" y="215" on="1"/>
        <pt x="375" y="500" on="1"/>
        <pt x="475" y="500" on="1"/>
        <pt x="475" y="0" on="1"/>
        <pt x="375" y="0" on="1"/>
        <pt x="375" y="285" on="1"/>
        <pt x="375" y="296" on="0"/>
        <pt x="376" y="320" on="0"/>
        <pt x="377" y="331" on="1"/>
        <pt x="378" y="343" on="0"/>
        <pt x="379" y="355" on="1"/>
        <pt x="375" y="355" on="1"/>
        <pt x="371" y="343" on="0"/>
        <pt x="367" y="331" on="1"/>
        <pt x="359" y="308" on="0"/>
        <pt x="345" y="285" on="1"/>
      </contour>
      <contour>
        <pt x="275" y="610" on="1"/>
        <pt x="305" y="610" on="0"/>
        <pt x="335" y="642" on="0"/>
        <pt x="335" y="680" on="1"/>
        <pt x="425" y="680" on="1"/>
        <pt x="425" y="620" on="0"/>
        <pt x="350" y="550" on="0"/>
        <pt x="275" y="550" on="1"/>
        <pt x="200" y="550" on="0"/>
        <pt x="125" y="620" on="0"/>
        <pt x="125" y="680" on="1"/>
        <pt x="215" y="680" on="1"/>
        <pt x="215" y="642" on="0"/>
        <pt x="245" y="610" on="0"/>
      </contour>
    </TTGlyph>
    <TTGlyph name="afii10076" xMin="75" yMin="-10" xMax="485" yMax="510">
      <contour>
        <pt x="305" y="260" on="1"/>
        <pt x="326" y="257" on="0"/>
        <pt x="344" y="247" on="1"/>
        <pt x="359" y="239" on="0"/>
        <pt x="388" y="209" on="0"/>
        <pt x="395" y="185" on="1"/>
        <pt x="420" y="90" on="1"/>
        <pt x="427" y="60" on="0"/>
        <pt x="450" y="60" on="1"/>
        <pt x="456" y="60" on="0"/>
        <pt x="464" y="62" on="1"/>
        <pt x="468" y="63" on="0"/>
        <pt x="470" y="65" on="1"/>
        <pt x="475" y="65" on="1"/>
        <pt x="485" y="0" on="1"/>
        <pt x="478" y="-3" on="0"/>
        <pt x="468" y="-5" on="1"/>
        <pt x="450" y="-10" on="0"/>
        <pt x="425" y="-10" on="1"/>
        <pt x="383" y="-10" on="0"/>
        <pt x="336" y="34" on="0"/>
        <pt x="325" y="75" on="1"/>
        <pt x="300" y="170" on="1"/>
        <pt x="294" y="193" on="0"/>
        <pt x="261" y="220" on="0"/>
        <pt x="235" y="220" on="1"/>
        <pt x="175" y="220" on="1"/>
        <pt x="175" y="0" on="1"/>
        <pt x="75" y="0" on="1"/>
        <pt x="75" y="500" on="1"/>
        <pt x="175" y="500" on="1"/>
        <pt x="175" y="290" on="1"/>
        <pt x="225" y="290" on="1"/>
        <pt x="254" y="290" on="0"/>
        <pt x="285" y="317" on="0"/>
        <pt x="290" y="340" on="1"/>
        <pt x="310" y="425" on="1"/>
        <pt x="320" y="467" on="0"/>
        <pt x="367" y="510" on="0"/>
        <pt x="410" y="510" on="1"/>
        <pt x="423" y="510" on="0"/>
        <pt x="445" y="507" on="0"/>
        <pt x="453" y="505" on="1"/>
        <pt x="463" y="502" on="0"/>
        <pt x="470" y="500" on="1"/>
        <pt x="460" y="435" on="1"/>
        <pt x="455" y="435" on="1"/>
        <pt x="453" y="436" on="0"/>
        <pt x="449" y="437" on="1"/>
        <pt x="446" y="438" on="0"/>
        <pt x="439" y="440" on="0"/>
        <pt x="435" y="440" on="1"/>
        <pt x="412" y="440" on="0"/>
        <pt x="405" y="410" on="1"/>
        <pt x="385" y="325" on="1"/>
        <pt x="380" y="302" on="0"/>
        <pt x="354" y="277" on="0"/>
        <pt x="340" y="270" on="1"/>
        <pt x="324" y="262" on="0"/>
      </contour>
    </TTGlyph>
    <TTGlyph name="afii10077" xMin="10" yMin="-10" xMax="465" yMax="500">
      <contour>
        <pt x="45" y="60" on="1"/>
        <pt x="64" y="60" on="0"/>
        <pt x="91" y="100" on="0"/>
        <pt x="95" y="160" on="1"/>
        <pt x="115" y="500" on="1"/>
        <pt x="465" y="500" on="1"/>
        <pt x="465" y="0" on="1"/>
        <pt x="365" y="0" on="1"/>
        <pt x="365" y="430" on="1"/>
        <pt x="210" y="430" on="1"/>
        <pt x="195" y="160" on="1"/>
        <pt x="190" y="70" on="0"/>
        <pt x="121" y="-10" on="0"/>
        <pt x="65" y="-10" on="1"/>
        <pt x="43" y="-10" on="0"/>
        <pt x="26" y="-5" on="1"/>
        <pt x="17" y="-3" on="0"/>
        <pt x="10" y="0" on="1"/>
        <pt x="15" y="65" on="1"/>
        <pt x="25" y="65" on="1"/>
        <pt x="27" y="63" on="0"/>
        <pt x="31" y="62" on="1"/>
        <pt x="39" y="60" on="0"/>
      </contour>
    </TTGlyph>
    <TTGlyph name="afii10078" xMin="75" yMin="0" xMax="625" yMax="500">
      <contour>
        <pt x="300" y="85" on="1"/>
        <pt x="205" y="265" on="1"/>
        <pt x="192" y="289" on="0"/>
        <pt x="184" y="312" on="1"/>
        <pt x="179" y="324" on="0"/>
        <pt x="175" y="335" on="1"/>
        <pt x="171" y="335" on="1"/>
        <pt x="172" y="323" on="0"/>
        <pt x="173" y="311" on="1"/>
        <pt x="174" y="300" on="0"/>
        <pt x="175" y="276" on="0"/>
        <pt x="175" y="265" on="1"/>
        <pt x="175" y="0" on="1"/>
        <pt x="75" y="0" on="1"/>
        <pt x="75" y="500" on="1"/>
        <pt x="180" y="500" on="1"/>
        <pt x="330" y="220" on="1"/>
        <pt x="338" y="207" on="0"/>
        <pt x="343" y="194" on="1"/>
        <pt x="346" y="187" on="0"/>
        <pt x="348" y="180" on="1"/>
        <pt x="352" y="180" on="1"/>
        <pt x="354" y="187" on="0"/>
        <pt x="357" y="194" on="1"/>
        <pt x="362" y="207" on="0"/>
        <pt x="370" y="220" on="1"/>
        <pt x="520" y="500" on="1"/>
        <pt x="625" y="500" on="1"/>
        <pt x="625" y="0" on="1"/>
        <pt x="525" y="0" on="1"/>
        <pt x="525" y="265" on="1"/>
        <pt x="525" y="276" on="0"/>
        <pt x="526" y="300" on="0"/>
        <pt x="527" y="311" on="1"/>
        <pt x="528" y="323" on="0"/>
        <pt x="529" y="335" on="1"/>
        <pt x="525" y="335" on="1"/>
        <pt x="520" y="324" on="0"/>
        <pt x="516" y="312" on="1"/>
        <pt x="511" y="301" on="0"/>
        <pt x="501" y="276" on="0"/>
        <pt x="495" y="265" on="1"/>
        <pt x="400" y="85" on="1"/>
      </contour>
    </TTGlyph>
    <TTGlyph name="afii10079" xMin="75" yMin="0" xMax="475" yMax="500">
      <contour>
        <pt x="475" y="0" on="1"/>
        <pt x="375" y="0" on="1"/>
        <pt x="375" y="220" on="1"/>
        <pt x="175" y="220" on="1"/>
        <pt x="175" y="0" on="1"/>
        <pt x="75" y="0" on="1"/>
        <pt x="75" y="500" on="1"/>
        <pt x="175" y="500" on="1"/>
        <pt x="175" y="290" on="1"/>
        <pt x="375" y="290" on="1"/>
        <pt x="375" y="500" on="1"/>
        <pt x="475" y="500" on="1"/>
      </contour>
    </TTGlyph>
    <TTGlyph name="afii10080" xMin="50" yMin="-10" xMax="480" yMax="510">
      <contour>
        <pt x="480" y="250" on="1"/>
        <pt x="480" y="184" on="0"/>
        <pt x="449" y="87" on="0"/>
        <pt x="393" y="22" on="0"/>
        <pt x="314" y="-10" on="0"/>
        <pt x="265" y="-10" on="1"/>
        <pt x="167" y="-10" on="0"/>
        <pt x="50" y="119" on="0"/>
        <pt x="50" y="250" on="1"/>
        <pt x="50" y="381" on="0"/>
        <pt x="167" y="510" on="0"/>
        <pt x="265" y="510" on="1"/>
        <pt x="314" y="510" on="0"/>
        <pt x="393" y="478" on="0"/>
        <pt x="449" y="413" on="0"/>
        <pt x="480" y="316" on="0"/>
      </contour>
      <contour>
        <pt x="380" y="250" on="1"/>
        <pt x="380" y="302" on="0"/>
        <pt x="362" y="375" on="0"/>
        <pt x="331" y="420" on="0"/>
        <pt x="289" y="440" on="0"/>
        <pt x="265" y="440" on="1"/>
        <pt x="241" y="440" on="0"/>
        <pt x="199" y="420" on="0"/>
        <pt x="168" y="375" on="0"/>
        <pt x="150" y="302" on="0"/>
        <pt x="150" y="250" on="1"/>
        <pt x="150" y="197" on="0"/>
        <pt x="168" y="125" on="0"/>
        <pt x="199" y="80" on="0"/>
        <pt x="241" y="60" on="0"/>
        <pt x="265" y="60" on="1"/>
        <pt x="289" y="60" on="0"/>
        <pt x="331" y="80" on="0"/>
        <pt x="362" y="125" on="0"/>
        <pt x="380" y="197" on="0"/>
      </contour>
    </TTGlyph>
    <TTGlyph name="afii10081" xMin="75" yMin="0" xMax="475" yMax="500">
      <contour>
        <pt x="475" y="0" on="1"/>
        <pt x="375" y="0" on="1"/>
        <pt x="375" y="430" on="1"/>
        <pt x="175" y="430" on="1"/>
        <pt x="175" y="0" on="1"/>
        <pt x="75" y="0" on="1"/>
        <pt x="75" y="500" on="1"/>
        <pt x="475" y="500" on="1"/>
      </contour>
    </TTGlyph>
    <TTGlyph name="afii10082" xMin="75" yMin="-200" xMax="485" yMax="510">
      <contour>
        <pt x="175" y="80" on="1"/>
        <pt x="187" y="74" on="0"/>
        <pt x="202" y="70" on="1"/>
        <pt x="215" y="66" on="0"/>
        <pt x="249" y="60" on="0"/>
        <pt x="270" y="60" on="1"/>
        <pt x="294" y="60" on="0"/>
        <pt x="336" y="80" on="0"/>
        <pt x="367" y="125" on="0"/>
        <pt x="385" y="197" on="0"/>
        <pt x="385" y="250" on="1"/>
        <pt x="385" y="301" on="0"/>
        <pt x="368" y="371" on="0"/>
        <pt x="339" y="415" on="0"/>
        <pt x="301" y="435" on="0"/>
        <pt x="280" y="435" on="1"/>
        <pt x="257" y="435" on="0"/>
        <pt x="219" y="416" on="0"/>
        <pt x="205" y="405" on="1"/>
        <pt x="188" y="392" on="0"/>
        <pt x="175" y="375" on="1"/>
      </contour>
      <contour>
        <pt x="145" y="-200" on="1"/>
        <pt x="75" y="-200" on="1"/>
        <pt x="75" y="500" on="1"/>
        <pt x="145" y="500" on="1"/>
        <pt x="155" y="440" on="1"/>
        <pt x="160" y="440" on="1"/>
        <pt x="174" y="459" on="0"/>
        <pt x="195" y="475" on="1"/>
        <pt x="213" y="488" on="0"/>
        <pt x="267" y="510" on="0"/>
        <pt x="305" y="510" on="1"/>
        <pt x="341" y="510" on="0"/>
        <pt x="406" y="478" on="0"/>
        <pt x="455" y="413" on="0"/>
        <pt x="485" y="316" on="0"/>
        <pt x="485" y="250" on="1"/>
        <pt x="485" y="184" on="0"/>
        <pt x="455" y="87" on="0"/>
        <pt x="401" y="22" on="0"/>
        <pt x="328" y="-10" on="0"/>
        <pt x="285" y="-10" on="1"/>
        <pt x="262" y="-10" on="0"/>
        <pt x="222" y="-1" on="0"/>
        <pt x="207" y="5" on="1"/>
        <pt x="189" y="11" on="0"/>
        <pt x="175" y="20" on="1"/>
        <pt x="175" y="-170" on="1"/>
      </contour>
    </TTGlyph>
    <TTGlyph name="afii10083" xMin="50" yMin="-10" xMax="435" yMax="510">
      <contour>
        <pt x="270" y="440" on="1"/>
        <pt x="244" y="440" on="0"/>
        <pt x="200" y="420" on="0"/>
        <pt x="168" y="375" on="0"/>
        <pt x="150" y="302" on="0"/>
        <pt x="150" y="250" on="1"/>
        <pt x="150" y="145" on="0"/>
        <pt x="220" y="60" on="0"/>
        <pt x="280" y="60" on="1"/>
        <pt x="303" y="60" on="0"/>
        <pt x="342" y="74" on="0"/>
        <pt x="357" y="82" on="1"/>
        <pt x="375" y="92" on="0"/>
        <pt x="390" y="105" on="1"/>
        <pt x="400" y="105" on="1"/>
        <pt x="435" y="45" on="1"/>
        <pt x="416" y="29" on="0"/>
        <pt x="390" y="17" on="1"/>
        <pt x="368" y="6" on="0"/>
        <pt x="308" y="-10" on="0"/>
        <pt x="270" y="-10" on="1"/>
        <pt x="169" y="-10" on="0"/>
        <pt x="50" y="119" on="0"/>
        <pt x="50" y="250" on="1"/>
        <pt x="50" y="316" on="0"/>
        <pt x="80" y="413" on="0"/>
        <pt x="136" y="478" on="0"/>
        <pt x="213" y="510" on="0"/>
        <pt x="260" y="510" on="1"/>
        <pt x="298" y="510" on="0"/>
        <pt x="358" y="493" on="0"/>
        <pt x="380" y="482" on="1"/>
        <pt x="406" y="470" on="0"/>
        <pt x="425" y="455" on="1"/>
        <pt x="390" y="395" on="1"/>
        <pt x="380" y="395" on="1"/>
        <pt x="365" y="407" on="0"/>
        <pt x="347" y="417" on="1"/>
        <pt x="332" y="425" on="0"/>
        <pt x="293" y="440" on="0"/>
      </contour>
    </TTGlyph>
    <TTGlyph name="afii10084" xMin="10" yMin="0" xMax="410" yMax="500">
      <contour>
        <pt x="410" y="430" on="1"/>
        <pt x="260" y="430" on="1"/>
        <pt x="260" y="0" on="1"/>
        <pt x="160" y="0" on="1"/>
        <pt x="160" y="430" on="1"/>
        <pt x="10" y="430" on="1"/>
        <pt x="10" y="500" on="1"/>
        <pt x="410" y="500" on="1"/>
      </contour>
    </TTGlyph>
    <TTGlyph name="afii10085" xMin="15" yMin="-210" xMax="460" yMax="500">
      <contour>
        <pt x="125" y="-140" on="1"/>
        <pt x="151" y="-140" on="0"/>
        <pt x="192" y="-100" on="0"/>
        <pt x="200" y="-70" on="1"/>
        <pt x="220" y="0" on="1"/>
        <pt x="180" y="0" on="1"/>
        <pt x="15" y="500" on="1"/>
        <pt x="115" y="500" on="1"/>
        <pt x="225" y="170" on="1"/>
        <pt x="229" y="159" on="0"/>
        <pt x="236" y="131" on="0"/>
        <pt x="239" y="119" on="1"/>
        <pt x="243" y="105" on="0"/>
        <pt x="246" y="90" on="1"/>
        <pt x="250" y="90" on="1"/>
        <pt x="252" y="105" on="0"/>
        <pt x="256" y="119" on="1"/>
        <pt x="259" y="131" on="0"/>
        <pt x="266" y="159" on="0"/>
        <pt x="269" y="170" on="1"/>
        <pt x="360" y="500" on="1"/>
        <pt x="460" y="500" on="1"/>
        <pt x="300" y="-70" on="1"/>
        <pt x="283" y="-130" on="0"/>
        <pt x="199" y="-210" on="0"/>
        <pt x="135" y="-210" on="1"/>
        <pt x="112" y="-210" on="0"/>
        <pt x="75" y="-201" on="0"/>
        <pt x="62" y="-195" on="1"/>
        <pt x="46" y="-189" on="0"/>
        <pt x="35" y="-180" on="1"/>
        <pt x="60" y="-115" on="1"/>
        <pt x="70" y="-115" on="1"/>
        <pt x="77" y="-123" on="0"/>
        <pt x="86" y="-128" on="1"/>
        <pt x="94" y="-133" on="0"/>
        <pt x="114" y="-140" on="0"/>
      </contour>
    </TTGlyph>
    <TTGlyph name="afii10086" xMin="45" yMin="-200" xMax="635" yMax="700">
      <contour>
        <pt x="390" y="60" on="1"/>
        <pt x="458" y="64" on="0"/>
        <pt x="535" y="152" on="0"/>
        <pt x="535" y="250" on="1"/>
        <pt x="535" y="348" on="0"/>
        <pt x="458" y="436" on="0"/>
        <pt x="390" y="440" on="1"/>
      </contour>
      <contour>
        <pt x="290" y="670" on="1"/>
        <pt x="320" y="700" on="1"/>
        <pt x="390" y="700" on="1"/>
        <pt x="390" y="510" on="1"/>
        <pt x="507" y="506" on="0"/>
        <pt x="635" y="375" on="0"/>
        <pt x="635" y="250" on="1"/>
        <pt x="635" y="125" on="0"/>
        <pt x="507" y="-6" on="0"/>
        <pt x="390" y="-10" on="1"/>
        <pt x="390" y="-200" on="1"/>
        <pt x="290" y="-200" on="1"/>
        <pt x="290" y="-10" on="1"/>
        <pt x="173" y="-6" on="0"/>
        <pt x="45" y="125" on="0"/>
        <pt x="45" y="250" on="1"/>
        <pt x="45" y="375" on="0"/>
        <pt x="173" y="506" on="0"/>
        <pt x="290" y="510" on="1"/>
      </contour>
      <contour>
        <pt x="290" y="440" on="1"/>
        <pt x="222" y="436" on="0"/>
        <pt x="145" y="348" on="0"/>
        <pt x="145" y="250" on="1"/>
        <pt x="145" y="152" on="0"/>
        <pt x="222" y="64" on="0"/>
        <pt x="290" y="60" on="1"/>
      </contour>
    </TTGlyph>
    <TTGlyph name="afii10087" xMin="15" yMin="0" xMax="445" yMax="500">
      <contour>
        <pt x="228" y="185" on="1"/>
        <pt x="226" y="178" on="0"/>
        <pt x="223" y="171" on="1"/>
        <pt x="218" y="158" on="0"/>
        <pt x="210" y="145" on="1"/>
        <pt x="125" y="0" on="1"/>
        <pt x="15" y="0" on="1"/>
        <pt x="170" y="255" on="1"/>
        <pt x="20" y="500" on="1"/>
        <pt x="130" y="500" on="1"/>
        <pt x="210" y="360" on="1"/>
        <pt x="213" y="354" on="0"/>
        <pt x="220" y="340" on="0"/>
        <pt x="222" y="334" on="1"/>
        <pt x="225" y="327" on="0"/>
        <pt x="228" y="320" on="1"/>
        <pt x="232" y="320" on="1"/>
        <pt x="235" y="327" on="0"/>
        <pt x="238" y="334" on="1"/>
        <pt x="240" y="340" on="0"/>
        <pt x="246" y="354" on="0"/>
        <pt x="250" y="360" on="1"/>
        <pt x="330" y="500" on="1"/>
        <pt x="440" y="500" on="1"/>
        <pt x="290" y="255" on="1"/>
        <pt x="445" y="0" on="1"/>
        <pt x="335" y="0" on="1"/>
        <pt x="250" y="145" on="1"/>
        <pt x="242" y="158" on="0"/>
        <pt x="237" y="171" on="1"/>
        <pt x="234" y="178" on="0"/>
        <pt x="232" y="185" on="1"/>
      </contour>
    </TTGlyph>
    <TTGlyph name="afii10088" xMin="75" yMin="-140" xMax="530" yMax="500">
      <contour>
        <pt x="75" y="0" on="1"/>
        <pt x="75" y="500" on="1"/>
        <pt x="175" y="500" on="1"/>
        <pt x="175" y="70" on="1"/>
        <pt x="365" y="70" on="1"/>
        <pt x="365" y="500" on="1"/>
        <pt x="465" y="500" on="1"/>
        <pt x="465" y="70" on="1"/>
        <pt x="530" y="70" on="1"/>
        <pt x="530" y="-140" on="1"/>
        <pt x="450" y="-140" on="1"/>
        <pt x="435" y="0" on="1"/>
      </contour>
    </TTGlyph>
    <TTGlyph name="afii10089" xMin="55" yMin="0" xMax="445" yMax="500">
      <contour>
        <pt x="230" y="170" on="1"/>
        <pt x="191" y="170" on="0"/>
        <pt x="126" y="195" on="0"/>
        <pt x="80" y="239" on="0"/>
        <pt x="55" y="299" on="0"/>
        <pt x="55" y="335" on="1"/>
        <pt x="55" y="500" on="1"/>
        <pt x="155" y="500" on="1"/>
        <pt x="155" y="335" on="1"/>
        <pt x="155" y="293" on="0"/>
        <pt x="210" y="240" on="0"/>
        <pt x="255" y="240" on="1"/>
        <pt x="274" y="240" on="0"/>
        <pt x="307" y="244" on="0"/>
        <pt x="319" y="247" on="1"/>
        <pt x="333" y="251" on="0"/>
        <pt x="345" y="255" on="1"/>
        <pt x="345" y="500" on="1"/>
        <pt x="445" y="500" on="1"/>
        <pt x="445" y="0" on="1"/>
        <pt x="345" y="0" on="1"/>
        <pt x="345" y="185" on="1"/>
        <pt x="330" y="181" on="0"/>
        <pt x="312" y="177" on="1"/>
        <pt x="296" y="174" on="0"/>
        <pt x="254" y="170" on="0"/>
      </contour>
    </TTGlyph>
    <TTGlyph name="afii10090" xMin="75" yMin="0" xMax="715" yMax="500">
      <contour>
        <pt x="715" y="0" on="1"/>
        <pt x="75" y="0" on="1"/>
        <pt x="75" y="500" on="1"/>
        <pt x="175" y="500" on="1"/>
        <pt x="175" y="70" on="1"/>
        <pt x="345" y="70" on="1"/>
        <pt x="345" y="500" on="1"/>
        <pt x="445" y="500" on="1"/>
        <pt x="445" y="70" on="1"/>
        <pt x="615" y="70" on="1"/>
        <pt x="615" y="500" on="1"/>
        <pt x="715" y="500" on="1"/>
      </contour>
    </TTGlyph>
    <TTGlyph name="afii10091" xMin="75" yMin="-140" xMax="780" yMax="500">
      <contour>
        <pt x="75" y="0" on="1"/>
        <pt x="75" y="500" on="1"/>
        <pt x="175" y="500" on="1"/>
        <pt x="175" y="70" on="1"/>
        <pt x="345" y="70" on="1"/>
        <pt x="345" y="500" on="1"/>
        <pt x="445" y="500" on="1"/>
        <pt x="445" y="70" on="1"/>
        <pt x="615" y="70" on="1"/>
        <pt x="615" y="500" on="1"/>
        <pt x="715" y="500" on="1"/>
        <pt x="715" y="70" on="1"/>
        <pt x="780" y="70" on="1"/>
        <pt x="780" y="-140" on="1"/>
        <pt x="700" y="-140" on="1"/>
        <pt x="685" y="0" on="1"/>
      </contour>
    </TTGlyph>
    <TTGlyph name="afii10092" xMin="10" yMin="0" xMax="530" yMax="500">
      <contour>
        <pt x="330" y="330" on="1"/>
        <pt x="435" y="330" on="0"/>
        <pt x="530" y="244" on="0"/>
        <pt x="530" y="165" on="1"/>
        <pt x="530" y="86" on="0"/>
        <pt x="435" y="0" on="0"/>
        <pt x="330" y="0" on="1"/>
        <pt x="140" y="0" on="1"/>
        <pt x="140" y="430" on="1"/>
        <pt x="10" y="430" on="1"/>
        <pt x="10" y="500" on="1"/>
        <pt x="240" y="500" on="1"/>
        <pt x="240" y="330" on="1"/>
      </contour>
      <contour>
        <pt x="240" y="260" on="1"/>
        <pt x="240" y="70" on="1"/>
        <pt x="330" y="70" on="1"/>
        <pt x="383" y="70" on="0"/>
        <pt x="430" y="116" on="0"/>
        <pt x="430" y="165" on="1"/>
        <pt x="430" y="214" on="0"/>
        <pt x="383" y="260" on="0"/>
        <pt x="330" y="260" on="1"/>
      </contour>
    </TTGlyph>
    <TTGlyph name="afii10093" xMin="75" yMin="0" xMax="635" yMax="500">
      <contour>
        <pt x="635" y="0" on="1"/>
        <pt x="535" y="0" on="1"/>
        <pt x="535" y="500" on="1"/>
        <pt x="635" y="500" on="1"/>
      </contour>
      <contour>
        <pt x="255" y="330" on="1"/>
        <pt x="360" y="330" on="0"/>
        <pt x="455" y="244" on="0"/>
        <pt x="455" y="165" on="1"/>
        <pt x="455" y="86" on="0"/>
        <pt x="360" y="0" on="0"/>
        <pt x="255" y="0" on="1"/>
        <pt x="75" y="0" on="1"/>
        <pt x="75" y="500" on="1"/>
        <pt x="175" y="500" on="1"/>
        <pt x="175" y="330" on="1"/>
      </contour>
      <contour>
        <pt x="175" y="260" on="1"/>
        <pt x="175" y="70" on="1"/>
        <pt x="255" y="70" on="1"/>
        <pt x="308" y="70" on="0"/>
        <pt x="355" y="116" on="0"/>
        <pt x="355" y="165" on="1"/>
        <pt x="355" y="214" on="0"/>
        <pt x="308" y="260" on="0"/>
        <pt x="255" y="260" on="1"/>
      </contour>
    </TTGlyph>
    <TTGlyph name="afii10094" xMin="75" yMin="0" xMax="465" yMax="500">
      <contour>
        <pt x="265" y="330" on="1"/>
        <pt x="370" y="330" on="0"/>
        <pt x="465" y="244" on="0"/>
        <pt x="465" y="165" on="1"/>
        <pt x="465" y="86" on="0"/>
        <pt x="370" y="0" on="0"/>
        <pt x="265" y="0" on="1"/>
        <pt x="75" y="0" on="1"/>
        <pt x="75" y="500" on="1"/>
        <pt x="175" y="500" on="1"/>
        <pt x="175" y="330" on="1"/>
      </contour>
      <contour>
        <pt x="175" y="260" on="1"/>
        <pt x="175" y="70" on="1"/>
        <pt x="265" y="70" on="1"/>
        <pt x="318" y="70" on="0"/>
        <pt x="365" y="116" on="0"/>
        <pt x="365" y="165" on="1"/>
        <pt x="365" y="214" on="0"/>
        <pt x="318" y="260" on="0"/>
        <pt x="265" y="260" on="1"/>
      </contour>
    </TTGlyph>
    <TTGlyph name="afii10095" xMin="20" yMin="-10" xMax="405" yMax="510">
      <contour>
        <pt x="185" y="440" on="1"/>
        <pt x="162" y="440" on="0"/>
        <pt x="122" y="425" on="0"/>
        <pt x="107" y="417" on="1"/>
        <pt x="89" y="407" on="0"/>
        <pt x="75" y="395" on="1"/>
        <pt x="65" y="395" on="1"/>
        <pt x="30" y="455" on="1"/>
        <pt x="49" y="470" on="0"/>
        <pt x="75" y="482" on="1"/>
        <pt x="97" y="493" on="0"/>
        <pt x="157" y="510" on="0"/>
        <pt x="195" y="510" on="1"/>
        <pt x="242" y="510" on="0"/>
        <pt x="319" y="478" on="0"/>
        <pt x="375" y="413" on="0"/>
        <pt x="405" y="316" on="0"/>
        <pt x="405" y="250" on="1"/>
        <pt x="405" y="119" on="0"/>
        <pt x="286" y="-10" on="0"/>
        <pt x="185" y="-10" on="1"/>
        <pt x="147" y="-10" on="0"/>
        <pt x="87" y="6" on="0"/>
        <pt x="65" y="17" on="1"/>
        <pt x="39" y="29" on="0"/>
        <pt x="20" y="45" on="1"/>
        <pt x="55" y="105" on="1"/>
        <pt x="65" y="105" on="1"/>
        <pt x="79" y="92" on="0"/>
        <pt x="97" y="82" on="1"/>
        <pt x="112" y="74" on="0"/>
        <pt x="152" y="60" on="0"/>
        <pt x="175" y="60" on="1"/>
        <pt x="230" y="60" on="0"/>
        <pt x="300" y="134" on="0"/>
        <pt x="304" y="220" on="1"/>
        <pt x="124" y="220" on="1"/>
        <pt x="124" y="290" on="1"/>
        <pt x="304" y="290" on="1"/>
        <pt x="296" y="373" on="0"/>
        <pt x="233" y="440" on="0"/>
      </contour>
    </TTGlyph>
    <TTGlyph name="afii10096" xMin="75" yMin="-10" xMax="665" yMax="510">
      <contour>
        <pt x="665" y="250" on="1"/>
        <pt x="665" y="184" on="0"/>
        <pt x="635" y="87" on="0"/>
        <pt x="580" y="22" on="0"/>
        <pt x="505" y="-10" on="0"/>
        <pt x="460" y="-10" on="1"/>
        <pt x="373" y="-10" on="0"/>
        <pt x="263" y="103" on="0"/>
        <pt x="255" y="220" on="1"/>
        <pt x="175" y="220" on="1"/>
        <pt x="175" y="0" on="1"/>
        <pt x="75" y="0" on="1"/>
        <pt x="75" y="500" on="1"/>
        <pt x="175" y="500" on="1"/>
        <pt x="175" y="290" on="1"/>
        <pt x="255" y="290" on="1"/>
        <pt x="259" y="346" on="0"/>
        <pt x="293" y="429" on="0"/>
        <pt x="347" y="483" on="0"/>
        <pt x="419" y="510" on="0"/>
        <pt x="460" y="510" on="1"/>
        <pt x="505" y="510" on="0"/>
        <pt x="580" y="478" on="0"/>
        <pt x="635" y="413" on="0"/>
        <pt x="665" y="316" on="0"/>
      </contour>
      <contour>
        <pt x="565" y="250" on="1"/>
        <pt x="565" y="302" on="0"/>
        <pt x="548" y="375" on="0"/>
        <pt x="519" y="420" on="0"/>
        <pt x="481" y="440" on="0"/>
        <pt x="460" y="440" on="1"/>
        <pt x="439" y="440" on="0"/>
        <pt x="401" y="420" on="0"/>
        <pt x="372" y="375" on="0"/>
        <pt x="355" y="302" on="0"/>
        <pt x="355" y="250" on="1"/>
        <pt x="355" y="197" on="0"/>
        <pt x="372" y="125" on="0"/>
        <pt x="401" y="80" on="0"/>
        <pt x="439" y="60" on="0"/>
        <pt x="460" y="60" on="1"/>
        <pt x="481" y="60" on="0"/>
        <pt x="519" y="80" on="0"/>
        <pt x="548" y="125" on="0"/>
        <pt x="565" y="197" on="0"/>
      </contour>
    </TTGlyph>
    <TTGlyph name="afii10097" xMin="25" yMin="-10" xMax="435" yMax="500">
      <contour>
        <pt x="265" y="190" on="1"/>
        <pt x="242" y="190" on="0"/>
        <pt x="212" y="163" on="0"/>
        <pt x="205" y="140" on="1"/>
        <pt x="185" y="75" on="1"/>
        <pt x="172" y="33" on="0"/>
        <pt x="127" y="-10" on="0"/>
        <pt x="85" y="-10" on="1"/>
        <pt x="60" y="-10" on="0"/>
        <pt x="42" y="-5" on="1"/>
        <pt x="32" y="-3" on="0"/>
        <pt x="25" y="0" on="1"/>
        <pt x="35" y="65" on="1"/>
        <pt x="40" y="65" on="1"/>
        <pt x="42" y="63" on="0"/>
        <pt x="46" y="62" on="1"/>
        <pt x="54" y="60" on="0"/>
        <pt x="60" y="60" on="1"/>
        <pt x="81" y="60" on="0"/>
        <pt x="90" y="90" on="1"/>
        <pt x="110" y="155" on="1"/>
        <pt x="115" y="172" on="0"/>
        <pt x="135" y="195" on="0"/>
        <pt x="145" y="202" on="1"/>
        <pt x="156" y="210" on="0"/>
        <pt x="170" y="215" on="1"/>
        <pt x="136" y="221" on="0"/>
        <pt x="110" y="237" on="1"/>
        <pt x="87" y="251" on="0"/>
        <pt x="50" y="301" on="0"/>
        <pt x="50" y="345" on="1"/>
        <pt x="50" y="416" on="0"/>
        <pt x="145" y="500" on="0"/>
        <pt x="250" y="500" on="1"/>
        <pt x="435" y="500" on="1"/>
        <pt x="435" y="0" on="1"/>
        <pt x="335" y="0" on="1"/>
        <pt x="335" y="190" on="1"/>
      </contour>
      <contour>
        <pt x="335" y="260" on="1"/>
        <pt x="335" y="430" on="1"/>
        <pt x="250" y="430" on="1"/>
        <pt x="197" y="430" on="0"/>
        <pt x="150" y="387" on="0"/>
        <pt x="150" y="345" on="1"/>
        <pt x="150" y="303" on="0"/>
        <pt x="197" y="260" on="0"/>
        <pt x="250" y="260" on="1"/>
      </contour>
    </TTGlyph>
    <TTGlyph name="afii10098" xMin="75" yMin="0" xMax="405" yMax="590">
      <contour>
        <pt x="75" y="500" on="1"/>
        <pt x="315" y="500" on="1"/>
        <pt x="325" y="590" on="1"/>
        <pt x="405" y="590" on="1"/>
        <pt x="405" y="430" on="1"/>
        <pt x="175" y="430" on="1"/>
        <pt x="175" y="0" on="1"/>
        <pt x="75" y="0" on="1"/>
      </contour>
    </TTGlyph>
    <TTGlyph name="afii10099" xMin="25" yMin="-140" xMax="490" yMax="700">
      <contour>
        <pt x="315" y="-70" on="1"/>
        <pt x="349" y="-70" on="0"/>
        <pt x="390" y="-25" on="0"/>
        <pt x="390" y="20" on="1"/>
        <pt x="390" y="280" on="1"/>
        <pt x="390" y="322" on="0"/>
        <pt x="337" y="375" on="0"/>
        <pt x="295" y="375" on="1"/>
        <pt x="272" y="375" on="0"/>
        <pt x="234" y="356" on="0"/>
        <pt x="220" y="345" on="1"/>
        <pt x="203" y="332" on="0"/>
        <pt x="190" y="315" on="1"/>
        <pt x="190" y="0" on="1"/>
        <pt x="90" y="0" on="1"/>
        <pt x="90" y="520" on="1"/>
        <pt x="25" y="520" on="1"/>
        <pt x="25" y="590" on="1"/>
        <pt x="90" y="590" on="1"/>
        <pt x="90" y="670" on="1"/>
        <pt x="120" y="700" on="1"/>
        <pt x="190" y="700" on="1"/>
        <pt x="190" y="590" on="1"/>
        <pt x="325" y="590" on="1"/>
        <pt x="325" y="520" on="1"/>
        <pt x="190" y="520" on="1"/>
        <pt x="190" y="400" on="1"/>
        <pt x="204" y="414" on="0"/>
        <pt x="223" y="425" on="1"/>
        <pt x="240" y="434" on="0"/>
        <pt x="288" y="450" on="0"/>
        <pt x="320" y="450" on="1"/>
        <pt x="357" y="450" on="0"/>
        <pt x="420" y="425" on="0"/>
        <pt x="465" y="380" on="0"/>
        <pt x="490" y="317" on="0"/>
        <pt x="490" y="280" on="1"/>
        <pt x="490" y="20" on="1"/>
        <pt x="490" y="-16" on="0"/>
        <pt x="467" y="-75" on="0"/>
        <pt x="426" y="-117" on="0"/>
        <pt x="369" y="-140" on="0"/>
        <pt x="335" y="-140" on="1"/>
        <pt x="318" y="-140" on="0"/>
        <pt x="289" y="-136" on="0"/>
        <pt x="278" y="-133" on="1"/>
        <pt x="266" y="-129" on="0"/>
        <pt x="255" y="-125" on="1"/>
        <pt x="265" y="-60" on="1"/>
        <pt x="275" y="-60" on="1"/>
        <pt x="280" y="-63" on="0"/>
        <pt x="287" y="-65" on="1"/>
        <pt x="299" y="-70" on="0"/>
      </contour>
    </TTGlyph>
    <TTGlyph name="afii10100" xMin="75" yMin="0" xMax="405" yMax="700">
      <contour>
        <pt x="405" y="430" on="1"/>
        <pt x="175" y="430" on="1"/>
        <pt x="175" y="0" on="1"/>
        <pt x="75" y="0" on="1"/>
        <pt x="75" y="500" on="1"/>
        <pt x="405" y="500" on="1"/>
      </contour>
      <contour>
        <pt x="350" y="700" on="1"/>
        <pt x="260" y="550" on="1"/>
        <pt x="195" y="550" on="1"/>
        <pt x="240" y="700" on="1"/>
      </contour>
    </TTGlyph>
    <TTGlyph name="afii10101" xMin="50" yMin="-10" xMax="435" yMax="510">
      <contour>
        <pt x="270" y="440" on="1"/>
        <pt x="222" y="440" on="0"/>
        <pt x="159" y="373" on="0"/>
        <pt x="151" y="290" on="1"/>
        <pt x="331" y="290" on="1"/>
        <pt x="331" y="220" on="1"/>
        <pt x="151" y="220" on="1"/>
        <pt x="155" y="134" on="0"/>
        <pt x="224" y="60" on="0"/>
        <pt x="280" y="60" on="1"/>
        <pt x="303" y="60" on="0"/>
        <pt x="342" y="74" on="0"/>
        <pt x="357" y="82" on="1"/>
        <pt x="375" y="92" on="0"/>
        <pt x="390" y="105" on="1"/>
        <pt x="400" y="105" on="1"/>
        <pt x="435" y="45" on="1"/>
        <pt x="416" y="29" on="0"/>
        <pt x="390" y="17" on="1"/>
        <pt x="368" y="6" on="0"/>
        <pt x="308" y="-10" on="0"/>
        <pt x="270" y="-10" on="1"/>
        <pt x="169" y="-10" on="0"/>
        <pt x="50" y="119" on="0"/>
        <pt x="50" y="250" on="1"/>
        <pt x="50" y="316" on="0"/>
        <pt x="80" y="413" on="0"/>
        <pt x="136" y="478" on="0"/>
        <pt x="213" y="510" on="0"/>
        <pt x="260" y="510" on="1"/>
        <pt x="298" y="510" on="0"/>
        <pt x="358" y="493" on="0"/>
        <pt x="380" y="482" on="1"/>
        <pt x="406" y="470" on="0"/>
        <pt x="425" y="455" on="1"/>
        <pt x="390" y="395" on="1"/>
        <pt x="380" y="395" on="1"/>
        <pt x="365" y="407" on="0"/>
        <pt x="347" y="417" on="1"/>
        <pt x="332" y="425" on="0"/>
        <pt x="293" y="440" on="0"/>
      </contour>
    </TTGlyph>
    <TTGlyph name="afii10102" xMin="35" yMin="-10" xMax="425" yMax="510">
      <contour>
        <pt x="220" y="-10" on="1"/>
        <pt x="175" y="-10" on="0"/>
        <pt x="105" y="6" on="0"/>
        <pt x="82" y="17" on="1"/>
        <pt x="55" y="29" on="0"/>
        <pt x="35" y="45" on="1"/>
        <pt x="70" y="105" on="1"/>
        <pt x="80" y="105" on="1"/>
        <pt x="95" y="92" on="0"/>
        <pt x="115" y="82" on="1"/>
        <pt x="132" y="74" on="0"/>
        <pt x="180" y="60" on="0"/>
        <pt x="210" y="60" on="1"/>
        <pt x="274" y="60" on="0"/>
        <pt x="325" y="100" on="0"/>
        <pt x="325" y="130" on="1"/>
        <pt x="325" y="157" on="0"/>
        <pt x="284" y="190" on="0"/>
        <pt x="221" y="214" on="0"/>
        <pt x="149" y="236" on="0"/>
        <pt x="86" y="270" on="0"/>
        <pt x="45" y="322" on="0"/>
        <pt x="45" y="365" on="1"/>
        <pt x="45" y="429" on="0"/>
        <pt x="137" y="510" on="0"/>
        <pt x="235" y="510" on="1"/>
        <pt x="277" y="510" on="0"/>
        <pt x="341" y="493" on="0"/>
        <pt x="364" y="482" on="1"/>
        <pt x="390" y="470" on="0"/>
        <pt x="410" y="455" on="1"/>
        <pt x="375" y="395" on="1"/>
        <pt x="365" y="395" on="1"/>
        <pt x="349" y="407" on="0"/>
        <pt x="331" y="417" on="1"/>
        <pt x="315" y="425" on="0"/>
        <pt x="271" y="440" on="0"/>
        <pt x="245" y="440" on="1"/>
        <pt x="192" y="440" on="0"/>
        <pt x="145" y="401" on="0"/>
        <pt x="145" y="375" on="1"/>
        <pt x="145" y="348" on="0"/>
        <pt x="186" y="315" on="0"/>
        <pt x="249" y="291" on="0"/>
        <pt x="321" y="269" on="0"/>
        <pt x="384" y="235" on="0"/>
        <pt x="425" y="182" on="0"/>
        <pt x="425" y="140" on="1"/>
        <pt x="425" y="106" on="0"/>
        <pt x="402" y="51" on="0"/>
        <pt x="352" y="12" on="0"/>
        <pt x="274" y="-10" on="0"/>
      </contour>
    </TTGlyph>
    <TTGlyph name="afii10103" xMin="65" yMin="0" xMax="185" yMax="700">
      <contour>
        <pt x="175" y="500" on="1"/>
        <pt x="175" y="0" on="1"/>
        <pt x="75" y="0" on="1"/>
        <pt x="75" y="500" on="1"/>
      </contour>
      <contour>
        <pt x="185" y="640" on="1"/>
        <pt x="185" y="614" on="0"/>
        <pt x="151" y="580" on="0"/>
        <pt x="125" y="580" on="1"/>
        <pt x="99" y="580" on="0"/>
        <pt x="65" y="614" on="0"/>
        <pt x="65" y="640" on="1"/>
        <pt x="65" y="666" on="0"/>
        <pt x="99" y="700" on="0"/>
        <pt x="125" y="700" on="1"/>
        <pt x="151" y="700" on="0"/>
        <pt x="185" y="666" on="0"/>
      </contour>
    </TTGlyph>
    <TTGlyph name="afii10104" xMin="-25" yMin="0" xMax="275" yMax="700">
      <contour>
        <pt x="175" y="500" on="1"/>
        <pt x="175" y="0" on="1"/>
        <pt x="75" y="0" on="1"/>
        <pt x="75" y="500" on="1"/>
      </contour>
      <contour>
        <pt x="95" y="640" on="1"/>
        <pt x="95" y="614" on="0"/>
        <pt x="61" y="580" on="0"/>
        <pt x="35" y="580" on="1"/>
        <pt x="9" y="580" on="0"/>
        <pt x="-25" y="614" on="0"/>
        <pt x="-25" y="640" on="1"/>
        <pt x="-25" y="666" on="0"/>
        <pt x="9" y="700" on="0"/>
        <pt x="35" y="700" on="1"/>
        <pt x="61" y="700" on="0"/>
        <pt x="95" y="666" on="0"/>
      </contour>
      <contour>
        <pt x="275" y="640" on="1"/>
        <pt x="275" y="614" on="0"/>
        <pt x="241" y="580" on="0"/>
        <pt x="215" y="580" on="1"/>
        <pt x="189" y="580" on="0"/>
        <pt x="155" y="614" on="0"/>
        <pt x="155" y="640" on="1"/>
        <pt x="155" y="666" on="0"/>
        <pt x="189" y="700" on="0"/>
        <pt x="215" y="700" on="1"/>
        <pt x="241" y="700" on="0"/>
        <pt x="275" y="666" on="0"/>
      </contour>
    </TTGlyph>
    <TTGlyph name="afii10105" xMin="-90" yMin="-200" xMax="185" yMax="700">
      <contour>
        <pt x="185" y="640" on="1"/>
        <pt x="185" y="614" on="0"/>
        <pt x="151" y="580" on="0"/>
        <pt x="125" y="580" on="1"/>
        <pt x="99" y="580" on="0"/>
        <pt x="65" y="614" on="0"/>
        <pt x="65" y="640" on="1"/>
        <pt x="65" y="666" on="0"/>
        <pt x="99" y="700" on="0"/>
        <pt x="125" y="700" on="1"/>
        <pt x="151" y="700" on="0"/>
        <pt x="185" y="666" on="0"/>
      </contour>
      <contour>
        <pt x="0" y="-130" on="1"/>
        <pt x="34" y="-130" on="0"/>
        <pt x="75" y="-85" on="0"/>
        <pt x="75" y="-40" on="1"/>
        <pt x="75" y="500" on="1"/>
        <pt x="175" y="500" on="1"/>
        <pt x="175" y="-40" on="1"/>
        <pt x="175" y="-76" on="0"/>
        <pt x="152" y="-135" on="0"/>
        <pt x="108" y="-177" on="0"/>
        <pt x="47" y="-200" on="0"/>
        <pt x="10" y="-200" on="1"/>
        <pt x="-13" y="-200" on="0"/>
        <pt x="-50" y="-191" on="0"/>
        <pt x="-63" y="-185" on="1"/>
        <pt x="-79" y="-179" on="0"/>
        <pt x="-90" y="-170" on="1"/>
        <pt x="-65" y="-105" on="1"/>
        <pt x="-55" y="-105" on="1"/>
        <pt x="-48" y="-113" on="0"/>
        <pt x="-39" y="-118" on="1"/>
        <pt x="-31" y="-123" on="0"/>
        <pt x="-11" y="-130" on="0"/>
      </contour>
    </TTGlyph>
    <TTGlyph name="afii10106" xMin="10" yMin="-10" xMax="735" yMax="500">
      <contour>
        <pt x="535" y="330" on="1"/>
        <pt x="640" y="330" on="0"/>
        <pt x="735" y="244" on="0"/>
        <pt x="735" y="165" on="1"/>
        <pt x="735" y="86" on="0"/>
        <pt x="640" y="0" on="0"/>
        <pt x="535" y="0" on="1"/>
        <pt x="345" y="0" on="1"/>
        <pt x="345" y="430" on="1"/>
        <pt x="210" y="430" on="1"/>
        <pt x="195" y="160" on="1"/>
        <pt x="190" y="70" on="0"/>
        <pt x="121" y="-10" on="0"/>
        <pt x="65" y="-10" on="1"/>
        <pt x="43" y="-10" on="0"/>
        <pt x="26" y="-5" on="1"/>
        <pt x="17" y="-3" on="0"/>
        <pt x="10" y="0" on="1"/>
        <pt x="15" y="65" on="1"/>
        <pt x="25" y="65" on="1"/>
        <pt x="27" y="63" on="0"/>
        <pt x="31" y="62" on="1"/>
        <pt x="39" y="60" on="0"/>
        <pt x="45" y="60" on="1"/>
        <pt x="64" y="60" on="0"/>
        <pt x="91" y="100" on="0"/>
        <pt x="95" y="160" on="1"/>
        <pt x="115" y="500" on="1"/>
        <pt x="445" y="500" on="1"/>
        <pt x="445" y="330" on="1"/>
      </contour>
      <contour>
        <pt x="445" y="260" on="1"/>
        <pt x="445" y="70" on="1"/>
        <pt x="535" y="70" on="1"/>
        <pt x="588" y="70" on="0"/>
        <pt x="635" y="116" on="0"/>
        <pt x="635" y="165" on="1"/>
        <pt x="635" y="214" on="0"/>
        <pt x="588" y="260" on="0"/>
        <pt x="535" y="260" on="1"/>
      </contour>
    </TTGlyph>
    <TTGlyph name="afii10107" xMin="75" yMin="0" xMax="745" yMax="500">
      <contour>
        <pt x="545" y="310" on="1"/>
        <pt x="650" y="310" on="0"/>
        <pt x="745" y="226" on="0"/>
        <pt x="745" y="155" on="1"/>
        <pt x="745" y="84" on="0"/>
        <pt x="650" y="0" on="0"/>
        <pt x="545" y="0" on="1"/>
        <pt x="355" y="0" on="1"/>
        <pt x="355" y="240" on="1"/>
        <pt x="175" y="240" on="1"/>
        <pt x="175" y="0" on="1"/>
        <pt x="75" y="0" on="1"/>
        <pt x="75" y="500" on="1"/>
        <pt x="175" y="500" on="1"/>
        <pt x="175" y="310" on="1"/>
        <pt x="355" y="310" on="1"/>
        <pt x="355" y="500" on="1"/>
        <pt x="455" y="500" on="1"/>
        <pt x="455" y="310" on="1"/>
      </contour>
      <contour>
        <pt x="455" y="240" on="1"/>
        <pt x="455" y="70" on="1"/>
        <pt x="545" y="70" on="1"/>
        <pt x="598" y="70" on="0"/>
        <pt x="645" y="113" on="0"/>
        <pt x="645" y="155" on="1"/>
        <pt x="645" y="197" on="0"/>
        <pt x="598" y="240" on="0"/>
        <pt x="545" y="240" on="1"/>
      </contour>
    </TTGlyph>
    <TTGlyph name="afii10108" xMin="25" yMin="0" xMax="490" yMax="700">
      <contour>
        <pt x="90" y="590" on="1"/>
        <pt x="90" y="670" on="1"/>
        <pt x="120" y="700" on="1"/>
        <pt x="190" y="700" on="1"/>
        <pt x="190" y="590" on="1"/>
        <pt x="325" y="590" on="1"/>
        <pt x="325" y="520" on="1"/>
        <pt x="190" y="520" on="1"/>
        <pt x="190" y="400" on="1"/>
        <pt x="204" y="414" on="0"/>
        <pt x="223" y="425" on="1"/>
        <pt x="240" y="434" on="0"/>
        <pt x="288" y="450" on="0"/>
        <pt x="320" y="450" on="1"/>
        <pt x="357" y="450" on="0"/>
        <pt x="420" y="425" on="0"/>
        <pt x="465" y="380" on="0"/>
        <pt x="490" y="317" on="0"/>
        <pt x="490" y="280" on="1"/>
        <pt x="490" y="0" on="1"/>
        <pt x="390" y="0" on="1"/>
        <pt x="390" y="280" on="1"/>
        <pt x="390" y="322" on="0"/>
        <pt x="337" y="375" on="0"/>
        <pt x="295" y="375" on="1"/>
        <pt x="272" y="375" on="0"/>
        <pt x="234" y="356" on="0"/>
        <pt x="220" y="345" on="1"/>
        <pt x="203" y="332" on="0"/>
        <pt x="190" y="315" on="1"/>
        <pt x="190" y="0" on="1"/>
        <pt x="90" y="0" on="1"/>
        <pt x="90" y="520" on="1"/>
        <pt x="25" y="520" on="1"/>
        <pt x="25" y="590" on="1"/>
      </contour>
    </TTGlyph>
    <TTGlyph name="afii10109" xMin="75" yMin="-10" xMax="485" yMax="690">
      <contour>
        <pt x="310" y="260" on="1"/>
        <pt x="329" y="257" on="0"/>
        <pt x="346" y="247" on="1"/>
        <pt x="360" y="239" on="0"/>
        <pt x="388" y="209" on="0"/>
        <pt x="395" y="185" on="1"/>
        <pt x="420" y="90" on="1"/>
        <pt x="427" y="60" on="0"/>
        <pt x="450" y="60" on="1"/>
        <pt x="456" y="60" on="0"/>
        <pt x="464" y="62" on="1"/>
        <pt x="468" y="63" on="0"/>
        <pt x="470" y="65" on="1"/>
        <pt x="475" y="65" on="1"/>
        <pt x="485" y="0" on="1"/>
        <pt x="478" y="-3" on="0"/>
        <pt x="468" y="-5" on="1"/>
        <pt x="450" y="-10" on="0"/>
        <pt x="425" y="-10" on="1"/>
        <pt x="383" y="-10" on="0"/>
        <pt x="336" y="34" on="0"/>
        <pt x="325" y="75" on="1"/>
        <pt x="300" y="170" on="1"/>
        <pt x="294" y="193" on="0"/>
        <pt x="261" y="220" on="0"/>
        <pt x="235" y="220" on="1"/>
        <pt x="175" y="220" on="1"/>
        <pt x="175" y="0" on="1"/>
        <pt x="75" y="0" on="1"/>
        <pt x="75" y="500" on="1"/>
        <pt x="175" y="500" on="1"/>
        <pt x="175" y="290" on="1"/>
        <pt x="225" y="290" on="1"/>
        <pt x="254" y="290" on="0"/>
        <pt x="285" y="317" on="0"/>
        <pt x="290" y="340" on="1"/>
        <pt x="310" y="425" on="1"/>
        <pt x="320" y="467" on="0"/>
        <pt x="367" y="510" on="0"/>
        <pt x="410" y="510" on="1"/>
        <pt x="423" y="510" on="0"/>
        <pt x="445" y="507" on="0"/>
        <pt x="453" y="505" on="1"/>
        <pt x="463" y="502" on="0"/>
        <pt x="470" y="500" on="1"/>
        <pt x="460" y="435" on="1"/>
        <pt x="455" y="435" on="1"/>
        <pt x="453" y="436" on="0"/>
        <pt x="449" y="437" on="1"/>
        <pt x="446" y="438" on="0"/>
        <pt x="439" y="440" on="0"/>
        <pt x="435" y="440" on="1"/>
        <pt x="412" y="440" on="0"/>
        <pt x="405" y="410" on="1"/>
        <pt x="385" y="325" on="1"/>
        <pt x="380" y="302" on="0"/>
        <pt x="355" y="277" on="0"/>
        <pt x="342" y="270" on="1"/>
        <pt x="327" y="262" on="0"/>
      </contour>
      <contour>
        <pt x="370" y="690" on="1"/>
        <pt x="280" y="540" on="1"/>
        <pt x="215" y="540" on="1"/>
        <pt x="260" y="690" on="1"/>
      </contour>
    </TTGlyph>
    <TTGlyph name="afii10110" xMin="15" yMin="-210" xMax="460" yMax="670">
      <contour>
        <pt x="125" y="-140" on="1"/>
        <pt x="151" y="-140" on="0"/>
        <pt x="192" y="-100" on="0"/>
        <pt x="200" y="-70" on="1"/>
        <pt x="220" y="0" on="1"/>
        <pt x="180" y="0" on="1"/>
        <pt x="15" y="500" on="1"/>
        <pt x="115" y="500" on="1"/>
        <pt x="225" y="170" on="1"/>
        <pt x="229" y="159" on="0"/>
        <pt x="236" y="131" on="0"/>
        <pt x="239" y="119" on="1"/>
        <pt x="243" y="105" on="0"/>
        <pt x="246" y="90" on="1"/>
        <pt x="250" y="90" on="1"/>
        <pt x="252" y="105" on="0"/>
        <pt x="256" y="119" on="1"/>
        <pt x="259" y="131" on="0"/>
        <pt x="266" y="159" on="0"/>
        <pt x="269" y="170" on="1"/>
        <pt x="360" y="500" on="1"/>
        <pt x="460" y="500" on="1"/>
        <pt x="300" y="-70" on="1"/>
        <pt x="283" y="-130" on="0"/>
        <pt x="199" y="-210" on="0"/>
        <pt x="135" y="-210" on="1"/>
        <pt x="112" y="-210" on="0"/>
        <pt x="75" y="-201" on="0"/>
        <pt x="62" y="-195" on="1"/>
        <pt x="46" y="-189" on="0"/>
        <pt x="35" y="-180" on="1"/>
        <pt x="60" y="-115" on="1"/>
        <pt x="70" y="-115" on="1"/>
        <pt x="77" y="-123" on="0"/>
        <pt x="86" y="-128" on="1"/>
        <pt x="94" y="-133" on="0"/>
        <pt x="114" y="-140" on="0"/>
      </contour>
      <contour>
        <pt x="240" y="600" on="1"/>
        <pt x="270" y="600" on="0"/>
        <pt x="300" y="632" on="0"/>
        <pt x="300" y="670" on="1"/>
        <pt x="390" y="670" on="1"/>
        <pt x="390" y="610" on="0"/>
        <pt x="315" y="540" on="0"/>
        <pt x="240" y="540" on="1"/>
        <pt x="165" y="540" on="0"/>
        <pt x="90" y="610" on="0"/>
        <pt x="90" y="670" on="1"/>
        <pt x="180" y="670" on="1"/>
        <pt x="180" y="632" on="0"/>
        <pt x="210" y="600" on="0"/>
      </contour>
    </TTGlyph>
    <TTGlyph name="afii10145" xMin="90" yMin="-150" xMax="540" yMax="700">
      <contour>
        <pt x="90" y="0" on="1"/>
        <pt x="90" y="700" on="1"/>
        <pt x="190" y="700" on="1"/>
        <pt x="190" y="70" on="1"/>
        <pt x="440" y="70" on="1"/>
        <pt x="440" y="700" on="1"/>
        <pt x="540" y="700" on="1"/>
        <pt x="540" y="0" on="1"/>
        <pt x="365" y="0" on="1"/>
        <pt x="355" y="-150" on="1"/>
        <pt x="275" y="-150" on="1"/>
        <pt x="265" y="0" on="1"/>
      </contour>
    </TTGlyph>
    <TTGlyph name="afii10193" xMin="75" yMin="-140" xMax="475" yMax="500">
      <contour>
        <pt x="75" y="0" on="1"/>
        <pt x="75" y="500" on="1"/>
        <pt x="175" y="500" on="1"/>
        <pt x="175" y="70" on="1"/>
        <pt x="375" y="70" on="1"/>
        <pt x="375" y="500" on="1"/>
        <pt x="475" y="500" on="1"/>
        <pt x="475" y="0" on="1"/>
        <pt x="325" y="0" on="1"/>
        <pt x="315" y="-140" on="1"/>
        <pt x="235" y="-140" on="1"/>
        <pt x="225" y="0" on="1"/>
      </contour>
    </TTGlyph>
    <TTGlyph name="afii61352" xMin="90" yMin="0" xMax="921" yMax="710">
      <contour>
        <pt x="621" y="290" on="1"/>
        <pt x="901" y="290" on="1"/>
        <pt x="901" y="220" on="1"/>
        <pt x="621" y="220" on="1"/>
      </contour>
      <contour>
        <pt x="220" y="445" on="1"/>
        <pt x="215" y="456" on="0"/>
        <pt x="205" y="485" on="0"/>
        <pt x="200" y="499" on="1"/>
        <pt x="195" y="514" on="0"/>
        <pt x="190" y="530" on="1"/>
        <pt x="186" y="530" on="1"/>
        <pt x="187" y="514" on="0"/>
        <pt x="188" y="499" on="1"/>
        <pt x="189" y="485" on="0"/>
        <pt x="190" y="456" on="0"/>
        <pt x="190" y="445" on="1"/>
        <pt x="190" y="0" on="1"/>
        <pt x="90" y="0" on="1"/>
        <pt x="90" y="700" on="1"/>
        <pt x="200" y="700" on="1"/>
        <pt x="410" y="255" on="1"/>
        <pt x="415" y="244" on="0"/>
        <pt x="425" y="214" on="0"/>
        <pt x="430" y="201" on="1"/>
        <pt x="435" y="185" on="0"/>
        <pt x="440" y="170" on="1"/>
        <pt x="444" y="170" on="1"/>
        <pt x="443" y="185" on="0"/>
        <pt x="442" y="201" on="1"/>
        <pt x="441" y="214" on="0"/>
        <pt x="440" y="244" on="0"/>
        <pt x="440" y="255" on="1"/>
        <pt x="440" y="700" on="1"/>
        <pt x="540" y="700" on="1"/>
        <pt x="540" y="0" on="1"/>
        <pt x="430" y="0" on="1"/>
      </contour>
      <contour>
        <pt x="761" y="650" on="1"/>
        <pt x="731" y="650" on="0"/>
        <pt x="691" y="597" on="0"/>
        <pt x="691" y="530" on="1"/>
        <pt x="691" y="496" on="0"/>
        <pt x="702" y="450" on="0"/>
        <pt x="720" y="422" on="0"/>
        <pt x="746" y="410" on="0"/>
        <pt x="761" y="410" on="1"/>
        <pt x="776" y="410" on="0"/>
        <pt x="802" y="422" on="0"/>
        <pt x="820" y="450" on="0"/>
        <pt x="831" y="496" on="0"/>
        <pt x="831" y="530" on="1"/>
        <pt x="831" y="597" on="0"/>
        <pt x="791" y="650" on="0"/>
      </contour>
      <contour>
        <pt x="761" y="710" on="1"/>
        <pt x="833" y="710" on="0"/>
        <pt x="921" y="617" on="0"/>
        <pt x="921" y="530" on="1"/>
        <pt x="921" y="443" on="0"/>
        <pt x="833" y="350" on="0"/>
        <pt x="761" y="350" on="1"/>
        <pt x="689" y="350" on="0"/>
        <pt x="601" y="443" on="0"/>
        <pt x="601" y="530" on="1"/>
        <pt x="601" y="617" on="0"/>
        <pt x="689" y="710" on="0"/>
      </contour>
    </TTGlyph>
    <TTGlyph name="agrave" xMin="45" yMin="-10" xMax="440" yMax="700">
      <component glyphName=".ttfautohint" x="45" y="0" flags="0x1000"/>
      <component glyphName="a" x="0" y="0" flags="0x1204"/>
      <component glyphName="grave" x="127" y="0" flags="0x1004"/>
    </TTGlyph>
    <TTGlyph name="amacron" xMin="45" yMin="-10" xMax="440" yMax="660">
      <component glyphName=".ttfautohint" x="45" y="0" flags="0x1000"/>
      <component glyphName="a" x="0" y="0" flags="0x1204"/>
      <component glyphName="macron" x="110" y="0" flags="0x1004"/>
    </TTGlyph>
</ttFont>
